<svg xmlns="http://www.w3.org/2000/svg" xmlns:xlink="http://www.w3.org/1999/xlink" viewBox="0 0 2991.48387 3177.29032"><defs><linearGradient id="a" x1="376.25806" y1="1722.78373" x2="2527.51365" y2="1722.78373" gradientUnits="userSpaceOnUse"><stop offset="0" stop-color="#ff9085"/><stop offset="1" stop-color="#fb6fbb"/></linearGradient><linearGradient id="b" x1="1463.36382" y1="372.08969" x2="1279.17389" y2="2036.89142" gradientUnits="userSpaceOnUse"><stop offset="0" stop-color="#40447e"/><stop offset="0.9964" stop-color="#3c3b6b"/></linearGradient><linearGradient id="c" x1="458.95712" y1="2231.41639" x2="5477.72434" y2="2231.41639" gradientUnits="userSpaceOnUse"><stop offset="0" stop-color="#aa80f9"/><stop offset="0.9964" stop-color="#6165d7"/></linearGradient><linearGradient id="d" x1="458.95712" y1="2397.73414" x2="5477.72434" y2="2397.73414" xlink:href="#c"/><linearGradient id="e" x1="458.95712" y1="2564.05197" x2="5477.72434" y2="2564.05197" xlink:href="#c"/><linearGradient id="f" x1="5660.19379" y1="1755.98076" x2="5200.43335" y2="2532.46502" gradientTransform="translate(-3398.75226 -255.48387)" gradientUnits="userSpaceOnUse"><stop offset="0" stop-color="#ffc444"/><stop offset="0.3138" stop-color="#fba94a"/><stop offset="0.9964" stop-color="#f36f56"/></linearGradient><linearGradient id="g" x1="6078.93709" y1="1774.95666" x2="5602.17797" y2="2580.14981" xlink:href="#f"/><linearGradient id="h" x1="6238.75261" y1="2332.5283" x2="5488.03982" y2="3600.39871" xlink:href="#f"/><linearGradient id="i" x1="5570.57158" y1="2335.12558" x2="4871.34347" y2="3516.04409" xlink:href="#f"/><linearGradient id="j" x1="-3421.1882" y1="1841.4921" x2="-3064.27803" y2="3553.14806" gradientTransform="translate(4634.1172)" xlink:href="#c"/><linearGradient id="k" x1="5871.70607" y1="3264.99158" x2="5994.7713" y2="3264.99158" gradientTransform="matrix(-0.9996, 0.0289, 0.0289, 0.9996, 6839.7926, -31.2392)" gradientUnits="userSpaceOnUse"><stop offset="0" stop-color="#444b8c"/><stop offset="0.9964" stop-color="#26264f"/></linearGradient><linearGradient id="l" x1="5609.91261" y1="3363.08997" x2="5654.03348" y2="3363.08997" gradientTransform="matrix(-1, 0, 0, 1, 6595.2811, 0)" gradientUnits="userSpaceOnUse"><stop offset="0" stop-color="#ffc444"/><stop offset="0.9964" stop-color="#f36f56"/></linearGradient><linearGradient id="m" x1="6145.77142" y1="2123.87795" x2="6276.52685" y2="2123.87795" gradientTransform="matrix(-0.9642, 0.2651, 0.2651, 0.9642, 6826.9674, -308.9189)" xlink:href="#k"/><linearGradient id="n" x1="5216.54422" y1="3348.44666" x2="5271.0372" y2="3348.44666" xlink:href="#l"/><linearGradient id="o" x1="-3211.77408" y1="3153.9047" x2="-3562.07398" y2="2364.24527" gradientTransform="translate(4634.1172)" xlink:href="#b"/><linearGradient id="p" x1="-3817.19576" y1="2635.59221" x2="-4167.60633" y2="1845.6833" gradientTransform="matrix(0.9925, -0.1225, 0.1225, 0.9925, 4717.1223, 108.12408)" xlink:href="#b"/><linearGradient id="q" x1="-3743.99235" y1="1909.17888" x2="-3387.00434" y2="3621.20814" gradientTransform="translate(4634.1172)" xlink:href="#c"/><linearGradient id="r" x1="-3842.12358" y1="2991.2997" x2="-3685.36284" y2="2246.68886" gradientTransform="translate(4634.1172)" xlink:href="#c"/><linearGradient id="s" x1="-3974.47676" y1="1754.75637" x2="-3691.97012" y2="3109.59076" gradientTransform="translate(4634.1172)" xlink:href="#c"/><linearGradient id="t" x1="-3418.87986" y1="2343.64143" x2="-3485.44089" y2="2155.05148" gradientTransform="translate(4257.85914 -255.48387)" gradientUnits="userSpaceOnUse"><stop offset="0" stop-color="#311944"/><stop offset="1" stop-color="#893976"/></linearGradient><linearGradient id="u" x1="-3709.52164" y1="2070.24585" x2="-3685.03634" y2="2239.41746" gradientTransform="translate(4634.1172)" xlink:href="#t"/><linearGradient id="v" x1="5533.98808" y1="2096.73937" x2="5671.78894" y2="2096.73937" xlink:href="#l"/><linearGradient id="w" x1="-3226.21606" y1="2084.77424" x2="-3356.18478" y2="1900.21879" gradientTransform="translate(4634.1172)" xlink:href="#k"/><linearGradient id="x" x1="-3475.60244" y1="2390.39627" x2="-3191.0498" y2="1812.39928" gradientTransform="translate(4634.1172)" xlink:href="#t"/><linearGradient id="y" x1="-3613.63297" y1="2019.42737" x2="-2990.34069" y2="2019.42737" gradientTransform="translate(4634.1172)" xlink:href="#t"/><linearGradient id="z" x1="4941.8219" y1="2167.59871" x2="5034.78626" y2="2167.59871" xlink:href="#l"/><linearGradient id="aa" x1="5646.02835" y1="1407.02637" x2="5622.13484" y2="1813.21128" xlink:href="#l"/><linearGradient id="ab" x1="5769.00263" y1="1409.32336" x2="5675.49624" y2="1171.83417" gradientTransform="matrix(-1, 0.0037, 0.0037, 1, 6673.142, 162.9159)" gradientUnits="userSpaceOnUse"><stop offset="0" stop-color="#311944"/><stop offset="1" stop-color="#6b3976"/></linearGradient><linearGradient id="ac" x1="5543.3325" y1="1456.54861" x2="5662.57041" y2="1456.54861" xlink:href="#l"/><linearGradient id="ad" x1="5740.51049" y1="1420.83951" x2="5646.7864" y2="1182.7974" xlink:href="#ab"/><linearGradient id="ae" x1="5554.79806" y1="1477.14624" x2="5581.0033" y2="1477.14624" xlink:href="#l"/><linearGradient id="af" x1="2136.91639" y1="2764.61425" x2="1884.25362" y2="3246.73654" xlink:href="#c"/><linearGradient id="ag" x1="1960.68209" y1="3127.32843" x2="1670.51681" y2="3475.17691" gradientUnits="userSpaceOnUse"><stop offset="0.0036" stop-color="#e38ddd"/><stop offset="1" stop-color="#9571f6"/></linearGradient><linearGradient id="ah" x1="2386.22446" y1="1134.45204" x2="3367.74194" y2="1134.45204" xlink:href="#c"/></defs><g style="isolation:isolate"><path d="M2387.62968,312.82989,538.90049,255.5687C449.31322,252.794,376.25806,318.432,376.25806,402.19056V3050.25369c0,83.75971,73.05516,146.11829,162.64243,139.32333l1848.72919-140.22186c77.44611-5.87414,139.884-73.22276,139.884-150.46082V457.01351C2527.51365,379.77647,2465.07579,315.22864,2387.62968,312.82989Z" transform="translate(-376.25806 -255.48387)" style="fill:url(#a)"/><path d="M428.39911,3062.34326V387.7606c0-48.20319,42.01057-86.05212,93.65723-84.543l1880.20885,54.94068c44.66021,1.305,80.75019,38.52516,80.75019,83.13752V2916.61018c0,44.61185-36.0896,83.45108-80.74931,86.76014L522.05734,3142.68441C470.41019,3146.51121,428.39911,3110.54709,428.39911,3062.34326Z" transform="translate(-376.25806 -255.48387)" style="fill:#fff;opacity:0.74;mix-blend-mode:soft-light"/><path d="M2387.63031,312.83,538.90074,255.56883c-89.58613-2.77472-162.64242,62.86266-162.64242,146.62211V510.983l2151.256,46.35221V457.01376C2527.51428,379.77609,2465.07642,315.22877,2387.63031,312.83Z" transform="translate(-376.25806 -255.48387)" style="fill:url(#b)"/><path d="M665.05462,395.01141c0,27.12665-23.49475,48.54815-52.53268,47.84494-29.09964-.70485-52.73491-23.3525-52.73491-50.58358,0-27.23122,23.63527-48.649,52.73491-47.83976C641.55987,345.24065,665.05462,367.88463,665.05462,395.01141Z" transform="translate(-376.25806 -255.48387)" style="fill:#fff"/><path d="M847.97384,399.77017c0,26.94524-23.18131,48.22724-51.83151,47.53328-28.71053-.69536-52.0296-23.187-52.0296-50.23534s23.31907-48.32662,52.0296-47.5281C824.79253,350.33677,847.97384,372.82492,847.97384,399.77017Z" transform="translate(-376.25806 -255.48387)" style="fill:#fff"/><path d="M1028.46166,404.46576c0,26.76612-22.874,47.91039-51.1442,47.22567-28.32935-.68612-51.33839-23.024-51.33839-49.89191,0-26.86777,23.009-48.0085,51.33839-47.2206C1005.58761,355.36516,1028.46166,377.69963,1028.46166,404.46576Z" transform="translate(-376.25806 -255.48387)" style="fill:#fff"/><path d="M1426.778,1064.03722l-760.92978-1.21349c-12.40345-.01987-22.46844-9.3051-22.46844-20.73919v-48.668c0-11.43409,10.065-20.64652,22.46844-20.57652l760.92978,4.29266c11.55634.06519,20.9155,9.0523,20.9155,20.07332v46.90932C1447.69349,1055.13619,1438.33433,1064.05557,1426.778,1064.03722Z" transform="translate(-376.25806 -255.48387)" style="fill:#fff"/><path d="M695.3561,1081.15949l65.41932,241.17814c4.13331,15.24406,18.96287,25.79809,35.95083,25.60618l506.54812-5.721c16.19374-.18293,30.28978-10.78823,34.21707-25.72125l61.69086-234.7993Zm187.78039,227.03137c0,9.56866-8.34129,17.4119-18.635,17.51811l-17.78041.18355c-10.32.10647-18.6968-7.5836-18.6968-17.17632V1121.79047c0-9.59271,8.37681-17.37152,18.6968-17.37444l17.78041-.00493c10.29367-.00291,18.635,7.752,18.635,17.32063Zm98.85853-.94246c0,9.52574-8.26649,17.33341-18.468,17.43861l-17.62087.18191c-10.22743.10545-18.52893-7.55032-18.52893-17.09986V1121.68464c0-9.54955,8.3015-17.29329,18.52893-17.2962l17.62087-.00494c10.20149-.00278,18.468,7.71716,18.468,17.243Zm97.9749-.934c0,9.48321-8.19283,17.25544-18.30327,17.35987l-17.46359.18014c-10.13588.10469-18.36321-7.51727-18.36321-17.024V1121.57982c0-9.50676,8.22733-17.21594,18.36321-17.21873l17.46359-.00481c10.11044-.00278,18.30327,7.68273,18.30327,17.16582Zm97.10285-.92575c0,9.44106-8.12,17.17834-18.14057,17.28177l-17.30832.17861c-10.04584.10368-18.19988-7.48461-18.19988-16.949v-184.4242c0-9.46435,8.154-17.1391,18.19988-17.14189l17.30832-.00481c10.02053-.00278,18.14057,7.64855,18.14057,17.08961Zm96.24264-.9174c0,9.39916-8.04826,17.10189-17.98027,17.2043l-17.15506.1771c-9.95681.10279-18.0387-7.45221-18.0387-16.87453V1121.37285c0-9.4222,8.08189-17.0629,18.0387-17.06568l17.15506-.00469c9.932-.00278,17.98027,7.61463,17.98027,17.01378Z" transform="translate(-376.25806 -255.48387)" style="fill:#fff"/><path d="M780.843,948.94593c-11.55735,9.2508-29.11437,8.02326-39.212-2.75927a24.37467,24.37467,0,0,1,2.69761-36.29655c11.58342-9.236,29.13389-7.96414,39.20253,2.82307A24.3762,24.3762,0,0,1,780.843,948.94593Z" transform="translate(-376.25806 -255.48387)" style="fill:#fff"/><path d="M1025.03065,719.78343c-3.81132-4.162-11.69386-3.71263-17.6079,1.00841L766.485,913.12916c-6.04741,4.82775-7.78734,12.13-3.884,16.30487,3.902,4.17354,11.964,3.63946,18.00382-1.18931l240.632-192.38035C1027.14345,731.14219,1028.8407,723.944,1025.03065,719.78343Z" transform="translate(-376.25806 -255.48387)" style="fill:#fff"/><path d="M1318.41712,952.575c10.99118,9.167,27.64467,8.18592,37.19915-2.17431,9.546-10.35111,8.405-26.16355-2.55091-35.33485-10.967-9.18066-27.62666-8.24187-37.208,2.11354C1306.26766,927.54405,1307.41473,943.39878,1318.41712,952.575Z" transform="translate(-376.25806 -255.48387)" style="fill:#fff"/><path d="M1080.77056,720.74779c3.79066-4.01859,11.62208-3.29653,17.49028,1.61022l233.80754,195.50206c5.73926,4.799,7.38929,11.937,3.68678,15.94523-3.70378,4.00973-11.36468,3.37324-17.11112-1.42489l-234.10019-195.4675C1078.66821,732.00693,1076.97864,724.7679,1080.77056,720.74779Z" transform="translate(-376.25806 -255.48387)" style="fill:#fff"/><polygon points="1936.545 578.592 1151.888 568.523 1151.888 470.342 1936.545 484.015 1936.545 578.592" style="fill:#fff"/><polygon points="1936.545 744.174 1151.888 740.415 1151.888 642.234 1936.545 649.597 1936.545 744.174" style="fill:#fff"/><polygon points="1936.545 909.755 1151.888 912.307 1151.888 814.126 1936.545 815.179 1936.545 909.755" style="fill:#fff"/><polygon points="1936.545 1075.337 1151.888 1084.199 1151.888 986.018 1936.545 980.76 1936.545 1075.337" style="fill:#fff"/><polygon points="1658.406 1348.055 267.122 1381.741 267.122 1279.496 1658.406 1252.2 1658.406 1348.055" style="fill:#fff"/><polygon points="1658.406 1515.874 267.122 1560.749 267.122 1458.504 1658.406 1420.019 1658.406 1515.874" style="fill:#fff"/><polygon points="1658.406 1683.692 267.122 1739.757 267.122 1637.511 1658.406 1587.838 1658.406 1683.692" style="fill:#fff"/><polygon points="1658.406 1851.511 267.122 1918.764 267.122 1816.519 1658.406 1755.656 1658.406 1851.511" style="fill:#fff"/><polygon points="1936.545 1341.32 1753.528 1345.752 1753.528 1250.334 1936.545 1246.744 1936.545 1341.32" style="fill:#fff"/><polygon points="1936.545 1506.902 1753.528 1512.805 1753.528 1417.388 1936.545 1412.325 1936.545 1506.902" style="fill:#fff"/><polygon points="1936.545 1672.484 1753.528 1679.859 1753.528 1584.442 1936.545 1577.907 1936.545 1672.484" style="fill:#fff"/><polygon points="1936.545 1838.066 1753.528 1846.913 1753.528 1751.495 1936.545 1743.489 1936.545 1838.066" style="fill:#fff"/><polygon points="1658.406 2123.844 267.122 2209.255 267.122 2107.009 1658.406 2027.99 1658.406 2123.844" style="fill:#fff"/><polygon points="1658.406 2291.663 267.122 2388.262 267.122 2286.017 1658.406 2195.808 1658.406 2291.663" style="fill:#fff"/><polygon points="1658.406 2459.482 267.122 2567.27 267.122 2465.025 1658.406 2363.627 1658.406 2459.482" style="fill:#fff"/><polygon points="1658.406 2627.3 267.122 2746.278 267.122 2644.032 1658.406 2531.446 1658.406 2627.3" style="fill:#fff"/><polygon points="1936.545 2106.769 1753.528 2118.005 1753.528 2022.587 1936.545 2012.192 1936.545 2106.769" style="fill:#fff"/><polygon points="1936.545 2272.351 1753.528 2285.058 1753.528 2189.641 1936.545 2177.774 1936.545 2272.351" style="fill:url(#c)"/><polygon points="1936.545 2437.933 1753.528 2452.112 1753.528 2356.695 1936.545 2343.356 1936.545 2437.933" style="fill:url(#d)"/><polygon points="1936.545 2603.515 1753.528 2619.166 1753.528 2523.748 1936.545 2508.938 1936.545 2603.515" style="fill:url(#e)"/><polygon points="2255.371 2198.125 1838.071 2146.838 1838.071 1528.148 2255.371 1448.688 2255.371 2198.125" style="fill:url(#f)"/><polygon points="2764.378 2165.528 2255.371 2198.125 2255.371 1448.688 2764.378 1519.327 2764.378 2165.528" style="fill:url(#g)"/><polygon points="2447.243 1475.315 2447.243 1780.892 2616.697 1794.467 2616.697 1498.832 2447.243 1475.315" style="fill:#fff;mix-blend-mode:soft-light"/><polygon points="2947.253 3092.138 2173.127 3146.872 2173.127 2007.088 2947.253 2061.823 2947.253 3092.138" style="fill:url(#h)"/><polygon points="2173.127 3146.872 1538.475 3068.873 1538.475 2079.852 2173.127 2007.088 2173.127 3146.872" style="fill:url(#i)"/><polygon points="2447.168 2026.465 2447.168 2488.947 2706.546 2488.947 2706.546 2044.805 2447.168 2026.465" style="fill:#fff;mix-blend-mode:soft-light"/><path d="M1380.31022,1895.48164c35.75136-38.37174-63.22113-182.52852-116.19468-245.69525-46.27862-55.18348-93.84473-111.904-152.25506-104.72258-51.28323,6.30518-101.18516,60.672-104.17454,112.77812C999.64322,1798.0167,1329.48486,1950.03192,1380.31022,1895.48164Z" transform="translate(-376.25806 -255.48387)" style="fill:url(#j)"/><path d="M951.05206,3376.82088c-6.72993,5.499-7.96779,19.23214-8.77524,28.20886-.36405,4.00986-.54312,6.01592-.09759,7.4317,3.25157,10.33086,23.1832,11.41776,54.43821,14.62833,49.3918,5.07282,64.09,8.98027,67.95548,1.59211,3.6228-6.9242-5.14375-18.26208-6.131-19.51228-5.30707-6.72026-11.82091-9.16483-24.41464-13.33153-23.30232-7.71058-39.04713-11.93247-43.81473-13.21027C960.44472,3374.63847,955.47211,3373.21029,951.05206,3376.82088Z" transform="translate(-376.25806 -255.48387)" style="fill:url(#k)"/><path d="M980.42546,3331.46089l4.943,56.58026c-1.40334,2.73206-18.13252,10.92761-31.421,3.8996l-12.69989-55.61616Z" transform="translate(-376.25806 -255.48387)" style="fill:url(#l)"/><path d="M1342.76212,3369.54969c-8.06589,8.9542-9.90329,25.44263-2.8904,33.56551,6.89451,7.98642,17.26159,1.99657,46.66258,2.87878,31.49389.94676,39.71731,8.42353,61.11877,2.48736,8.64591-2.40242,23.91622-8.2296,23.62659-14.43654-.20363-4.36494-7.97787-6.61862-33.94381-15.36369-36.85738-12.411-36.69481-13.08912-44.52169-14.393C1373.15541,3361.01514,1353.41519,3357.72685,1342.76212,3369.54969Z" transform="translate(-376.25806 -255.48387)" style="fill:url(#m)"/><path d="M1362.94083,3317.913l15.796,52.82018c-1.19379,2.83371-17.25215,12.28452-31.03312,6.29758l-23.45986-51.267Z" transform="translate(-376.25806 -255.48387)" style="fill:url(#n)"/><path d="M1222.59079,2161.07033a4972.83875,4972.83875,0,0,0,155.533,1172.21952q-30.23121,8.17662-60.46017,16.3526c-51.131-47.92735-115.63127-123.373-146.75481-229.98964-19.31623-66.17273-12.879-100.17674-25.13168-181.568-19.50914-129.593-59.02649-197.48851-99.87-301.99171-36.70274-93.90662-80.08694-231.72417-103.34821-415.94216Q1082.57573,2190.61141,1222.59079,2161.07033Z" transform="translate(-376.25806 -255.48387)" style="fill:url(#o)"/><path d="M1040.66967,2144.13174q-18.50261,338.656-30.16788,689.78893-8.65611,263.44122-12.82266,520.14622-30.87912,3.83244-61.761,7.66475A725.25676,725.25676,0,0,1,871.506,3194.62428c-21.98286-88.60657-16.8925-141.22623-26.533-233.06008-10.81689-102.99893-26.52782-125.4386-54.36076-255.37062-56.49006-263.69161-84.736-395.5397-21.72068-477.55449C789.34616,2202.01373,853.47384,2135.22325,1040.66967,2144.13174Z" transform="translate(-376.25806 -255.48387)" style="fill:url(#p)"/><path d="M740.63651,1576.709a954.38294,954.38294,0,0,1,205.40264-34.48405c123.41975-7.01281,185.1305-10.51884,228.86,19.02631,100.99929,68.23981,22.80579,225.73674,64.14858,616.15816,5.90435,55.75478,7.22885,111.9068,11.50357,167.81158,7.08026,92.5625,8.69238,97.588,2.28508,106.96815-40.1767,58.81737-190.07038-29.89921-409.77054,5.16942-122.92662,19.62165-178.67825,64.82771-212.35572,32.22226-39.27481-38.024-5.5855-140.29706,23.41415-228.33866,33.28823-101.05856,53.852-102.359,72.74689-178.46815,19.74992-79.55035,7.80409-120.50983,4.72869-245.95539A2233.79042,2233.79042,0,0,1,740.63651,1576.709Z" transform="translate(-376.25806 -255.48387)" style="fill:url(#q)"/><g style="opacity:0.30000000000000004;mix-blend-mode:multiply"><path d="M1039.39478,2309.67294c-57.4223-4.517-94.67421,28.11784-144.24168,2.68509-67.96934-34.87546-89.80864-143.38636-85.47713-220.18578,6.58134-116.687,72.86224-147.44508,61.43687-222.87126-6.17824-40.79023-35.14868-94.94517-139.16279-150.27321-1.38709,46.566-1.123,86.25732-.35021,117.79081,3.0754,125.44556,15.02123,166.405-4.72869,245.95539-18.89487,76.10913-39.45866,77.40959-72.74689,178.46815-28.99965,88.0416-62.689,190.31467-23.41415,228.33866,33.67747,32.60545,89.4291-12.60061,212.35572-32.22226,189.30549-30.21734,326.70757,31.39133,386.82585,11.41079C1157.24653,2348.09341,1091.35688,2313.76026,1039.39478,2309.67294Z" transform="translate(-376.25806 -255.48387)" style="fill:url(#r)"/></g><path d="M818.963,1584.7193c-41.01008-33.87439-123.47251,4.47026-145.51531,14.71972-122.92461,57.159-233.29313,211.18665-205.94653,373.96262,4.10057,24.41307,23.11873,138.59734,119.30143,193.92487,86.786,49.92166,203.97261,37.08255,297.86432-33.62348Q903.912,2116.53292,923.163,2099.367q18.934-20.57436,37.87211-41.15164a303.56157,303.56157,0,0,0-100.91328-55.89c-62.43081-20.25156-107.882,16.08651-136.84838-11.54017-19.99057-19.06605-20.03552-52.74131-15.09955-73.15073,9.95026-41.1343,46.02047-52.70245,76.12753-81.89858C855.03521,1767.14249,868.06679,1625.27939,818.963,1584.7193Z" transform="translate(-376.25806 -255.48387)" style="fill:url(#s)"/><polygon points="1032.068 1860.627 482.369 1852.378 628.544 1923.295 1033.474 1896.653 1032.068 1860.627" style="fill:url(#t)"/><path d="M839.22807,2122.54668v.00215a24.58971,24.58971,0,0,0,16.10521,23.11275l175.64654,69.22126.80027-47.98977-173.15268-59.0313A15.21562,15.21562,0,0,0,839.22807,2122.54668Z" transform="translate(-376.25806 -255.48387)" style="fill:url(#u)"/><path d="M923.87168,2089.85021c-3.37359-.75726,16.43526-40.43527,31.98727-35.8569,15.54773,4.57989,91.60676,48.8907,98.52,67.13607l6.914,18.24461s-33.17754,2.60725-53.75278-4.3424C986.96361,2128.08055,951.3053,2095.99905,923.87168,2089.85021Z" transform="translate(-376.25806 -255.48387)" style="fill:url(#v)"/><path d="M1046.36284,1830.17858l-38.74742,354.64984c-1.33685,12.23743,15.70513,30.46824,27.9377,29.88669l568.41717-35.07851a19.96444,19.96444,0,0,0,18.69881-16.62046l71.34431-342.53015c2.12842-12.46465-20.16132-25.33882-32.73767-24.98589l-595.66518,16.83681A19.96919,19.96919,0,0,0,1046.36284,1830.17858Z" transform="translate(-376.25806 -255.48387)" style="fill:url(#w)"/><path d="M1059.35374,1840.51817l-38.74818,354.65352A19.9912,19.9912,0,0,0,1041.357,2217.371l575.60636-27.39337a19.96531,19.96531,0,0,0,18.698-16.61908l58.807-344.09694a19.998,19.998,0,0,0-20.20037-23.41834L1078.60147,1822.68A19.96572,19.96572,0,0,0,1059.35374,1840.51817Z" transform="translate(-376.25806 -255.48387)" style="fill:url(#x)"/><path d="M1397.34905,2106.87361c-50.25994-21.41378-32.52032-62.24984-91.87108-113.13433-78.29663-67.1281-158.10262-38.01539-186.04108-90.04628-8.70006-16.206-12.85591-41.42052,2.29893-82.232l-43.13435,1.21906a19.96572,19.96572,0,0,0-19.24773,17.83813l-38.74818,354.65352A19.994,19.994,0,0,0,1041.357,2217.371l575.60636-27.39337a19.96393,19.96393,0,0,0,18.698-16.61908l8.11512-47.48227a216.72788,216.72788,0,0,0-62.6853-23.62024C1496.64467,2085.03727,1455.21273,2131.52708,1397.34905,2106.87361Z" transform="translate(-376.25806 -255.48387)" style="opacity:0.30000000000000004;mix-blend-mode:multiply;fill:url(#y)"/><path d="M1653.22559,2140.373a4.51155,4.51155,0,0,0-4.03736-5.95275c-12.16532-.62371-40.38044-.877-55.95688,8.71177-20.23437,12.45959-46.39814,35.19548-24.36478,46.66691l20.57374,10.7148a4.37793,4.37793,0,0,0,3.01092.41686c7.31057-1.61617,38.08013-8.478,41.445-10.182C1636.96007,2189.19779,1648.69208,2154.1998,1653.22559,2140.373Z" transform="translate(-376.25806 -255.48387)" style="fill:url(#z)"/><path d="M955.2545,1406.67332a432.03843,432.03843,0,0,1-7.637,85.92958c-4.42306,22.88919-7.611,28.80206-11.67937,33.60045-6.12321,7.22257-15.40316,13.28065-67.83422,26.35154-28.53208,7.11016-32.20248,6.917-32.833,9.7631-3.07313,13.88473,74.728,61.208,155.10681,49.8019,49.19322-6.9794,93.95178-35.19257,91.20442-50.00888-2.76548-14.90985-51.90379-6.90964-66.54938-33.88426-10.18864-18.76514,1.2322-45.40569,14.7316-67.46786C1016.68885,1436.13163,968.32839,1431.29982,955.2545,1406.67332Z" transform="translate(-376.25806 -255.48387)" style="fill:url(#aa)"/><path d="M1046.55853,1421.21582c11.60936-15.50306,12.32576-42.56907-1.05086-59.67754-11.51176-14.72188-29.62765-16.82086-40.47288-18.08194-31.42753-3.64769-71.08138,9.54093-84.87469,38.61808-8.17293,17.23176,9.50688,53.03563,12.2745,59.47271,3.136,7.2779,8.81856,9.77462,14.07716,15.27811,7.28665,7.63133,18.69515,19.7671,37.31588,40.06209a130.6292,130.6292,0,0,1,7.14158-21.43784c1.34554-3.0936,6.74857-15.17342,14.92439-25.19058C1022.27183,1430.17951,1035.55312,1435.90794,1046.55853,1421.21582Z" transform="translate(-376.25806 -255.48387)" style="fill:url(#ab)"/><path d="M957.26594,1479.82025s20.66037,34.07314,61.7955,31.3831c36.82994-2.41039,42.22428-85.43815,18.70019-103.0569-7.84853-5.87731-23.56589-8.31821-36.346-4.71851-7.54808,2.12721-10.10553,5.27968-22.50571,8.512-11.44023,2.98473-14.66939,1.70984-18.12307,4.62926-4.31829,3.65565-7.48246,12.61276-.27011,36.88494-7.02749-7.15143-15.46109-9.89666-21.43835-7.05991a12.61861,12.61861,0,0,0-4.90474,4.80345C929.02487,1460.6804,937.64119,1472.79225,957.26594,1479.82025Z" transform="translate(-376.25806 -255.48387)" style="fill:url(#ac)"/><path d="M959.12135,1411.60386c1.77595,1.33147-3.6539,7.993-4.05763,17.42127-.78868,18.30133,17.64,40.26983,36.43855,42.13285,11.11447,1.10069,14.16883-5.63337,32.54262-7.585a83.74719,83.74719,0,0,1,26.80159,1.55515c5.77364,20.07282.34088,40.08462-13.00539,49.36921-14.36816,9.99692-32.72319,3.93226-40.39631,1.39629-5.13368-1.69681-21.58342-7.09776-30.181-22.26257-8.95783-15.803-.16672-25.32869-10.44352-36.01666-5.18354-5.39158-11.99205-7.72653-18.62085-18.16334a51.74164,51.74164,0,0,1-3.73614-7.03168C943.96651,1422.29626,956.54941,1409.67552,959.12135,1411.60386Z" transform="translate(-376.25806 -255.48387)" style="fill:url(#ad)"/><path d="M1037.47717,1472.56869s-7.95483,4.17759-21.69978,3.40071c-.668-.03925-1.40611.159-1.49136.50674-.3157,1.31058,8.50223,7.18788,16.62806,4.89281,5.7686-1.63212,10.25728-7.12168,9.48156-8.51936C1040.0656,1472.26146,1038.76124,1472.33843,1037.47717,1472.56869Z" transform="translate(-376.25806 -255.48387)" style="fill:url(#ae)"/><path d="M1857.4192,3387.74531c-29.34444-2.34026-66.88686-10.5377-102.92081-34.21946-38.98669-25.622-89.76469-78.27876-76.51073-111.45854,4.94819-12.38731,19.19471-22.99413,31.71792-21.98357,18.50085,1.49313,20.65483,27.32666,52.78188,55.42615,5.93722,5.19322,36.63424,32.04188,51.895,22.995,7.58673-4.49773,9.8305-16.96112,8.593-26.43686-3.61764-27.706-37.26867-31.96061-69.61836-61.95362-32.79812-30.40912-60.1383-83.45514-44.5101-119.31824,8.98062-20.60931,32.736-36.8857,48.35151-32.31075,6.67339,1.95505,10.904,7.43815,31.1661,51.44148,16.6302,36.11655,20.32894,46.64476,31.05076,50.06913,11.03613,3.52489,28.19447-.89815,34.71586-11.82828,16.98444-28.46648-56.42256-70.49628-63.0889-150.16169-2.98737-35.70057,6.62037-88.61328,38.78092-99.95483,21.74121-7.66716,52.715,4.04277,63.91209,24.093,10.0942,18.075-2.16809,31.67464,5.53224,72.27929,2.3367,12.32173,7.14536,37.67765,17.29345,39.008,11.914,1.56173,25.24362-30.76889,28.32431-38.64264,23.194-59.2779-3.40155-89.76006,18.46848-118.5363,17.05369-22.43878,54.1613-31.45145,83.55749-20.11763,25.72315,9.918,46.30167,35.70892,47.6763,62.4372,1.39867,27.1945-21.35424,54.26659-66.85942,108.41051-21.57977,25.6758-38.74931,43.02353-37.77262,68.54451.47588,12.441,5.38326,29.94036,14.24765,31.53868,19.56418,3.5278,29.19409-75.66733,75.56187-87.89792,23.7335-6.26024,53.22616,6.04352,66.186,27.54958,15.87866,26.35,5.24058,63.6974-14.7083,83.33589-26.02764,25.62327-52.72006,6.15048-101.69416,33.67336-21.72609,12.2097-55.86949,38.18185-50.87006,59.65994,2.17653,9.35143,11.92657,18.50893,22.62786,19.73,23.98586,2.73687,31.90769-36.77885,70.46975-54.14949,27.78244-12.515,66.19943-11.16141,75.325,4.58888,12.883,22.23611-32.87305,72.7188-57.19979,95.02542C2060.493,3335.54745,1991.13728,3386.68386,1857.4192,3387.74531Z" transform="translate(-376.25806 -255.48387)" style="fill:url(#af)"/><path d="M1870.59648,3375.07862c-3.87793-66.09145,39.66959-200.71325,71.35287-264.35532,31.00316-62.27415,60.6599-160.79244,60.9552-161.78034l1.93109.58472c-.29719.98942-30.00417,99.67443-61.08313,162.10289-31.58482,63.44421-75.0025,197.56787-71.14422,263.3283Z" transform="translate(-376.25806 -255.48387)" style="fill:#fff;opacity:0.5"/><path d="M1788.2523,3396.36316c-22.0962-30.83876-54.50923-86.48189-60.3214-160.92611-2.39514-30.675-7.073-90.58745,29.38713-142.26819,18.1723-25.7586,56.71006-63.85386,82.74891-52.86487,16.75461,7.07105,27.1557,33.96718,22.42713,54.41951-4.7676,20.62235-22.10589,22.53284-40.98754,57.52944-6.987,12.94987-14.96885,28.151-8.83669,36.73873,5.12108,7.17219,19.19067,8.47721,29.73934,4.17594,21.7902-8.885,14.98144-36.15679,38.53839-55.71768,16.75084-13.90968,44.67394-20.44791,56.724-9.05534,10.46253,9.892,8.64011,33.00066-.60521,48.40472-14.804,24.66613-41.34958,17.43-58.65551,44.39627-7.67753,11.96323-13.13572,30.03315-6.41612,37.17749,7.65688,8.14073,30.18992,1.101,44.63138-7.89856,19.06689-11.88133,19.77107-24.52384,32.32778-26.10874,14.00613-1.76758,31.51668,11.64106,34.25535,26.47509,3.83536,20.77653-21.52134,43.18455-41.60018,52.92005-25.705,12.46314-44.80515,5.1484-57.35934,22.17611-4.60755,6.24935-8.82863,16.44931-5.05006,22.63942,5.39082,8.8309,24.8739,5.91529,37.81053,3.9796,31.48394-4.71116,40.15214-16.18867,51.43333-10.61239,11.422,5.64615,17.313,24.71625,12.37373,38.09375-2.74509,7.43473-10.99156,18.95034-51.85544,26.161C1900.359,3411.2453,1852.30467,3414.79588,1788.2523,3396.36316Z" transform="translate(-376.25806 -255.48387)" style="fill:url(#ag)"/><path d="M3367.74194,1102.99988c0,272.79974-218.67,508.642-489.245,526.82446-271.49857,18.24448-492.27251-189.436-492.27251-463.92383S2606.9984,655.43561,2878.497,638.88212C3149.072,622.38482,3367.74194,830.20013,3367.74194,1102.99988Z" transform="translate(-376.25806 -255.48387)" style="fill:url(#ah)"/><path d="M2861.21132,1402.46713c-21.28069,1.39944-41.07935-8.55228-52.09471-26.33382l-185.0018-298.635c-17.33816-27.985-7.99638-66.31742,20.85543-85.6102,28.82739-19.28138,66.24049-12.23869,83.556,15.73561l128.30094,207.29984,169.29075-346.59786c15.19249-31.10536,51.69526-45.37455,81.50752-31.88275,29.8081,13.48623,41.66843,49.61392,26.4966,80.69928L2915.35082,1365.4085c-10.01839,20.52449-29.9334,34.64937-52.0034,36.87937Q2862.27943,1402.39517,2861.21132,1402.46713Z" transform="translate(-376.25806 -255.48387)" style="fill:#fff"/></g></svg>