<?xml version="1.0" encoding="utf-8"?>
<!-- Generator: Adobe Illustrator 25.2.1, SVG Export Plug-In . SVG Version: 6.00 Build 0)  -->
<svg version="1.1" id="katman_1" xmlns="http://www.w3.org/2000/svg" xmlns:xlink="http://www.w3.org/1999/xlink" x="0px" y="0px"
	 viewBox="0 0 512 512" style="enable-background:new 0 0 512 512;" xml:space="preserve">
<style type="text/css">
	.st0{fill:#010202;}
</style>
<path class="st0" d="M359,227.5V166l30-30v102.8h10V124l0,0c0-0.6-0.1-1.3-0.3-1.9c-0.8-1.9-2.6-3.1-4.6-3.1H154.2
	c-1.3,0-2.6,0.5-3.5,1.5l-40,40c-0.9,0.9-1.5,2.2-1.5,3.5v189.8c0,2.8,2.2,5,5,5H354c2.8,0,5-2.2,5-5V294c6.3,9.2,10,20.3,10,32.3
	c0,31.7-25.8,57.4-57.4,57.4c-2.8,0-5,2.2-5,5s2.2,5,5,5h10c48.2,0,87.4-39.2,87.4-87.4C409,271.5,388.5,241.5,359,227.5z M352,159
	h-90.8l30-30H382L352,159z M245.6,160.4c-0.9,0.9-1.5,2.2-1.5,3.5v35h-20V166l37-37H277L245.6,160.4z M156.3,129h90.8l-30,30h-90.8
	L156.3,129z M119.3,348.8V169h94.9v35c0,2.8,2.2,5,5,5h30c2.8,0,5-2.2,5-5v-35H349v54.4c-8.7-2.9-17.9-4.5-27.5-4.5H314v-25
	c0-1.9-1-3.6-2.7-4.4c-1.7-0.9-3.7-0.7-5.2,0.4l-69.9,50c-1.3,0.9-2.1,2.5-2.1,4.1s0.8,3.1,2.1,4.1l69.9,50c1.5,1.1,3.5,1.2,5.2,0.4
	c1.7-0.9,2.7-2.6,2.7-4.4v-24.9c13.3,0.6,25.5,5.7,35,13.9v66H119.3V348.8z"/>
<path class="st0" d="M129.2,328.8h59.9v10h-59.9L129.2,328.8L129.2,328.8z"/>
<path class="st0" d="M129.2,308.8h59.9v10h-59.9L129.2,308.8L129.2,308.8z"/>
</svg>
