<?xml version="1.0" encoding="utf-8"?>
<!-- Generator: Adobe Illustrator 25.2.1, SVG Export Plug-In . SVG Version: 6.00 Build 0)  -->
<svg version="1.1" id="Layer_1" xmlns="http://www.w3.org/2000/svg" xmlns:xlink="http://www.w3.org/1999/xlink" x="0px" y="0px"
	 viewBox="0 0 512 512" style="enable-background:new 0 0 512 512;" xml:space="preserve">
<style type="text/css">
	.st0{fill-rule:evenodd;clip-rule:evenodd;}
	.st1{fill-rule:evenodd;clip-rule:evenodd;fill:#56B320;}
</style>
<path class="st0" d="M374.2,260.5c-19.6,79.2-66.6,130.1-134.3,156C146.7,382.2,91.5,298,95.7,140.4c49.1,2.6,97.2-8.2,143.9-44.9
	l0,0c15.4,10,31.3,18.7,48.1,26.7c-4.7,5.8-5.5,5.5-8.4,12.1c-12.5-6.3-27.4-16.1-39.2-23.5c-36,28-89.6,43.3-134.5,40.7
	c-3.4,130.7,56.9,224.4,134.3,252.6C295.3,383,341.8,327.8,359,262.6"/>
<path class="st0" d="M200.7,235.7h3.9V227c0-9.8,3.7-19,10.2-26.1c13.1-14,34.7-14.8,48.6-1.6c0.5,0.5,1,1.1,1.6,1.6
	c6.8,7.1,10.4,16.4,10.4,26.1v8.7h3.9c3.1,0,5.7,2.6,5.7,5.8v61.8c0,3.2-2.6,5.8-5.7,5.8h-78.6c-3.1,0-5.7-2.6-5.7-5.8v-61.8
	C195,238.3,197.6,235.7,200.7,235.7z M215.6,235.7h48.8V227c0-6.9-2.6-13.5-7.3-18.5c-8.9-9.5-23.8-10-33.2-1.3
	c-0.5,0.3-0.8,0.8-1.3,1.3c-4.7,5-7.3,11.6-7.3,18.5v8.7H215.6z M235.2,275l-6.3,16.4h21.9l-5.7-16.6c5.5-2.9,7.8-9.8,5-15.3
	s-9.7-7.9-15.2-5c-5.5,2.9-7.8,9.8-5,15.3C231,272.1,232.9,274,235.2,275z"/>
<path class="st1" d="M354.6,113.7c34.2,0,61.9,28,61.9,62.3s-27.7,62.6-61.9,62.6s-61.6-28-61.6-62.3S320.6,113.7,354.6,113.7
	L354.6,113.7z M340.5,174.7c1.8,1.6,3.4,3.2,5,5c4.7-7.7,9.9-15,15.7-21.9c15.7-19,8.4-15.3,30-15.3l-3.1,3.2
	c-7.3,8.4-13.8,17.4-19.9,26.7c-7.6,10.8-14.4,22.2-20.4,34.1l-1.8,3.7l-1.8-3.7c-3.1-6.6-6.8-12.9-11.5-18.7
	c-4.2-5.3-9.1-9.8-14.6-13.5C321.2,164.9,334.5,169.7,340.5,174.7L340.5,174.7z"/>
</svg>
