<svg width="27" height="29" viewBox="0 0 27 29" fill="none" xmlns="http://www.w3.org/2000/svg">
<path d="M26.4653 4.95484C26.2953 4.71596 26.0703 4.52149 25.8093 4.38786C25.5483 4.25422 25.259 4.18534 24.9658 4.18703H6.75375C6.74062 4.18703 6.73078 4.19359 6.71766 4.19469L6.06906 1.67031C5.96705 1.27272 5.73561 0.9204 5.41122 0.668892C5.08684 0.417384 4.68796 0.281002 4.2775 0.28125H0.730468C0.585428 0.28125 0.446328 0.338867 0.34377 0.441426C0.241211 0.543985 0.183594 0.683085 0.183594 0.828125C0.183594 0.973166 0.241211 1.11227 0.34377 1.21482C0.446328 1.31738 0.585428 1.375 0.730468 1.375H4.2775C4.4452 1.37487 4.60816 1.43061 4.74067 1.5334C4.87317 1.63619 4.96766 1.78019 5.00922 1.94266L9.8414 20.7639C9.94316 21.1615 10.1744 21.514 10.4985 21.7657C10.8227 22.0174 11.2214 22.154 11.6319 22.1541H23.405C23.55 22.1541 23.6891 22.0964 23.7917 21.9939C23.8943 21.8913 23.9519 21.7522 23.9519 21.6072C23.9519 21.4621 23.8943 21.323 23.7917 21.2205C23.6891 21.1179 23.55 21.0603 23.405 21.0603H11.6319C11.4644 21.0602 11.3016 21.0044 11.1694 20.9016C11.0371 20.7988 10.9428 20.6549 10.9012 20.4927L10.0044 17.0003H21.9273C22.3155 17.0004 22.6938 16.8784 23.0087 16.6514C23.3236 16.4245 23.5591 16.1042 23.6817 15.7359L26.7202 6.62172C26.8145 6.3438 26.8405 6.04728 26.7962 5.75718C26.7518 5.46707 26.6383 5.19188 26.4653 4.95484ZM21.9284 15.9066H9.72328L6.99547 5.28078H24.9658C25.0856 5.27989 25.2039 5.30797 25.3105 5.36262C25.4172 5.41728 25.509 5.49689 25.5783 5.59469C25.6487 5.69153 25.6949 5.80384 25.713 5.92221C25.731 6.04058 25.7205 6.16155 25.6822 6.275L25.0762 8.09391H15.0531C14.9081 8.09391 14.769 8.15152 14.6664 8.25408C14.5639 8.35664 14.5062 8.49574 14.5062 8.64078C14.5062 8.78582 14.5639 8.92492 14.6664 9.02748C14.769 9.13004 14.9081 9.18766 15.0531 9.18766H24.712L23.7747 11.9997H16.3558C16.2107 11.9997 16.0716 12.0573 15.9691 12.1599C15.8665 12.2624 15.8089 12.4015 15.8089 12.5466C15.8089 12.6916 15.8665 12.8307 15.9691 12.9333C16.0716 13.0358 16.2107 13.0934 16.3558 13.0934H23.4094L22.6437 15.3892C22.5944 15.5399 22.4986 15.6711 22.3701 15.764C22.2416 15.8569 22.087 15.9068 21.9284 15.9066ZM11.7981 23.7192C11.1354 23.7198 10.4999 23.9833 10.0312 24.4518C9.56242 24.9203 9.29868 25.5557 9.29781 26.2184C9.29781 27.5977 10.4189 28.7188 11.7981 28.7188C13.1773 28.7188 14.2984 27.5977 14.2984 26.2184C14.2976 25.5557 14.0338 24.9203 13.5651 24.4518C13.0963 23.9833 12.4609 23.7198 11.7981 23.7192ZM11.7981 27.625C11.5196 27.6252 11.2473 27.5428 11.0157 27.3882C10.784 27.2336 10.6034 27.0138 10.4967 26.7565C10.3901 26.4993 10.3621 26.2162 10.4164 25.943C10.4706 25.6698 10.6047 25.4189 10.8017 25.222C10.9986 25.0251 11.2495 24.891 11.5227 24.8367C11.7958 24.7824 12.079 24.8104 12.3362 24.917C12.5935 25.0237 12.8133 25.2043 12.9679 25.436C13.1225 25.6676 13.2049 25.9399 13.2047 26.2184C13.2047 26.9939 12.5736 27.625 11.7981 27.625ZM22.215 23.7192C21.5522 23.7198 20.9168 23.9833 20.448 24.4518C19.9793 24.9203 19.7156 25.5557 19.7147 26.2184C19.7147 27.5977 20.8358 28.7188 22.215 28.7188C23.5942 28.7188 24.7153 27.5977 24.7153 26.2184C24.7144 25.5557 24.4507 24.9203 23.982 24.4518C23.5132 23.9833 22.8778 23.7198 22.215 23.7192ZM22.215 27.625C21.9365 27.6252 21.6642 27.5428 21.4325 27.3882C21.2009 27.2336 21.0203 27.0138 20.9136 26.7565C20.8069 26.4993 20.779 26.2162 20.8332 25.943C20.8875 25.6698 21.0216 25.4189 21.2185 25.222C21.4155 25.0251 21.6664 24.891 21.9396 24.8367C22.2127 24.7824 22.4958 24.8104 22.7531 24.917C23.0104 25.0237 23.2302 25.2043 23.3848 25.436C23.5394 25.6676 23.6218 25.9399 23.6216 26.2184C23.6216 26.9939 22.9905 27.625 22.215 27.625Z" fill="#6C4624"/>
</svg>
