<svg width="35" height="31" viewBox="0 0 35 31" fill="none" xmlns="http://www.w3.org/2000/svg">
<path d="M33.6828 14.9844H33.4946V9.85327C33.4946 8.25183 32.3065 6.92612 30.7646 6.69847V5.54406C30.7646 3.78334 29.3296 2.35094 27.5657 2.35094H26.1484L25.4021 0.36557C25.3511 0.229983 25.2498 0.119183 25.1192 0.05616C24.9886 -0.0068625 24.8387 -0.017269 24.7006 0.0270995L17.4744 2.35094H2.72285C1.22161 2.35094 0 3.57034 0 5.06885V27.8069C0 29.5676 1.435 31 3.19892 31H30.2957C32.0596 31 33.4946 29.5676 33.4946 27.8069V22.6757H33.6828C34.4091 22.6757 35 22.0859 35 21.3609V16.2992C35 15.5746 34.4091 14.9844 33.6828 14.9844ZM26.5722 3.4783H27.5657C28.7068 3.4783 29.6356 4.40506 29.6356 5.54444V6.66053H27.7685L27.656 6.36113L26.5722 3.4783ZM24.9426 2.35132L25.8597 4.79086L26.5627 6.66053H7.75607L24.5342 1.26528L24.9426 2.35132ZM2.72285 3.4783H13.9695L6.87919 5.75856L4.0743 6.66053H2.72285C1.84409 6.66053 1.12903 5.94677 1.12903 5.0696C1.12903 4.19243 1.84409 3.4783 2.72285 3.4783ZM32.3656 27.8069C32.3656 28.9463 31.4368 29.873 30.2957 29.873H3.19892C2.65014 29.8724 2.124 29.6545 1.73595 29.2672C1.3479 28.8799 1.12963 28.3547 1.12903 27.8069V7.27173C1.13694 7.27774 1.14634 7.2815 1.15462 7.28751C1.25323 7.357 1.35597 7.42049 1.4636 7.47684C1.48355 7.48736 1.50462 7.49637 1.52495 7.50652C1.62468 7.55573 1.72742 7.59893 1.83355 7.63574C1.85161 7.64213 1.86892 7.64927 1.88699 7.65528C2.00441 7.69322 2.12522 7.72177 2.24903 7.74356C2.27651 7.74844 2.30435 7.7522 2.3322 7.75633C2.46016 7.77474 2.59 7.78751 2.72285 7.78751H30.2957C31.4368 7.78751 32.3656 8.71427 32.3656 9.85365V14.9848H28.6255C26.8616 14.9848 25.4266 16.4172 25.4266 18.1779V19.483C25.4266 21.2437 26.8616 22.6761 28.6255 22.6761H32.3656V27.8069ZM33.871 21.3609C33.871 21.4107 33.8511 21.4585 33.8159 21.4937C33.7806 21.5289 33.7327 21.5487 33.6828 21.5487H28.6255C28.0767 21.5481 27.5506 21.3303 27.1625 20.9429C26.7745 20.5556 26.5562 20.0304 26.5556 19.4826V18.1776C26.5556 17.0382 27.4844 16.1114 28.6255 16.1114H33.6828C33.7327 16.1114 33.7806 16.1312 33.8159 16.1664C33.8511 16.2017 33.871 16.2494 33.871 16.2992V21.3609Z" fill="#6C4624"/>
</svg>
