<svg width="68" height="68" viewBox="0 0 68 68" fill="none" xmlns="http://www.w3.org/2000/svg">
<g clip-path="url(#clip0_24_34)">
<path d="M55.9019 0C58.2686 1.95478 60.6424 3.90068 62.9984 5.86966C63.6483 6.41295 63.6607 7.15332 63.0162 7.69838C60.7898 9.58392 58.5456 11.4481 56.2961 13.307C55.7475 13.7598 55.0533 13.6817 54.6396 13.1828C54.2295 12.6874 54.2952 12.0074 54.8473 11.5387C56.2251 10.3704 57.6188 9.2235 59.0924 7.99488H26.0263C25.9873 8.20794 26.2128 8.24522 26.3228 8.33932C27.5372 9.36731 28.7641 10.3811 29.9838 11.4038C30.6585 11.9684 30.7881 12.6395 30.3407 13.1792C29.8844 13.7296 29.1973 13.7332 28.5315 13.1792C26.424 11.4268 24.3166 9.67446 22.2144 7.91499C21.2468 7.10715 21.261 6.46799 22.2393 5.65483C24.2438 3.9859 26.2465 2.31342 28.2528 0.644491C28.5209 0.424334 28.8031 0.216606 29.0801 0C29.3464 0 29.611 0 29.8773 0C30.9071 0.411906 31.074 1.46475 30.1916 2.25128C29.1032 3.22245 27.9527 4.12084 26.843 5.06715C26.7152 5.17546 26.5341 5.23937 26.4791 5.51812C37.1567 5.51812 47.813 5.51812 58.5989 5.51812C57.997 4.87718 57.3916 4.4493 56.8323 3.9717C56.2269 3.45504 55.6143 2.94903 55 2.44303C54.6698 2.17138 54.3928 1.86068 54.2845 1.43279C54.1194 0.788303 54.407 0.289399 55.1065 0C55.3729 0 55.6374 0 55.9037 0L55.9019 0Z" fill="#6C4724" stroke="#F5EBE2"/>
<path d="M-0.000111195 29.0802C1.95467 26.7135 3.90234 24.3415 5.87133 21.9873C6.40574 21.3499 7.16918 21.3428 7.70892 21.9802C9.59446 24.2066 11.4605 26.4508 13.3158 28.7003C13.7721 29.2524 13.6816 29.9431 13.1702 30.3514C12.6731 30.7491 11.9913 30.671 11.5279 30.1224C10.3632 28.7464 9.21629 27.358 7.98767 25.8879V59.0925C8.2895 58.7321 8.53273 58.4445 8.7742 58.1551C9.66548 57.0845 10.5514 56.0121 11.448 54.9451C11.97 54.3254 12.6642 54.21 13.1827 54.6432C13.7188 55.0889 13.7455 55.7724 13.2217 56.4045C11.4303 58.5652 9.63352 60.7224 7.82788 62.8707C7.18161 63.6395 6.45545 63.6963 5.866 62.9968C3.98757 60.765 2.13044 58.5137 0.266207 56.2696C0.168557 56.1524 0.0851107 56.0245 -0.00366211 55.902C-0.00366211 55.6357 -0.00366211 55.3712 -0.00366211 55.1049C0.415346 54.0591 1.44156 53.8887 2.24052 54.7817C3.22767 55.886 4.14381 57.0543 5.10078 58.1853C5.19665 58.2989 5.25879 58.4516 5.51446 58.5208C5.51446 47.8308 5.51446 37.1674 5.51446 26.3478C4.64093 27.287 3.96448 28.1783 3.23655 29.0234C2.86193 29.4584 2.53169 29.9377 2.11268 30.3319C1.35456 31.0474 0.381612 30.829 -0.000111195 29.8756C-0.000111195 29.6111 -0.000111195 29.3447 -0.000111195 29.0802Z" fill="#6C4724" stroke="#F5EBE2"/>
<path d="M18.5891 0C19.1359 0.392376 19.278 0.923238 19.2726 1.58548C19.246 5.14527 19.2549 8.70684 19.2655 12.2684C19.2655 12.888 19.0773 13.3568 18.4542 13.5467C17.6605 13.7882 17.0001 13.2414 16.9983 12.3376C16.993 9.55018 16.9965 6.76449 16.9965 3.97702C16.9965 3.18162 17.0391 2.38089 16.9841 1.58903C16.9361 0.916136 17.1403 0.404804 17.6605 0H18.5909H18.5891Z" fill="#6C4724" stroke="#F5EBE2"/>
<path d="M67.3219 5.43729e-06C67.8403 0.40481 68.0072 0.919692 68.0001 1.58904C67.9681 5.17191 67.9806 8.75478 67.9894 12.3377C67.9894 12.9147 67.7746 13.3355 67.2366 13.529C66.7608 13.7012 66.324 13.5876 65.9778 13.1952C65.7754 12.9662 65.7168 12.6981 65.7186 12.3998C65.7222 8.66246 65.7293 4.92512 65.7097 1.18601C65.7062 0.621415 66.0595 0.333791 66.3897 -0.00177002H67.3201L67.3219 5.43729e-06Z" fill="#6C4724" stroke="#F5EBE2"/>
<path d="M0 17.6605C0.404804 17.1403 0.919687 16.9751 1.58903 16.9822C5.17191 17.0142 8.75478 17.0018 12.3376 16.9929C12.9147 16.9929 13.3355 17.206 13.529 17.7439C13.7012 18.218 13.5876 18.6565 13.1934 19.0027C12.9644 19.2033 12.6981 19.2637 12.398 19.2637C8.66068 19.2602 4.92334 19.2531 1.18423 19.2726C0.623185 19.2726 0.335561 18.9175 0 18.589V17.6587V17.6605Z" fill="#6C4724" stroke="#F5EBE2"/>
<path d="M0 66.3914C0.390601 65.8428 0.923238 65.7026 1.58548 65.7079C5.14705 65.7345 8.70684 65.7256 12.2684 65.715C12.888 65.7132 13.3568 65.9014 13.5467 66.5264C13.7882 67.32 13.2396 67.9822 12.3377 67.984C9.63896 67.9893 6.94026 67.9858 4.24334 67.9858C3.35916 67.9858 2.47144 67.9432 1.59081 68C0.917911 68.0426 0.40658 67.8402 0.00177546 67.3218V66.3914H0Z" fill="#6C4724" stroke="#F5EBE2"/>
<path d="M63.2647 16.9964H21.7137C18.9298 16.9964 16.9963 18.9157 16.9963 21.6836V63.3004C16.9963 66.0647 18.9316 67.984 21.7173 67.984C28.6416 67.984 35.5658 67.984 42.4919 67.984C49.418 67.984 56.2979 67.984 63.2008 67.984C66.0753 67.984 67.9839 66.0878 67.9839 63.2311C67.9857 49.4021 67.9857 35.5748 67.9839 21.7458C67.9839 18.9175 66.0753 16.9964 63.2647 16.9964ZM63.8648 19.3205C63.8311 19.6294 63.6127 19.7324 63.4671 19.878C56.6334 26.7188 49.7926 33.5561 42.9588 40.3987C42.6783 40.6775 42.5114 40.903 42.0924 40.484C35.193 33.5508 28.2723 26.6372 21.3569 19.72C21.2663 19.6294 21.1793 19.5336 20.9805 19.3205H63.8648ZM19.3115 63.9963V21.151C19.5867 21.0906 19.6577 21.2948 19.7678 21.4031C26.669 28.2955 33.5649 35.1931 40.4679 42.0836C40.7324 42.3482 40.8691 42.5027 40.514 42.856C33.5578 49.7874 26.6175 56.7347 19.6737 63.6768C19.5992 63.7513 19.5157 63.8188 19.3115 63.9963ZM21.1278 65.6546C21.1189 65.3865 21.3054 65.3084 21.4208 65.193C28.2971 58.3095 35.1806 51.4297 42.0569 44.5427C42.341 44.2568 42.5061 44.1112 42.8772 44.4841C49.7766 51.4101 56.692 58.3184 63.6039 65.2321C63.7068 65.335 63.7938 65.454 63.966 65.6546H21.1278ZM65.6368 63.9715C65.4237 63.7762 65.3101 63.6785 65.2018 63.572C58.3165 56.6868 51.4331 49.7998 44.5426 42.9217C44.2532 42.6323 44.1218 42.4671 44.4911 42.1014C51.4509 35.1665 58.3947 28.2156 65.3438 21.2682C65.4024 21.2078 65.4716 21.1581 65.6368 21.0196V63.9715Z" fill="#6C4724" stroke="#F5EBE2"/>
</g>
<defs>
<clipPath id="clip0_24_34">
<rect width="68" height="68.0035" fill="white"/>
</clipPath>
</defs>
</svg>
