<svg width="62" height="56" viewBox="0 0 62 56" fill="none" xmlns="http://www.w3.org/2000/svg">
<path d="M61.9461 38.2238C61.939 38.125 61.9304 38.0278 61.921 37.9282C61.4339 32.8833 58.6717 28.3334 54.4943 25.6419V9.72166H56.0189C56.5584 9.72166 56.9962 9.27174 56.9962 8.71736V3.42267C56.9962 1.53538 55.5021 0 53.6656 0H3.33064C1.4941 0 0 1.53538 0 3.42267V8.71736C0 9.27174 0.437831 9.72166 0.977301 9.72166H2.50189V47.8667C2.50189 49.5162 3.80757 50.858 5.41269 50.858H34.394C37.4072 54.1312 41.6158 56 46.0113 56C48.5695 56 51.0136 55.3974 53.2762 54.2099C55.4341 53.0771 57.3449 51.4236 58.8023 49.4294C59.3879 48.63 59.9062 47.7663 60.3441 46.8616C61.4426 44.5839 62 42.1302 62 39.5704C62 39.1205 61.982 38.6681 61.9461 38.2238ZM1.9546 3.42267C1.9546 2.64253 2.57226 2.00861 3.33064 2.00861H53.6656C54.4247 2.00861 55.0416 2.64333 55.0416 3.42267V7.71306H53.517H3.47919H1.9546V3.42267ZM58.5935 45.9674C58.2096 46.7612 57.7546 47.5197 57.2402 48.2219C54.5616 51.888 50.4686 53.9906 46.0121 53.9906C42.024 53.9906 38.2109 52.2383 35.5511 49.1828C35.2845 48.8775 35.0265 48.5537 34.7833 48.2203C34.2697 47.518 33.8138 46.7604 33.4315 45.9698C33.326 45.7489 33.2322 45.5424 33.1446 45.3367C32.7881 44.4979 32.5105 43.6238 32.3182 42.7368C32.0922 41.7035 31.9773 40.6374 31.9773 39.568H30.0227C30.0227 40.7852 30.1533 42 30.4105 43.1746C30.6294 44.1854 30.9461 45.1824 31.3534 46.1401C31.4511 46.3707 31.5606 46.6118 31.6794 46.8608C32.0133 47.5502 32.394 48.2162 32.8162 48.8477H5.41269C4.88573 48.8477 4.45649 48.4067 4.45649 47.8651V9.72166H52.5397V24.5685C52.4959 24.5484 52.4514 24.5267 52.4076 24.5066C50.937 23.8454 49.3795 23.4188 47.7791 23.238C47.1911 23.1721 46.5962 23.1392 46.0113 23.1392C43.4782 23.1392 41.0545 23.7305 38.8082 24.8971C37.2031 25.7311 35.7309 26.8535 34.4792 28.1904V22.858H32.5246V30.571C32.5246 31.1254 32.9624 31.5753 33.5019 31.5753H41.0076V29.5667H35.899C38.5362 26.7402 42.1412 25.1478 46.0113 25.1478C46.5258 25.1478 47.0496 25.1775 47.5664 25.2345C48.9691 25.3928 50.3341 25.7672 51.625 26.3473C52.1003 26.5602 52.5726 26.8061 53.0276 27.076C56.9345 29.3972 59.5317 33.5277 59.9758 38.1234C59.9836 38.2053 59.9915 38.2873 59.9969 38.37C59.9969 38.3741 59.9977 38.3781 59.9977 38.3821C60.029 38.7734 60.0454 39.1727 60.0454 39.5688C60.0454 41.8176 59.5567 43.9708 58.5935 45.9674Z" fill="#6C4624"/>
</svg>
