<svg width="84" height="84" viewBox="0 0 84 84" fill="none" xmlns="http://www.w3.org/2000/svg">
<path d="M22.1646 41.4151C22.1663 24.9455 35.4647 11.656 51.9361 11.6667C68.4235 11.6773 81.681 25.0059 81.6668 41.5573C81.6526 57.9967 68.2938 71.1813 51.666 71.1689C35.4344 71.1565 22.1646 57.7729 22.1646 41.4151ZM25.0019 41.4009C24.9948 56.1756 37.0885 68.312 51.8348 68.3333C66.6877 68.3529 78.8206 56.2414 78.8312 41.3849C78.8419 26.6404 66.7019 14.5005 51.9503 14.504C37.1134 14.5076 25.009 26.5889 25.0019 41.4027V41.4009Z" fill="#6C4724" stroke="#F5EBE2"/>
<path d="M15.2586 57.0002C17.586 57.0002 19.9117 56.9966 22.2391 57.0002C23.2802 57.002 23.9056 57.5225 23.9252 58.3842C23.9447 59.2814 23.3051 59.8304 22.2142 59.8322C17.5611 59.8357 12.9063 59.8357 8.25321 59.8322C7.1961 59.8322 6.59914 59.3276 6.58315 58.4482C6.56538 57.5208 7.16412 57.0037 8.27808 57.002C10.6055 56.9984 12.9312 57.002 15.2586 57.002V57.0002Z" fill="#6C4724" stroke="#F5EBE2"/>
<path d="M10.7635 42.8346C8.52137 42.8346 6.281 42.8381 4.03885 42.8346C2.91778 42.8328 2.31904 42.3211 2.33326 41.3937C2.34569 40.5107 2.94265 40.0044 3.99799 40.0026C8.53914 39.999 13.0821 39.999 17.6232 40.0026C18.7443 40.0026 19.3448 40.516 19.3306 41.4417C19.3164 42.3513 18.7141 42.8328 17.5752 42.8346C15.3047 42.8364 13.0341 42.8346 10.7617 42.8346H10.7635Z" fill="#6C4724" stroke="#F5EBE2"/>
<path d="M13.5725 34.3354C11.7727 34.3354 9.97296 34.3407 8.1732 34.3336C7.1907 34.3283 6.60263 33.8041 6.58486 32.9531C6.56709 32.0541 7.1605 31.5069 8.19274 31.5051C11.7336 31.4998 15.2745 31.4998 18.8154 31.5051C19.8103 31.5051 20.3824 32.0204 20.4002 32.8838C20.418 33.7864 19.8299 34.3283 18.7959 34.3336C17.0547 34.3407 15.3136 34.3354 13.5725 34.3354Z" fill="#6C4724" stroke="#F5EBE2"/>
<path d="M17.3852 25.8357C15.7364 25.8357 14.0877 25.841 12.4407 25.8339C11.412 25.8286 10.8168 25.2832 10.8328 24.3877C10.8488 23.5367 11.4351 23.0055 12.4105 23.0037C15.708 22.9966 19.0037 22.9966 22.3012 23.0037C23.3139 23.0055 23.9446 23.5793 23.9251 24.4481C23.9055 25.2832 23.2926 25.8286 22.3296 25.8339C20.6809 25.8428 19.0321 25.8357 17.3852 25.8357Z" fill="#6C4724" stroke="#F5EBE2"/>
<path d="M25.0853 14.5006C26.4996 14.5006 27.912 14.4918 29.3262 14.5042C30.3052 14.5131 30.8702 15.0479 30.8666 15.9238C30.863 16.7961 30.2945 17.3291 29.312 17.3309C26.5138 17.3398 23.7173 17.338 20.9191 17.3309C19.9401 17.3291 19.352 16.8032 19.3325 15.9522C19.313 15.0479 19.8993 14.5078 20.9333 14.5006C22.3173 14.4918 23.7013 14.4989 25.0853 14.4989V14.5006Z" fill="#6C4724" stroke="#F5EBE2"/>
<path d="M24.9965 68.3352C23.6427 68.3352 22.2871 68.3423 20.9333 68.3335C19.9082 68.3264 19.313 67.7756 19.3343 66.8801C19.3538 66.0291 19.9419 65.5068 20.9226 65.505C23.7209 65.4979 26.5173 65.4979 29.3156 65.505C30.2999 65.5086 30.8666 66.038 30.8702 66.9121C30.8737 67.7898 30.307 68.3246 29.328 68.3317C27.8854 68.3441 26.4427 68.3352 25.0001 68.3352H24.9965Z" fill="#6C4724" stroke="#F5EBE2"/>
<path d="M15.6086 51.3343C14.5177 51.3343 13.4251 51.3467 12.3342 51.3307C11.4281 51.3183 10.8507 50.7711 10.8329 49.952C10.8151 49.0868 11.3997 48.5094 12.352 48.504C14.5355 48.4916 16.719 48.4916 18.9025 48.504C19.8211 48.5094 20.3825 49.0477 20.3985 49.881C20.4162 50.7533 19.8406 51.3183 18.883 51.3307C17.7921 51.3449 16.6995 51.3343 15.6086 51.3343Z" fill="#6C4724" stroke="#F5EBE2"/>
<path d="M50.4987 30.7052C50.4987 28.6994 50.4951 26.6917 50.4987 24.6859C50.5004 23.6181 50.9926 23.0229 51.872 23.0016C52.7994 22.9785 53.3289 23.5826 53.3289 24.693C53.3324 28.6763 53.3413 32.6596 53.3164 36.6428C53.3129 37.1812 53.4337 37.485 53.9525 37.7177C54.7218 38.0659 55.3063 38.6753 55.6563 39.4482C55.8588 39.8941 56.1182 40.0203 56.5926 40.0132C58.7175 39.9847 60.8406 39.999 62.9655 40.0025C64.0795 40.0043 64.6835 40.5266 64.6622 41.454C64.6427 42.3335 64.0457 42.8327 62.9815 42.8345C60.8566 42.8398 58.7317 42.8487 56.6086 42.8256C56.1502 42.8203 55.8926 42.9251 55.6616 43.3711C54.7733 45.0802 52.97 45.9561 51.1667 45.6345C49.4362 45.3254 48.0024 43.8916 47.6951 42.1665C47.3735 40.3561 48.2494 38.5581 49.9568 37.6715C50.4009 37.4406 50.5111 37.1883 50.5058 36.7263C50.4827 34.7205 50.4951 32.7129 50.4951 30.707L50.4987 30.7052ZM53.3235 41.4398C53.3431 40.7221 52.6662 40.022 51.9395 40.0061C51.2218 39.9901 50.5217 40.667 50.5058 41.3919C50.4898 42.115 51.1631 42.8132 51.8898 42.8256C52.6093 42.8381 53.304 42.1665 53.3235 41.4398Z" fill="#6C4724" stroke="#F5EBE2"/>
</svg>
