<svg width="81" height="52" viewBox="0 0 81 52" fill="none" xmlns="http://www.w3.org/2000/svg">
<g clip-path="url(#clip0_24_60)">
<path d="M81 35.7158C80.565 36.2173 80.2377 36.8213 79.5662 37.0888C79.3043 37.1933 79.4205 37.4545 79.4183 37.6447C79.4078 38.8171 79.4162 39.9895 79.412 41.162C79.4078 43.0073 78.5357 43.8621 76.6542 43.8683C75.4695 43.8725 74.2806 43.8077 73.1023 43.8913C72.3653 43.9436 72.2386 43.6259 72.171 43.0345C71.9029 40.6729 70.8175 38.7294 68.9254 37.2748C66.2309 35.2038 63.2217 34.7774 60.1006 36.0711C56.95 37.3793 55.1424 39.8203 54.7665 43.2142C54.7053 43.7638 54.5131 43.8809 53.9937 43.8788C46.2269 43.8642 38.4622 43.8621 30.6954 43.8809C30.1147 43.8809 29.9796 43.7429 29.9416 43.162C29.6459 38.8506 26.035 35.4859 21.6638 35.3898C17.5185 35.2999 14.3468 37.2058 12.9911 40.6081C12.6511 41.4608 12.4273 42.3448 12.4294 43.2602C12.4294 43.7304 12.3006 43.8871 11.8064 43.8788C10.1213 43.8474 8.43617 43.8788 6.75104 43.8621C5.34044 43.8474 4.52111 43.024 4.51688 41.6092C4.5021 36.6332 4.5021 31.6573 4.49365 26.6792C4.48732 21.7806 4.47465 16.8819 4.47465 11.9854C4.47465 11.5026 4.56123 11.116 3.79257 11.1223C3.14429 11.1264 3.55184 10.4786 3.46738 10.1337C3.3998 9.85371 3.41036 9.51724 3.87071 9.59038C4.42397 9.68025 4.44931 9.37095 4.44086 8.95089C4.41975 7.91013 4.42397 6.86729 4.43664 5.82445C4.45776 4.1233 5.25386 3.34378 6.95377 3.34169C21.4864 3.34169 36.0169 3.34169 50.5495 3.34169C52.2579 3.34169 53.0307 4.11912 53.0328 5.82654C53.0328 7.28526 53.0582 8.74608 53.0202 10.2027C53.0054 10.7356 53.1363 10.9028 53.6959 10.9112C57.3533 10.976 61.0108 11.0993 64.6682 11.1599C66.0091 11.1829 67.0228 11.6782 67.8167 12.7565C71.4045 17.6364 74.9986 22.5141 78.6434 27.3542C79.2705 28.1881 79.5282 29.0199 79.4141 30.0125C79.3508 30.558 79.431 30.9927 80.0392 31.2539C80.527 31.4629 80.6938 32.0209 81.0021 32.4242V35.7074L81 35.7158ZM28.7464 4.90909C21.5328 4.90909 14.3193 4.90909 7.10581 4.90909C6.14077 4.90909 6.07531 4.97596 6.07108 5.93312C6.06686 6.87147 6.11332 7.81191 6.0563 8.74608C6.01407 9.40857 6.17244 9.61337 6.89675 9.60919C11.9521 9.57158 17.0054 9.59874 22.0608 9.57785C22.6436 9.57576 22.8928 9.67189 22.8611 10.3239C22.8336 10.8924 22.8231 11.187 22.084 11.1808C17.0286 11.1432 11.9732 11.1766 6.91998 11.1432C6.22946 11.139 6.06686 11.2957 6.06897 11.9833C6.10065 21.7011 6.09642 31.4211 6.10065 41.139C6.10065 41.2957 6.10276 41.4524 6.10065 41.6071C6.0922 42.0502 6.28859 42.2926 6.75527 42.2926C7.99272 42.2926 9.23016 42.2821 10.4676 42.2988C10.8013 42.303 10.9427 42.1755 10.9892 41.8683C11.6945 37.2351 16.1037 33.8537 20.8888 33.7743C25.9019 33.6928 30.2161 36.7962 31.2888 41.4922C31.4578 42.2278 31.7365 42.303 32.3594 42.3009C38.4664 42.2842 44.5755 42.2842 50.6825 42.3009C51.2464 42.3009 51.4808 42.2341 51.4808 41.5695C51.4512 29.7137 51.4533 17.86 51.447 6.00418C51.447 4.98014 51.3667 4.90491 50.3109 4.90491C43.1227 4.90491 35.9366 4.90491 28.7485 4.90491L28.7464 4.90909ZM67.7576 15.3981C67.4029 14.9112 67.1051 14.5768 66.8918 14.1944C66.2752 13.0909 65.3524 12.721 64.0896 12.721C60.6687 12.721 57.2457 12.627 53.8247 12.5287C53.1954 12.5099 53.0455 12.675 53.0476 13.2874C53.0687 22.7461 53.0624 32.2069 53.0624 41.6656C53.0624 41.8495 53.0835 42.0313 53.0962 42.2362C53.3517 42.1191 53.3221 41.9457 53.3538 41.8015C54.5828 36.2215 60.4153 32.6562 65.9944 34.1233C69.9918 35.1745 72.5152 37.7367 73.5648 41.6928C73.6872 42.1567 73.8646 42.3218 74.3503 42.2968C75.1633 42.2529 75.9826 42.2675 76.7977 42.2905C77.4988 42.3093 77.8219 41.9812 77.824 41.3103C77.8282 40.1108 77.8135 38.9133 77.8325 37.7137C77.8388 37.3981 77.7332 37.2748 77.4334 37.1724C76.0481 36.6959 75.6004 36.0711 75.5814 34.6374C75.573 34.0648 75.5709 33.4901 75.611 32.9195C75.6807 31.9478 76.2867 31.0825 77.2137 30.9321C77.9592 30.8109 77.8367 30.3845 77.8198 29.9415C77.7945 29.3354 77.3046 29.6238 77.0448 29.6238C72.0676 29.605 67.0924 29.6113 62.1152 29.6092C60.4554 29.6092 59.6086 28.8234 59.596 27.1996C59.5748 24.0731 59.5727 20.9446 59.596 17.8182C59.6086 16.2027 60.4702 15.4023 62.1173 15.3981C63.9545 15.3939 65.7895 15.3981 67.7597 15.3981H67.7576ZM77.1377 28.0502C74.4179 24.3824 71.7909 20.8422 69.1682 17.302C69.0415 17.1327 68.9338 16.9801 68.6762 16.9822C66.4125 16.9906 64.1466 16.9822 61.8829 16.9927C61.4542 16.9927 61.2135 17.2038 61.2156 17.674C61.2241 20.8798 61.2241 24.0836 61.2156 27.2894C61.2156 27.814 61.4585 28.0502 61.9801 28.0502C66.9784 28.0502 71.9768 28.0502 77.1377 28.0502ZM77.1884 34.0104C77.1884 34.2968 77.1947 34.5831 77.1884 34.8694C77.1757 35.3939 77.4883 35.6113 77.9592 35.6761C79.0277 35.8224 79.4183 35.488 79.4226 34.4284C79.4226 34.1421 79.4226 33.8558 79.4226 33.5695C79.4183 32.5747 79.26 32.4096 78.3055 32.4054C77.2919 32.4012 77.1926 32.5037 77.1884 33.5402C77.1884 33.697 77.1884 33.8516 77.1884 34.0084V34.0104Z" fill="#6C4724"/>
<path d="M55.3494 44.0481C55.3705 39.6531 59.0047 36.1421 63.5068 36.1651C67.9984 36.1881 71.6811 39.7889 71.6305 44.1108C71.5798 48.4932 67.9266 52.0146 63.4456 52C58.9498 51.9854 55.3261 48.4284 55.3473 44.0501L55.3494 44.0481ZM69.9918 44.0731C69.9918 40.5643 67.0946 37.7429 63.4899 37.7408C59.8684 37.7388 56.969 40.5371 56.9627 44.0439C56.9564 47.6008 59.8536 50.4284 63.5005 50.4221C67.0924 50.4159 69.9939 47.5778 69.9918 44.071V44.0731Z" fill="#6C4724"/>
<path d="M21.1505 51.9979C16.6548 52.0084 13.0332 48.4828 13.0205 44.0857C13.0079 39.6949 16.6231 36.1651 21.1357 36.163C25.6231 36.163 29.2953 39.7158 29.2995 44.069C29.3037 48.4138 25.6315 51.9875 21.1526 51.9979H21.1505ZM27.6651 44.0815C27.6714 40.5873 24.7573 37.745 21.1632 37.7388C17.5417 37.7346 14.6296 40.5371 14.6212 44.0334C14.6128 47.5549 17.4952 50.4075 21.0745 50.4222C24.7193 50.4368 27.6566 47.6113 27.663 44.0815H27.6651Z" fill="#6C4724"/>
<path d="M24.2759 1.61547C22.0946 1.61547 19.9111 1.57994 17.7318 1.63637C17.0075 1.65518 17.0054 1.32707 17.0117 0.806694C17.0181 0.323936 16.9927 0.0125459 17.6854 0.0188155C22.1009 0.056433 26.5164 0.0585229 30.932 0.0188155C31.6922 0.0125459 31.5338 0.422159 31.5486 0.842222C31.5655 1.30199 31.6119 1.65727 30.8982 1.63846C28.6915 1.58412 26.4826 1.61756 24.2738 1.61756L24.2759 1.61547Z" fill="#6C4724"/>
<path d="M44.2567 48.6959C42.0753 48.6959 39.8918 48.6583 37.7126 48.7168C36.9967 48.7356 37.0495 48.3845 37.0622 47.9268C37.0749 47.5005 36.9313 47.1034 37.6851 47.1097C42.1007 47.1515 46.5162 47.1494 50.9317 47.1097C51.6286 47.1034 51.6117 47.4211 51.5969 47.8997C51.5821 48.3386 51.694 48.7314 50.9571 48.7147C48.725 48.6604 46.4887 48.6959 44.2546 48.6959H44.2567Z" fill="#6C4724"/>
<path d="M33.9391 48.6959C33.7427 48.6959 33.6118 48.6959 33.4809 48.6959C32.5348 48.6959 32.2624 48.3114 32.5053 47.3772C32.5728 47.1181 32.7291 47.1327 32.9065 47.1327C33.3795 47.1285 33.8567 47.1745 34.3234 47.1202C34.9886 47.0449 35.1744 47.233 35.204 47.9415C35.2589 49.2121 34.3361 48.4953 33.9391 48.698V48.6959Z" fill="#6C4724"/>
<path d="M13.9118 1.61547C13.6605 1.61547 13.4705 1.5883 13.2931 1.61964C12.6469 1.7325 12.5519 1.42947 12.5223 0.852665C12.4843 0.148381 12.7103 -0.0752349 13.3881 0.0271684C13.6711 0.0710556 13.971 0.0731454 14.2518 0.0271684C15.0247 -0.104493 15.1915 0.204807 15.1831 0.944619C15.1704 2.16301 14.2708 1.37304 13.9118 1.61547Z" fill="#6C4724"/>
<path d="M1.06628 11.164C0.158258 11.162 -0.19017 10.652 0.101243 9.78892C0.17304 9.57575 0.306076 9.59874 0.456006 9.59665C0.690403 9.59665 0.9248 9.59665 1.1592 9.59665C2.16436 9.60083 2.16647 9.60083 2.13268 10.5789C2.11157 11.2288 2.2974 11.162 1.06417 11.162L1.06628 11.164Z" fill="#6C4724"/>
<path d="M32.0637 31.9415C27.9839 31.9415 23.9063 31.9206 19.8286 31.9603C19.117 31.9666 19.022 31.7262 19.041 31.1223C19.0579 30.5831 19.0916 30.3197 19.7801 30.3218C27.9903 30.3511 36.2005 30.3532 44.4107 30.3218C45.1773 30.3197 45.1329 30.6562 45.1625 31.1933C45.1963 31.8182 44.9936 31.9603 44.3791 31.9561C40.274 31.9289 36.1688 31.9415 32.0637 31.9415Z" fill="#6C4724"/>
<path d="M25.203 21.4023C25.9231 21.9436 26.0836 22.7628 26.3011 23.5549C26.4046 23.9289 26.5714 24.3093 26.5629 24.6834C26.5545 25.0115 27.2302 25.3898 26.6136 25.6238C25.8386 25.9164 25.2832 25.6071 25.0974 24.93C24.9179 24.28 24.7933 23.6134 24.5885 22.9739C24.3182 22.1275 23.4144 21.7053 22.5655 21.9415C22.2403 22.0313 22.3501 22.255 22.348 22.4326C22.3353 23.2142 22.3332 23.9958 22.3459 24.7753C22.3543 25.2936 22.1854 25.6385 21.5962 25.6468C20.9712 25.6531 20.8022 25.3103 20.8065 24.744C20.8213 22.2968 20.8213 19.8474 20.8065 17.4002C20.8044 16.9906 20.8973 16.8318 21.3513 16.767C22.1389 16.652 22.9224 16.6207 23.71 16.6583C25.1185 16.7273 26.1089 17.3793 26.4299 18.4054C26.7783 19.5193 26.413 20.4347 25.2051 21.4002L25.203 21.4023ZM22.3396 19.2978C22.3396 19.6614 22.3459 20.0251 22.3374 20.3866C22.3311 20.6061 22.4008 20.7273 22.6458 20.7147C23.1399 20.6897 23.6382 20.7691 24.1176 20.5664C24.8145 20.2717 25.1713 19.6343 24.9982 18.9467C24.7912 18.1254 23.9613 17.7074 22.7513 17.8913C21.9489 18.0125 22.5022 18.6792 22.3417 19.0658C22.3142 19.1327 22.3374 19.2205 22.3396 19.2978Z" fill="#6C4724"/>
<path d="M27.7433 21.1306C27.7433 19.8286 27.7581 18.5246 27.7349 17.2226C27.7285 16.8192 27.8405 16.6792 28.2628 16.6876C29.5002 16.7126 30.7377 16.6959 31.9751 16.698C32.4101 16.698 32.7839 16.8109 32.7881 17.3312C32.7924 17.8746 32.4355 18.0293 31.9477 18.023C31.1833 18.0146 30.404 17.9248 29.6607 18.0439C28.6429 18.209 29.3947 19.047 29.2299 19.5549C29.1455 19.814 28.9385 20.3908 29.6649 20.3699C30.4019 20.349 31.1389 20.3762 31.8759 20.3615C32.3341 20.3511 32.5917 20.5622 32.5833 20.999C32.577 21.4295 32.3151 21.6426 31.8632 21.6364C31.1262 21.6238 30.3893 21.6447 29.6523 21.628C29.3207 21.6196 29.1497 21.7158 29.2004 22.0648C29.2046 22.0899 29.2004 22.117 29.2004 22.1421C29.137 23.5939 29.8332 24.3197 31.2888 24.3197C31.6309 24.3197 31.9751 24.3051 32.3151 24.326C32.7016 24.3511 32.9528 24.5308 32.9634 24.9572C32.974 25.3751 32.7628 25.6217 32.3637 25.6259C30.9425 25.6468 29.5214 25.6322 28.0981 25.6447C27.6694 25.6489 27.7412 25.3626 27.7412 25.1118C27.7391 23.7827 27.7412 22.4535 27.7412 21.1243L27.7433 21.1306Z" fill="#6C4724"/>
<path d="M34.0637 21.1724C34.0637 19.8683 34.0806 18.5663 34.0531 17.2623C34.0447 16.8255 34.1651 16.675 34.6233 16.6876C35.808 16.7168 36.9926 16.7001 38.1773 16.6959C38.6672 16.6959 39.1191 16.7732 39.0937 17.3856C39.0726 17.9289 38.6693 18.0313 38.1984 18.0251C37.4614 18.0125 36.7244 18.0188 35.9853 18.0251C35.8143 18.0251 35.5524 17.9645 35.5398 18.2132C35.5102 18.8631 35.5081 19.5172 35.5461 20.1651C35.563 20.466 35.8713 20.3595 36.0592 20.3636C36.7709 20.3762 37.4804 20.3804 38.192 20.3636C38.6503 20.3553 38.91 20.5726 38.8995 21.0031C38.891 21.4274 38.6228 21.6447 38.1709 21.6364C37.4593 21.6238 36.7477 21.6552 36.0381 21.6259C35.6158 21.6071 35.5208 21.7555 35.5102 22.1567C35.4511 24.3218 35.4384 24.3218 37.624 24.3218C37.9661 24.3218 38.3103 24.303 38.6503 24.3323C39.0388 24.3657 39.2732 24.5768 39.2775 24.9927C39.2817 25.4169 39.0409 25.6322 38.6482 25.6364C37.2523 25.6531 35.8565 25.6322 34.4607 25.6531C33.9792 25.6614 34.0616 25.3563 34.0616 25.0805C34.0616 23.7764 34.0616 22.4744 34.0616 21.1703L34.0637 21.1724Z" fill="#6C4724"/>
<path d="M14.5938 20.9801C14.5938 19.7576 14.6128 18.5329 14.5833 17.3103C14.5727 16.8506 14.6719 16.6667 15.1851 16.6834C16.3676 16.7231 17.5523 16.7001 18.7348 16.6938C19.2057 16.6917 19.6091 16.7983 19.6069 17.35C19.6048 17.8809 19.2374 18.0334 18.7475 18.0251C18.0105 18.0104 17.2735 18.0397 16.5387 18.0146C16.1628 18 16.0635 18.1128 16.0466 18.4911C15.9643 20.4953 15.9516 20.4953 17.9873 20.4953C18.1457 20.4953 18.3019 20.4995 18.4603 20.4953C18.9207 20.4828 19.3472 20.5622 19.3472 21.1243C19.3472 21.6656 18.9629 21.7973 18.4814 21.7868C17.9028 21.7743 17.3221 21.8203 16.7456 21.7743C16.2135 21.7304 16.0044 21.8642 16.0424 22.4368C16.0973 23.2393 16.0361 24.0502 16.0635 24.8568C16.0804 25.3814 15.865 25.6385 15.3435 25.6489C14.8219 25.6593 14.5833 25.4169 14.5875 24.8882C14.6023 23.5862 14.5917 22.2863 14.5917 20.9843L14.5938 20.9801Z" fill="#6C4724"/>
<path d="M12.1422 31.9415C10.909 31.9415 9.67369 31.9039 8.44257 31.9561C7.7246 31.9854 7.86186 31.5423 7.87031 31.1494C7.87875 30.7753 7.68237 30.3177 8.41723 30.3281C10.8837 30.3636 13.3522 30.3699 15.8187 30.326C16.5578 30.3135 16.3804 30.7565 16.3677 31.1285C16.3551 31.4817 16.6063 31.9875 15.844 31.9561C14.6129 31.906 13.3776 31.9436 12.1444 31.9436L12.1422 31.9415Z" fill="#6C4724"/>
<path d="M63.5405 40.1024C65.7198 40.1128 67.5527 41.9415 67.5464 44.0961C67.54 46.2466 65.6839 48.0606 63.5004 48.0501C61.3127 48.0397 59.5135 46.2341 59.5156 44.0522C59.5199 41.8788 61.3401 40.0899 63.5405 40.1024ZM61.1036 43.9749C61.0276 45.2226 62.1046 46.3803 63.418 46.4577C64.6808 46.5329 65.8443 45.4713 65.9246 44.1672C66.0027 42.9112 64.9342 41.7617 63.6144 41.6823C62.3558 41.605 61.1839 42.6771 61.1036 43.9749Z" fill="#6C4724"/>
<path d="M21.2077 40.1024C23.3912 40.1129 25.2157 41.9269 25.2136 44.0878C25.2136 46.2466 23.3722 48.0585 21.1887 48.0522C19.0031 48.0439 17.1765 46.2257 17.1829 44.0648C17.1892 41.8976 19.0222 40.094 21.2077 40.1045V40.1024ZM21.212 41.6802C19.9154 41.6761 18.7962 42.7753 18.7899 44.0606C18.7835 45.3396 19.9027 46.4619 21.1866 46.466C22.46 46.4702 23.6087 45.3459 23.6235 44.0794C23.6404 42.8234 22.4938 41.6823 21.2099 41.6782L21.212 41.6802Z" fill="#6C4724"/>
</g>
<defs>
<clipPath id="clip0_24_60">
<rect width="81" height="52" fill="white"/>
</clipPath>
</defs>
</svg>
