<svg width="68" height="68" viewBox="0 0 68 68" fill="none" xmlns="http://www.w3.org/2000/svg">
<mask id="path-1-inside-1_243_916" fill="white">
<path d="M65.431 32.8678L56.9649 20.757C56.1942 19.6547 54.932 18.9969 53.5882 18.9969H43.6404V14.9045C43.6404 13.3027 42.3394 12 40.7398 12H4.90058C3.30098 12 2 13.3027 2 14.9045V47.4984C2 49.1001 3.30098 50.4028 4.90058 50.4028H10.956C11.4434 53.5683 14.1818 56 17.4778 56C20.7731 56 23.5122 53.5683 23.9989 50.4028H45.8929C46.3795 53.5683 49.1187 56 52.4139 56C55.71 56 58.4483 53.5683 58.9358 50.4028H63.0994C64.699 50.4028 66 49.1001 66 47.4984V34.6756C66 34.0251 65.8031 33.4004 65.431 32.8678ZM17.4778 53.9797C14.9517 53.9797 12.8969 51.9221 12.8969 49.3926C12.8969 46.8632 14.9517 44.8056 17.4778 44.8056C20.0039 44.8056 22.0587 46.8632 22.0587 49.3926C22.0587 51.9221 20.0039 53.9797 17.4778 53.9797ZM41.6227 48.3825H23.9997C23.9836 48.279 23.965 48.1764 23.944 48.0738C23.9376 48.0439 23.9303 48.014 23.9238 47.9833C23.9077 47.9113 23.8924 47.8394 23.8738 47.7683C23.8641 47.7303 23.8536 47.6923 23.8431 47.6551C23.8262 47.5921 23.8092 47.5299 23.7899 47.4677C23.7778 47.4273 23.7648 47.3876 23.7519 47.3481C23.7326 47.2891 23.7132 47.2309 23.6922 47.1727C23.6777 47.1323 23.6623 47.0919 23.647 47.0523C23.626 46.9957 23.6034 46.9391 23.5808 46.8834C23.5647 46.8438 23.5477 46.8042 23.5308 46.7646C23.5066 46.7088 23.4816 46.6539 23.4557 46.5989C23.438 46.5609 23.4202 46.5229 23.4017 46.485C23.3742 46.4292 23.346 46.3751 23.3169 46.3209C23.2984 46.2845 23.2798 46.2482 23.2596 46.2126C23.229 46.156 23.1959 46.1003 23.1636 46.0445C23.1442 46.013 23.1265 45.9807 23.1071 45.9492C23.0683 45.8853 23.0272 45.8231 22.9868 45.7617C22.9715 45.7382 22.9578 45.7156 22.9424 45.693C22.8851 45.6081 22.8262 45.5249 22.7649 45.4433C22.7592 45.4352 22.7528 45.4279 22.7463 45.4198C22.6915 45.3471 22.6358 45.2752 22.5777 45.2049C22.5567 45.179 22.5349 45.1548 22.5139 45.1297C22.4695 45.0772 22.4251 45.0255 22.3799 44.9745C22.3541 44.9463 22.3275 44.918 22.3008 44.8897C22.2581 44.8436 22.2153 44.7984 22.1709 44.7539C22.1426 44.7248 22.1128 44.6957 22.0837 44.6675C22.041 44.6254 21.9974 44.5834 21.953 44.5422C21.9223 44.5139 21.8908 44.4856 21.8594 44.4581C21.815 44.4177 21.7698 44.3789 21.7238 44.3402C21.6923 44.3135 21.6592 44.286 21.6269 44.2602C21.5801 44.2222 21.5333 44.185 21.4857 44.1486C21.4526 44.1228 21.4195 44.0977 21.3864 44.0727C21.3364 44.0363 21.2855 44.0007 21.2355 43.9652C21.2024 43.9426 21.1701 43.9199 21.137 43.8973C21.0822 43.8609 21.0265 43.8254 20.97 43.7898C20.9401 43.7712 20.9103 43.7518 20.8804 43.7332C20.8102 43.6912 20.7392 43.6508 20.6673 43.6104C20.6504 43.6015 20.6334 43.591 20.6157 43.5813C20.5261 43.5328 20.4357 43.486 20.3437 43.4415C20.3195 43.4302 20.2953 43.4197 20.2719 43.4084C20.2033 43.376 20.1347 43.3445 20.0645 43.3146C20.0298 43.2993 19.9942 43.2863 19.9595 43.2718C19.899 43.2475 19.8393 43.2233 19.7788 43.1999C19.7392 43.1853 19.6997 43.1724 19.6601 43.1587C19.6028 43.1376 19.5447 43.1174 19.4858 43.0989C19.4446 43.0859 19.4027 43.073 19.3607 43.0609C19.3034 43.0439 19.2453 43.0269 19.1864 43.0108C19.1436 42.9995 19.1008 42.9889 19.0581 42.9776C18.9991 42.9631 18.9402 42.9502 18.8813 42.9372C18.8377 42.9275 18.7941 42.9178 18.7506 42.9097C18.69 42.8976 18.6295 42.8871 18.5682 42.8766C18.5246 42.8693 18.4818 42.8621 18.4382 42.8556C18.3745 42.8467 18.3107 42.8386 18.2462 42.8314C18.205 42.8265 18.1638 42.8209 18.1219 42.8168C18.0508 42.8103 17.9798 42.8055 17.908 42.8006C17.8725 42.7982 17.837 42.795 17.8015 42.7934C17.6941 42.7877 17.5868 42.7853 17.4778 42.7853C17.3689 42.7853 17.2607 42.7877 17.1534 42.7934C17.1179 42.795 17.0832 42.7982 17.0477 42.8006C16.9758 42.8055 16.904 42.8103 16.833 42.8168C16.7918 42.8209 16.7507 42.8265 16.7087 42.8314C16.6449 42.8386 16.5804 42.8467 16.5174 42.8556C16.4738 42.8621 16.4303 42.8693 16.3875 42.8766C16.3262 42.8871 16.2656 42.8976 16.2051 42.9097C16.1615 42.9178 16.1179 42.9275 16.0744 42.9372C16.0154 42.9502 15.9565 42.9631 15.8976 42.9776C15.8548 42.9889 15.8112 42.9995 15.7685 43.0108C15.7104 43.0269 15.6523 43.0439 15.5941 43.0609C15.553 43.073 15.511 43.0859 15.4699 43.0989C15.4109 43.1174 15.3528 43.1376 15.2947 43.1587C15.2552 43.1724 15.2164 43.1853 15.1769 43.1999C15.1164 43.2233 15.0558 43.2475 14.9953 43.2718C14.9606 43.2863 14.9259 43.2993 14.8912 43.3146C14.821 43.3445 14.7516 43.3769 14.683 43.4092C14.6596 43.4197 14.6354 43.4302 14.612 43.4415C14.5199 43.486 14.4288 43.5328 14.3392 43.5813C14.3222 43.591 14.3061 43.6007 14.2891 43.6104C14.2173 43.65 14.1455 43.6912 14.0753 43.7341C14.0446 43.7518 14.0155 43.7712 13.9857 43.7898C13.9292 43.8254 13.8735 43.8609 13.8178 43.8973C13.7855 43.9199 13.7532 43.9426 13.721 43.9652C13.6701 44.0007 13.6193 44.0363 13.5692 44.0735C13.5361 44.0977 13.5031 44.1228 13.4708 44.1478C13.4223 44.185 13.3755 44.2222 13.3287 44.2602C13.2956 44.286 13.2634 44.3135 13.2319 44.3402C13.1859 44.3789 13.1407 44.4185 13.0955 44.4581C13.0648 44.4856 13.0333 44.5139 13.0027 44.5422C12.9583 44.5834 12.9147 44.6254 12.8711 44.6675C12.8421 44.6965 12.813 44.7248 12.7848 44.7539C12.7404 44.7984 12.6976 44.8436 12.6548 44.8897C12.6282 44.918 12.6016 44.9463 12.5757 44.9745C12.5305 45.0255 12.4862 45.0772 12.4418 45.1297C12.4208 45.1548 12.399 45.179 12.378 45.2049C12.3199 45.2752 12.2642 45.3471 12.2093 45.4198C12.2029 45.4279 12.1964 45.4352 12.1908 45.4433C12.1294 45.5249 12.0705 45.6081 12.0132 45.693C11.9979 45.7156 11.9842 45.7382 11.9688 45.7617C11.9277 45.8231 11.8873 45.8853 11.8486 45.9492C11.8292 45.9807 11.8115 46.013 11.7921 46.0445C11.7598 46.1003 11.7267 46.156 11.6952 46.2126C11.6759 46.2482 11.6573 46.2845 11.6379 46.3209C11.6097 46.3751 11.5814 46.4292 11.554 46.485C11.5354 46.5229 11.5177 46.5609 11.4999 46.5997C11.4741 46.6539 11.4491 46.7088 11.4249 46.7646C11.4079 46.8042 11.391 46.8438 11.3748 46.8834C11.3514 46.9391 11.3296 46.9957 11.3078 47.0515C11.2933 47.0919 11.278 47.1323 11.2635 47.1727C11.2425 47.2309 11.2231 47.2891 11.2045 47.3472C11.1908 47.3876 11.1779 47.4273 11.1658 47.4677C11.1464 47.5299 11.1295 47.5913 11.1125 47.6543C11.102 47.6923 11.0907 47.7303 11.0811 47.7683C11.0633 47.8386 11.048 47.9097 11.0326 47.9808C11.0254 48.0123 11.0173 48.0431 11.0117 48.0746C10.9907 48.1764 10.9721 48.279 10.956 48.3825H4.90058C4.41392 48.3825 4.01765 47.9857 4.01765 47.4984V14.9045C4.01765 14.4171 4.41392 14.0203 4.90058 14.0203H40.7398C41.2272 14.0203 41.6227 14.4171 41.6227 14.9045V48.3825ZM43.6404 21.0172H53.5882C54.2742 21.0172 54.9182 21.3526 55.3121 21.9159L63.0534 32.9898H43.6404V21.0172ZM52.4139 53.9797C49.8878 53.9797 47.833 51.9221 47.833 49.3926C47.833 46.8632 49.8878 44.8056 52.4139 44.8056C54.94 44.8056 56.9948 46.8632 56.9948 49.3926C56.9948 51.9221 54.94 53.9797 52.4139 53.9797ZM63.9823 41.3856H62.1963V43.4059H63.9823V47.4984C63.9823 47.9857 63.5861 48.3825 63.0994 48.3825H58.9358C58.9196 48.279 58.9011 48.1764 58.8809 48.0746C58.8736 48.0422 58.8656 48.0099 58.8591 47.9776C58.8438 47.9081 58.8284 47.8378 58.8107 47.7691C58.801 47.7295 58.7897 47.6915 58.7792 47.6527C58.7623 47.5905 58.7453 47.5291 58.7268 47.4685C58.7138 47.4272 58.7009 47.3868 58.6872 47.3464C58.6687 47.2883 58.6493 47.2309 58.6291 47.1735C58.6138 47.1323 58.5984 47.0919 58.5831 47.0507C58.5621 46.9949 58.5403 46.9391 58.5177 46.8842C58.5008 46.8438 58.4838 46.8034 58.4669 46.7638C58.4427 46.7088 58.4177 46.6547 58.3926 46.6005C58.3741 46.5617 58.3563 46.5229 58.3378 46.4841C58.3103 46.4292 58.2821 46.375 58.2538 46.3217C58.2345 46.2853 58.2159 46.2482 58.1957 46.2126C58.165 46.156 58.1328 46.1011 58.1005 46.0453C58.0811 46.013 58.0625 45.9807 58.0432 45.9484C58.0044 45.8861 57.9649 45.8247 57.9245 45.7633C57.9084 45.7399 57.8939 45.7156 57.8785 45.6922C57.8212 45.6081 57.7623 45.5249 57.7018 45.4433C57.6945 45.4344 57.6873 45.4263 57.6808 45.4166C57.6267 45.3455 57.571 45.2744 57.5137 45.2049C57.4928 45.179 57.471 45.154 57.4492 45.1281C57.4056 45.0764 57.3612 45.0255 57.316 44.9745C57.2902 44.9454 57.2627 44.918 57.2369 44.8889C57.1941 44.8436 57.1514 44.7984 57.1078 44.7539C57.0787 44.7248 57.0489 44.6957 57.0198 44.6675C56.977 44.6254 56.9335 44.5834 56.8891 44.5422C56.8584 44.5139 56.8269 44.4856 56.7955 44.4573C56.7511 44.4177 56.7059 44.3789 56.6607 44.341C56.6284 44.3135 56.5961 44.286 56.563 44.2593C56.5162 44.2222 56.4694 44.185 56.4218 44.1486C56.3887 44.1228 56.3556 44.0977 56.3225 44.0727C56.2725 44.0363 56.2224 44.0007 56.1716 43.966C56.1393 43.9426 56.107 43.9199 56.0739 43.8973C56.0191 43.8609 55.9626 43.8254 55.9069 43.7906C55.877 43.7712 55.8472 43.7518 55.8165 43.7332C55.7471 43.6912 55.6761 43.6508 55.605 43.6112C55.5873 43.6015 55.5703 43.591 55.5526 43.5813C55.463 43.5328 55.3718 43.486 55.2798 43.4415C55.2556 43.4302 55.2314 43.4197 55.208 43.4084C55.1394 43.376 55.0708 43.3445 55.0006 43.3146C54.9659 43.2993 54.9303 43.2863 54.8956 43.2718C54.8359 43.2475 54.7754 43.2233 54.7149 43.1999C54.6761 43.1853 54.6366 43.1724 54.597 43.1578C54.5389 43.1376 54.4808 43.1174 54.4219 43.0989C54.3807 43.0859 54.3388 43.073 54.2976 43.0609C54.2395 43.0431 54.1814 43.0269 54.1233 43.0108C54.0805 42.9995 54.0369 42.9889 53.9941 42.9776C53.9352 42.9631 53.8763 42.9502 53.8174 42.9372C53.7738 42.9275 53.7302 42.9178 53.6867 42.9097C53.6261 42.8976 53.5656 42.8871 53.5043 42.8766C53.4615 42.8693 53.4179 42.8621 53.3743 42.8556C53.3114 42.8467 53.2468 42.8386 53.1831 42.8314C53.1411 42.8265 53.0999 42.8209 53.0588 42.8168C52.9877 42.8103 52.9159 42.8055 52.8441 42.8006C52.8086 42.7982 52.7739 42.795 52.7384 42.7934C52.631 42.7877 52.5229 42.7853 52.4139 42.7853C52.3058 42.7853 52.1976 42.7877 52.0903 42.7934C52.0548 42.795 52.0193 42.7982 51.9838 42.8006C51.9119 42.8055 51.8409 42.8103 51.7699 42.8168C51.7279 42.8209 51.6868 42.8265 51.6456 42.8314C51.581 42.8386 51.5173 42.8467 51.4535 42.8556C51.4099 42.8621 51.3672 42.8693 51.3236 42.8766C51.2631 42.8871 51.2017 42.8976 51.142 42.9097C51.0976 42.9178 51.054 42.9275 51.0104 42.9372C50.9515 42.9502 50.8926 42.9631 50.8345 42.9776C50.7909 42.9889 50.7481 42.9995 50.7054 43.0108C50.6465 43.0269 50.5883 43.0431 50.531 43.0609C50.4891 43.073 50.4471 43.0859 50.406 43.0989C50.347 43.1174 50.2897 43.1376 50.2316 43.1578C50.1921 43.1724 50.1525 43.1853 50.113 43.1999C50.0525 43.2233 49.9927 43.2475 49.933 43.2718C49.8975 43.2863 49.862 43.2993 49.8273 43.3146C49.7579 43.3445 49.6893 43.376 49.6207 43.4084C49.5965 43.4197 49.5723 43.4302 49.548 43.4415C49.456 43.486 49.3657 43.5328 49.2761 43.5813C49.2583 43.591 49.2414 43.6015 49.2236 43.6112C49.1518 43.6508 49.0816 43.6912 49.0113 43.7332C48.9815 43.7518 48.9516 43.7712 48.9218 43.7906C48.8653 43.8254 48.8096 43.8609 48.7547 43.8973C48.7216 43.9199 48.6893 43.9426 48.6562 43.9652C48.6062 44.0007 48.5554 44.0363 48.5061 44.0727C48.4722 44.0977 48.4391 44.1228 48.4061 44.1486C48.3584 44.185 48.3116 44.2222 48.2648 44.2593C48.2325 44.286 48.1994 44.3135 48.1672 44.341C48.122 44.3789 48.0768 44.4177 48.0324 44.4573C48.0009 44.4856 47.9702 44.5139 47.9388 44.5422C47.8944 44.5834 47.8516 44.6254 47.808 44.6675C47.779 44.6957 47.7491 44.7248 47.7209 44.7539C47.6765 44.7984 47.6337 44.8436 47.5909 44.8897C47.5651 44.918 47.5385 44.9463 47.5118 44.9745C47.4666 45.0255 47.4222 45.0772 47.3787 45.1289C47.3569 45.1548 47.3351 45.179 47.3141 45.2049C47.2568 45.2752 47.2011 45.3463 47.1462 45.419C47.1398 45.4271 47.1333 45.4352 47.1269 45.4433C47.0655 45.5249 47.0066 45.6081 46.9493 45.693C46.934 45.7156 46.9203 45.7382 46.9049 45.7617C46.8646 45.8231 46.8242 45.8853 46.7847 45.9492C46.7653 45.9807 46.7475 46.013 46.729 46.0445C46.6959 46.1003 46.6628 46.156 46.6321 46.2126C46.612 46.2482 46.5934 46.2845 46.5748 46.3209C46.5458 46.3751 46.5175 46.4292 46.4901 46.485C46.4715 46.5229 46.4538 46.5609 46.436 46.5989C46.4102 46.6539 46.3852 46.7088 46.361 46.7646C46.344 46.8042 46.3271 46.8438 46.3109 46.8834C46.2883 46.9391 46.2657 46.9957 46.2447 47.0523C46.2294 47.0919 46.2141 47.1323 46.1995 47.1727C46.1786 47.2309 46.1592 47.2891 46.1406 47.3481C46.1277 47.3876 46.114 47.4273 46.1019 47.4677C46.0833 47.5299 46.0656 47.5921 46.0486 47.6551C46.0381 47.6923 46.0276 47.7303 46.018 47.7683C45.9994 47.8394 45.9841 47.9113 45.9679 47.9833C45.9615 48.014 45.9542 48.0439 45.9477 48.0738C45.9268 48.1764 45.9082 48.279 45.8921 48.3825H43.6404V35.0102H63.9823V41.3856Z"/>
</mask>
<path d="M65.431 32.8678L56.9649 20.757C56.1942 19.6547 54.932 18.9969 53.5882 18.9969H43.6404V14.9045C43.6404 13.3027 42.3394 12 40.7398 12H4.90058C3.30098 12 2 13.3027 2 14.9045V47.4984C2 49.1001 3.30098 50.4028 4.90058 50.4028H10.956C11.4434 53.5683 14.1818 56 17.4778 56C20.7731 56 23.5122 53.5683 23.9989 50.4028H45.8929C46.3795 53.5683 49.1187 56 52.4139 56C55.71 56 58.4483 53.5683 58.9358 50.4028H63.0994C64.699 50.4028 66 49.1001 66 47.4984V34.6756C66 34.0251 65.8031 33.4004 65.431 32.8678ZM17.4778 53.9797C14.9517 53.9797 12.8969 51.9221 12.8969 49.3926C12.8969 46.8632 14.9517 44.8056 17.4778 44.8056C20.0039 44.8056 22.0587 46.8632 22.0587 49.3926C22.0587 51.9221 20.0039 53.9797 17.4778 53.9797ZM41.6227 48.3825H23.9997C23.9836 48.279 23.965 48.1764 23.944 48.0738C23.9376 48.0439 23.9303 48.014 23.9238 47.9833C23.9077 47.9113 23.8924 47.8394 23.8738 47.7683C23.8641 47.7303 23.8536 47.6923 23.8431 47.6551C23.8262 47.5921 23.8092 47.5299 23.7899 47.4677C23.7778 47.4273 23.7648 47.3876 23.7519 47.3481C23.7326 47.2891 23.7132 47.2309 23.6922 47.1727C23.6777 47.1323 23.6623 47.0919 23.647 47.0523C23.626 46.9957 23.6034 46.9391 23.5808 46.8834C23.5647 46.8438 23.5477 46.8042 23.5308 46.7646C23.5066 46.7088 23.4816 46.6539 23.4557 46.5989C23.438 46.5609 23.4202 46.5229 23.4017 46.485C23.3742 46.4292 23.346 46.3751 23.3169 46.3209C23.2984 46.2845 23.2798 46.2482 23.2596 46.2126C23.229 46.156 23.1959 46.1003 23.1636 46.0445C23.1442 46.013 23.1265 45.9807 23.1071 45.9492C23.0683 45.8853 23.0272 45.8231 22.9868 45.7617C22.9715 45.7382 22.9578 45.7156 22.9424 45.693C22.8851 45.6081 22.8262 45.5249 22.7649 45.4433C22.7592 45.4352 22.7528 45.4279 22.7463 45.4198C22.6915 45.3471 22.6358 45.2752 22.5777 45.2049C22.5567 45.179 22.5349 45.1548 22.5139 45.1297C22.4695 45.0772 22.4251 45.0255 22.3799 44.9745C22.3541 44.9463 22.3275 44.918 22.3008 44.8897C22.2581 44.8436 22.2153 44.7984 22.1709 44.7539C22.1426 44.7248 22.1128 44.6957 22.0837 44.6675C22.041 44.6254 21.9974 44.5834 21.953 44.5422C21.9223 44.5139 21.8908 44.4856 21.8594 44.4581C21.815 44.4177 21.7698 44.3789 21.7238 44.3402C21.6923 44.3135 21.6592 44.286 21.6269 44.2602C21.5801 44.2222 21.5333 44.185 21.4857 44.1486C21.4526 44.1228 21.4195 44.0977 21.3864 44.0727C21.3364 44.0363 21.2855 44.0007 21.2355 43.9652C21.2024 43.9426 21.1701 43.9199 21.137 43.8973C21.0822 43.8609 21.0265 43.8254 20.97 43.7898C20.9401 43.7712 20.9103 43.7518 20.8804 43.7332C20.8102 43.6912 20.7392 43.6508 20.6673 43.6104C20.6504 43.6015 20.6334 43.591 20.6157 43.5813C20.5261 43.5328 20.4357 43.486 20.3437 43.4415C20.3195 43.4302 20.2953 43.4197 20.2719 43.4084C20.2033 43.376 20.1347 43.3445 20.0645 43.3146C20.0298 43.2993 19.9942 43.2863 19.9595 43.2718C19.899 43.2475 19.8393 43.2233 19.7788 43.1999C19.7392 43.1853 19.6997 43.1724 19.6601 43.1587C19.6028 43.1376 19.5447 43.1174 19.4858 43.0989C19.4446 43.0859 19.4027 43.073 19.3607 43.0609C19.3034 43.0439 19.2453 43.0269 19.1864 43.0108C19.1436 42.9995 19.1008 42.9889 19.0581 42.9776C18.9991 42.9631 18.9402 42.9502 18.8813 42.9372C18.8377 42.9275 18.7941 42.9178 18.7506 42.9097C18.69 42.8976 18.6295 42.8871 18.5682 42.8766C18.5246 42.8693 18.4818 42.8621 18.4382 42.8556C18.3745 42.8467 18.3107 42.8386 18.2462 42.8314C18.205 42.8265 18.1638 42.8209 18.1219 42.8168C18.0508 42.8103 17.9798 42.8055 17.908 42.8006C17.8725 42.7982 17.837 42.795 17.8015 42.7934C17.6941 42.7877 17.5868 42.7853 17.4778 42.7853C17.3689 42.7853 17.2607 42.7877 17.1534 42.7934C17.1179 42.795 17.0832 42.7982 17.0477 42.8006C16.9758 42.8055 16.904 42.8103 16.833 42.8168C16.7918 42.8209 16.7507 42.8265 16.7087 42.8314C16.6449 42.8386 16.5804 42.8467 16.5174 42.8556C16.4738 42.8621 16.4303 42.8693 16.3875 42.8766C16.3262 42.8871 16.2656 42.8976 16.2051 42.9097C16.1615 42.9178 16.1179 42.9275 16.0744 42.9372C16.0154 42.9502 15.9565 42.9631 15.8976 42.9776C15.8548 42.9889 15.8112 42.9995 15.7685 43.0108C15.7104 43.0269 15.6523 43.0439 15.5941 43.0609C15.553 43.073 15.511 43.0859 15.4699 43.0989C15.4109 43.1174 15.3528 43.1376 15.2947 43.1587C15.2552 43.1724 15.2164 43.1853 15.1769 43.1999C15.1164 43.2233 15.0558 43.2475 14.9953 43.2718C14.9606 43.2863 14.9259 43.2993 14.8912 43.3146C14.821 43.3445 14.7516 43.3769 14.683 43.4092C14.6596 43.4197 14.6354 43.4302 14.612 43.4415C14.5199 43.486 14.4288 43.5328 14.3392 43.5813C14.3222 43.591 14.3061 43.6007 14.2891 43.6104C14.2173 43.65 14.1455 43.6912 14.0753 43.7341C14.0446 43.7518 14.0155 43.7712 13.9857 43.7898C13.9292 43.8254 13.8735 43.8609 13.8178 43.8973C13.7855 43.9199 13.7532 43.9426 13.721 43.9652C13.6701 44.0007 13.6193 44.0363 13.5692 44.0735C13.5361 44.0977 13.5031 44.1228 13.4708 44.1478C13.4223 44.185 13.3755 44.2222 13.3287 44.2602C13.2956 44.286 13.2634 44.3135 13.2319 44.3402C13.1859 44.3789 13.1407 44.4185 13.0955 44.4581C13.0648 44.4856 13.0333 44.5139 13.0027 44.5422C12.9583 44.5834 12.9147 44.6254 12.8711 44.6675C12.8421 44.6965 12.813 44.7248 12.7848 44.7539C12.7404 44.7984 12.6976 44.8436 12.6548 44.8897C12.6282 44.918 12.6016 44.9463 12.5757 44.9745C12.5305 45.0255 12.4862 45.0772 12.4418 45.1297C12.4208 45.1548 12.399 45.179 12.378 45.2049C12.3199 45.2752 12.2642 45.3471 12.2093 45.4198C12.2029 45.4279 12.1964 45.4352 12.1908 45.4433C12.1294 45.5249 12.0705 45.6081 12.0132 45.693C11.9979 45.7156 11.9842 45.7382 11.9688 45.7617C11.9277 45.8231 11.8873 45.8853 11.8486 45.9492C11.8292 45.9807 11.8115 46.013 11.7921 46.0445C11.7598 46.1003 11.7267 46.156 11.6952 46.2126C11.6759 46.2482 11.6573 46.2845 11.6379 46.3209C11.6097 46.3751 11.5814 46.4292 11.554 46.485C11.5354 46.5229 11.5177 46.5609 11.4999 46.5997C11.4741 46.6539 11.4491 46.7088 11.4249 46.7646C11.4079 46.8042 11.391 46.8438 11.3748 46.8834C11.3514 46.9391 11.3296 46.9957 11.3078 47.0515C11.2933 47.0919 11.278 47.1323 11.2635 47.1727C11.2425 47.2309 11.2231 47.2891 11.2045 47.3472C11.1908 47.3876 11.1779 47.4273 11.1658 47.4677C11.1464 47.5299 11.1295 47.5913 11.1125 47.6543C11.102 47.6923 11.0907 47.7303 11.0811 47.7683C11.0633 47.8386 11.048 47.9097 11.0326 47.9808C11.0254 48.0123 11.0173 48.0431 11.0117 48.0746C10.9907 48.1764 10.9721 48.279 10.956 48.3825H4.90058C4.41392 48.3825 4.01765 47.9857 4.01765 47.4984V14.9045C4.01765 14.4171 4.41392 14.0203 4.90058 14.0203H40.7398C41.2272 14.0203 41.6227 14.4171 41.6227 14.9045V48.3825ZM43.6404 21.0172H53.5882C54.2742 21.0172 54.9182 21.3526 55.3121 21.9159L63.0534 32.9898H43.6404V21.0172ZM52.4139 53.9797C49.8878 53.9797 47.833 51.9221 47.833 49.3926C47.833 46.8632 49.8878 44.8056 52.4139 44.8056C54.94 44.8056 56.9948 46.8632 56.9948 49.3926C56.9948 51.9221 54.94 53.9797 52.4139 53.9797ZM63.9823 41.3856H62.1963V43.4059H63.9823V47.4984C63.9823 47.9857 63.5861 48.3825 63.0994 48.3825H58.9358C58.9196 48.279 58.9011 48.1764 58.8809 48.0746C58.8736 48.0422 58.8656 48.0099 58.8591 47.9776C58.8438 47.9081 58.8284 47.8378 58.8107 47.7691C58.801 47.7295 58.7897 47.6915 58.7792 47.6527C58.7623 47.5905 58.7453 47.5291 58.7268 47.4685C58.7138 47.4272 58.7009 47.3868 58.6872 47.3464C58.6687 47.2883 58.6493 47.2309 58.6291 47.1735C58.6138 47.1323 58.5984 47.0919 58.5831 47.0507C58.5621 46.9949 58.5403 46.9391 58.5177 46.8842C58.5008 46.8438 58.4838 46.8034 58.4669 46.7638C58.4427 46.7088 58.4177 46.6547 58.3926 46.6005C58.3741 46.5617 58.3563 46.5229 58.3378 46.4841C58.3103 46.4292 58.2821 46.375 58.2538 46.3217C58.2345 46.2853 58.2159 46.2482 58.1957 46.2126C58.165 46.156 58.1328 46.1011 58.1005 46.0453C58.0811 46.013 58.0625 45.9807 58.0432 45.9484C58.0044 45.8861 57.9649 45.8247 57.9245 45.7633C57.9084 45.7399 57.8939 45.7156 57.8785 45.6922C57.8212 45.6081 57.7623 45.5249 57.7018 45.4433C57.6945 45.4344 57.6873 45.4263 57.6808 45.4166C57.6267 45.3455 57.571 45.2744 57.5137 45.2049C57.4928 45.179 57.471 45.154 57.4492 45.1281C57.4056 45.0764 57.3612 45.0255 57.316 44.9745C57.2902 44.9454 57.2627 44.918 57.2369 44.8889C57.1941 44.8436 57.1514 44.7984 57.1078 44.7539C57.0787 44.7248 57.0489 44.6957 57.0198 44.6675C56.977 44.6254 56.9335 44.5834 56.8891 44.5422C56.8584 44.5139 56.8269 44.4856 56.7955 44.4573C56.7511 44.4177 56.7059 44.3789 56.6607 44.341C56.6284 44.3135 56.5961 44.286 56.563 44.2593C56.5162 44.2222 56.4694 44.185 56.4218 44.1486C56.3887 44.1228 56.3556 44.0977 56.3225 44.0727C56.2725 44.0363 56.2224 44.0007 56.1716 43.966C56.1393 43.9426 56.107 43.9199 56.0739 43.8973C56.0191 43.8609 55.9626 43.8254 55.9069 43.7906C55.877 43.7712 55.8472 43.7518 55.8165 43.7332C55.7471 43.6912 55.6761 43.6508 55.605 43.6112C55.5873 43.6015 55.5703 43.591 55.5526 43.5813C55.463 43.5328 55.3718 43.486 55.2798 43.4415C55.2556 43.4302 55.2314 43.4197 55.208 43.4084C55.1394 43.376 55.0708 43.3445 55.0006 43.3146C54.9659 43.2993 54.9303 43.2863 54.8956 43.2718C54.8359 43.2475 54.7754 43.2233 54.7149 43.1999C54.6761 43.1853 54.6366 43.1724 54.597 43.1578C54.5389 43.1376 54.4808 43.1174 54.4219 43.0989C54.3807 43.0859 54.3388 43.073 54.2976 43.0609C54.2395 43.0431 54.1814 43.0269 54.1233 43.0108C54.0805 42.9995 54.0369 42.9889 53.9941 42.9776C53.9352 42.9631 53.8763 42.9502 53.8174 42.9372C53.7738 42.9275 53.7302 42.9178 53.6867 42.9097C53.6261 42.8976 53.5656 42.8871 53.5043 42.8766C53.4615 42.8693 53.4179 42.8621 53.3743 42.8556C53.3114 42.8467 53.2468 42.8386 53.1831 42.8314C53.1411 42.8265 53.0999 42.8209 53.0588 42.8168C52.9877 42.8103 52.9159 42.8055 52.8441 42.8006C52.8086 42.7982 52.7739 42.795 52.7384 42.7934C52.631 42.7877 52.5229 42.7853 52.4139 42.7853C52.3058 42.7853 52.1976 42.7877 52.0903 42.7934C52.0548 42.795 52.0193 42.7982 51.9838 42.8006C51.9119 42.8055 51.8409 42.8103 51.7699 42.8168C51.7279 42.8209 51.6868 42.8265 51.6456 42.8314C51.581 42.8386 51.5173 42.8467 51.4535 42.8556C51.4099 42.8621 51.3672 42.8693 51.3236 42.8766C51.2631 42.8871 51.2017 42.8976 51.142 42.9097C51.0976 42.9178 51.054 42.9275 51.0104 42.9372C50.9515 42.9502 50.8926 42.9631 50.8345 42.9776C50.7909 42.9889 50.7481 42.9995 50.7054 43.0108C50.6465 43.0269 50.5883 43.0431 50.531 43.0609C50.4891 43.073 50.4471 43.0859 50.406 43.0989C50.347 43.1174 50.2897 43.1376 50.2316 43.1578C50.1921 43.1724 50.1525 43.1853 50.113 43.1999C50.0525 43.2233 49.9927 43.2475 49.933 43.2718C49.8975 43.2863 49.862 43.2993 49.8273 43.3146C49.7579 43.3445 49.6893 43.376 49.6207 43.4084C49.5965 43.4197 49.5723 43.4302 49.548 43.4415C49.456 43.486 49.3657 43.5328 49.2761 43.5813C49.2583 43.591 49.2414 43.6015 49.2236 43.6112C49.1518 43.6508 49.0816 43.6912 49.0113 43.7332C48.9815 43.7518 48.9516 43.7712 48.9218 43.7906C48.8653 43.8254 48.8096 43.8609 48.7547 43.8973C48.7216 43.9199 48.6893 43.9426 48.6562 43.9652C48.6062 44.0007 48.5554 44.0363 48.5061 44.0727C48.4722 44.0977 48.4391 44.1228 48.4061 44.1486C48.3584 44.185 48.3116 44.2222 48.2648 44.2593C48.2325 44.286 48.1994 44.3135 48.1672 44.341C48.122 44.3789 48.0768 44.4177 48.0324 44.4573C48.0009 44.4856 47.9702 44.5139 47.9388 44.5422C47.8944 44.5834 47.8516 44.6254 47.808 44.6675C47.779 44.6957 47.7491 44.7248 47.7209 44.7539C47.6765 44.7984 47.6337 44.8436 47.5909 44.8897C47.5651 44.918 47.5385 44.9463 47.5118 44.9745C47.4666 45.0255 47.4222 45.0772 47.3787 45.1289C47.3569 45.1548 47.3351 45.179 47.3141 45.2049C47.2568 45.2752 47.2011 45.3463 47.1462 45.419C47.1398 45.4271 47.1333 45.4352 47.1269 45.4433C47.0655 45.5249 47.0066 45.6081 46.9493 45.693C46.934 45.7156 46.9203 45.7382 46.9049 45.7617C46.8646 45.8231 46.8242 45.8853 46.7847 45.9492C46.7653 45.9807 46.7475 46.013 46.729 46.0445C46.6959 46.1003 46.6628 46.156 46.6321 46.2126C46.612 46.2482 46.5934 46.2845 46.5748 46.3209C46.5458 46.3751 46.5175 46.4292 46.4901 46.485C46.4715 46.5229 46.4538 46.5609 46.436 46.5989C46.4102 46.6539 46.3852 46.7088 46.361 46.7646C46.344 46.8042 46.3271 46.8438 46.3109 46.8834C46.2883 46.9391 46.2657 46.9957 46.2447 47.0523C46.2294 47.0919 46.2141 47.1323 46.1995 47.1727C46.1786 47.2309 46.1592 47.2891 46.1406 47.3481C46.1277 47.3876 46.114 47.4273 46.1019 47.4677C46.0833 47.5299 46.0656 47.5921 46.0486 47.6551C46.0381 47.6923 46.0276 47.7303 46.018 47.7683C45.9994 47.8394 45.9841 47.9113 45.9679 47.9833C45.9615 48.014 45.9542 48.0439 45.9477 48.0738C45.9268 48.1764 45.9082 48.279 45.8921 48.3825H43.6404V35.0102H63.9823V41.3856Z" fill="#6C4624" stroke="#F5EBE2" stroke-width="0.6" mask="url(#path-1-inside-1_243_916)"/>
<path d="M54.1112 49.1693C54.3371 48.4231 53.9154 47.6351 53.1692 47.4091C52.4231 47.1832 51.635 47.6049 51.4091 48.3511C51.1832 49.0973 51.6049 49.8853 52.351 50.1112C53.0972 50.3372 53.8853 49.9154 54.1112 49.1693Z" fill="#6C4624"/>
<path d="M33 24H12V25H33V24Z" fill="#6C4624"/>
<path d="M33 32H24V33H33V32Z" fill="#6C4624"/>
<path d="M18.6703 49.7279C18.8962 48.9817 18.4745 48.1937 17.7283 47.9677C16.9821 47.7418 16.1941 48.1635 15.9682 48.9097C15.7422 49.6559 16.164 50.4439 16.9101 50.6698C17.6563 50.8958 18.4443 50.474 18.6703 49.7279Z" fill="#6C4624"/>
</svg>
