<svg width="35" height="31" viewBox="0 0 35 31" fill="none" xmlns="http://www.w3.org/2000/svg">
<path d="M25.0759 0.625691C23.6338 0.617764 22.2076 0.935549 20.8984 1.55653C19.5891 2.17751 18.429 3.0865 17.5 4.21908C16.5772 3.07916 15.4182 2.16505 14.1076 1.5434C12.7969 0.921752 11.3677 0.608228 9.92405 0.625691C7.29203 0.625691 4.76781 1.69916 2.90669 3.60994C1.04557 5.52071 0 8.11229 0 10.8145C0 20.4576 16.3924 29.8731 17.057 30.237C17.1881 30.327 17.3423 30.375 17.5 30.375C17.6577 30.375 17.8119 30.327 17.943 30.237C18.6076 29.8731 35 20.594 35 10.8145C35 8.11229 33.9544 5.52071 32.0933 3.60994C30.2322 1.69916 27.708 0.625691 25.0759 0.625691ZM17.5 28.4176C14.9304 26.8711 1.77215 18.6381 1.77215 10.8145C1.77215 8.59483 2.63101 6.46604 4.15979 4.89647C5.68857 3.3269 7.76203 2.44513 9.92405 2.44513C11.2801 2.42685 12.6184 2.76396 13.8122 3.42457C15.0061 4.08517 16.0161 5.04746 16.7468 6.22046C16.8331 6.3426 16.9463 6.44202 17.0773 6.51058C17.2082 6.57913 17.353 6.61488 17.5 6.61488C17.647 6.61488 17.7918 6.57913 17.9227 6.51058C18.0537 6.44202 18.1669 6.3426 18.2532 6.22046C19.2147 4.71073 20.6256 3.56034 22.2756 2.94068C23.9256 2.32102 25.7265 2.26527 27.4099 2.78172C29.0933 3.29817 30.5691 4.35918 31.6175 5.80669C32.6659 7.25419 33.2307 9.01071 33.2278 10.8145C33.2278 18.7291 20.0696 26.9166 17.5 28.4176Z" fill="#6C4624"/>
</svg>
