<svg width="65" height="68" viewBox="0 0 65 68" fill="none" xmlns="http://www.w3.org/2000/svg">
<path d="M45.7969 48.4122C43.6958 48.4589 41.6173 47.9718 39.7579 46.9969L39.7575 46.9967C39.266 46.738 38.7929 46.4463 38.3412 46.1235L38.5432 45.6766C38.8334 45.7441 39.15 45.8044 39.4995 45.8573L39.511 45.8591L39.5222 45.8618C40.6661 46.145 41.8726 46.0352 42.9458 45.5505C44.019 45.0657 44.8959 44.2345 45.4343 43.192L45.4392 43.1824L45.445 43.1733C45.632 42.8773 45.7486 42.5428 45.7862 42.1954C45.8236 41.8497 45.7818 41.5001 45.6638 41.1728C45.2847 40.2563 44.4334 40.1583 43.5923 40.0781C42.7487 40.0121 41.9138 39.862 41.1002 39.6303L41.0968 39.6293C40.1627 39.349 39.2451 39.017 38.3483 38.6348C38.3476 38.6345 38.3468 38.6342 38.3461 38.6339L38.3218 38.6241C37.5023 38.2932 36.6661 37.9554 35.7354 37.6784C35.0323 37.475 34.3096 37.3455 33.5793 37.2922C31.9305 37.1728 30.2732 37.3072 28.6657 37.6906L28.6577 37.6925L28.6577 37.6924C27.942 37.8386 27.3633 37.9784 26.9328 38.089C26.4993 38.202 26.3089 38.2608 26.1128 38.3215L26.0884 38.329L26.0882 38.3291L25.8734 38.3956L25.8697 38.3967L25.8697 38.3967C25.6604 38.458 25.4978 38.5018 25.3996 38.5278C24.3357 38.8532 23.291 39.238 22.2706 39.6804C20.6121 40.4624 19.023 41.3825 17.5205 42.4311L17.5115 42.4373L17.5114 42.4371C16.4077 43.1378 15.2587 43.7655 14.0721 44.3159L14.0714 44.3162C10.6547 45.8881 6.9742 46.8145 3.21736 47.048C3.05293 47.059 2.89355 47.1088 2.75242 47.1931C2.61117 47.2776 2.49231 47.3942 2.40557 47.5333C2.31884 47.6723 2.2667 47.8298 2.2534 47.9928C2.24009 48.1557 2.26599 48.3195 2.329 48.4706L2.32903 48.4707C4.1455 52.8309 7.10246 56.6279 10.8928 59.4669L10.8931 59.4671C11.023 59.5647 11.1742 59.6305 11.3345 59.6592C11.4948 59.6879 11.6596 59.6787 11.8156 59.6323L45.7969 48.4122ZM45.7969 48.4122L49.6806 48.4109C49.6807 48.4109 49.6807 48.4109 49.6807 48.4109C49.9376 48.4111 50.1851 48.5061 50.3754 48.6772C50.5657 48.8482 50.6853 49.0831 50.7114 49.3364L50.7114 49.3364L50.712 49.3414C50.8338 50.3265 50.6614 51.3256 50.2161 52.2139C49.0592 54.4437 46.1254 55.6282 42.7364 55.1504L42.6318 55.1357L42.5483 55.2004C39.9194 57.2385 37.2198 59.1847 34.4544 61.0355L34.4478 61.0399L34.4416 61.0447C33.1768 62.0122 31.661 62.6013 30.0717 62.7429C29.9796 62.7475 29.8873 62.7498 29.7951 62.75C28.6512 62.7499 27.1705 62.3679 24.1244 60.6989C22.3977 59.7505 20.7301 58.6993 19.1306 57.5509L19.031 57.4794L18.9134 57.5145L11.8158 59.6323L45.7969 48.4122ZM31.86 44.2764C31.6251 44.2932 31.4284 44.3128 31.2954 44.3286C31.0219 44.36 30.7473 44.282 30.5318 44.1122C30.3163 43.9422 30.1777 43.6943 30.1462 43.4232C30.1146 43.1521 30.1926 42.8794 30.3633 42.6652C30.5339 42.4509 30.7835 42.3126 31.0571 42.2811L31.0573 42.281C31.2079 42.2636 31.4357 42.2409 31.7176 42.2206C32.6008 42.161 33.4877 42.1808 34.3673 42.2799L34.3692 42.2801L34.391 42.2823C35.3153 42.3997 36.2174 42.6506 37.0689 43.0271L37.0702 43.0276C37.9433 43.4075 38.8621 43.6733 39.8037 43.8184C40.2892 43.9402 40.793 43.9729 41.2903 43.9149L41.307 43.9129L41.3232 43.9088C42.1616 43.6947 42.9022 43.2035 43.4233 42.5153L43.6962 42.1549L43.2459 42.1153C42.3264 42.0344 41.4169 41.8659 40.5297 41.6122C39.5245 41.312 38.5368 40.9562 37.5714 40.5465L37.5714 40.5464L37.5678 40.545C36.7618 40.2176 35.9894 39.9058 35.1385 39.6522L35.1362 39.6515C34.5703 39.4888 33.9886 39.3861 33.401 39.3453L33.4006 39.3453C31.946 39.2466 30.4849 39.3706 29.0681 39.713C28.3985 39.8495 27.8567 39.9807 27.4543 40.0837L27.4532 40.084C27.09 40.1787 26.9191 40.2306 26.7561 40.2801C26.7408 40.2848 26.7256 40.2894 26.7103 40.294L26.7081 40.2947L26.4644 40.3708C26.2225 40.4418 26.0379 40.4917 25.9656 40.5096L25.9587 40.5114L25.9519 40.5135C24.9921 40.8113 24.049 41.1597 23.1265 41.5573L23.1265 41.5571L23.1182 41.5611C21.5694 42.2972 20.0845 43.1597 18.6788 44.1397C17.4824 44.9025 16.236 45.5849 14.9481 46.1824C11.8592 47.608 8.56253 48.5374 5.18095 48.9357L4.82585 48.9775L4.98704 49.2967C6.58134 52.4534 8.84693 55.227 11.6265 57.4251L11.7284 57.5057L11.853 57.4686L18.9301 55.3584L18.9302 55.3584C19.0284 55.3291 19.1287 55.3137 19.2278 55.3138C19.4504 55.314 19.6669 55.3854 19.8453 55.5172L19.8454 55.5172C21.5273 56.7588 23.2909 57.8868 25.1244 58.8938L25.1247 58.8939C26.8052 59.8142 27.8887 60.2686 28.6152 60.4894C29.3521 60.7134 29.7223 60.6969 29.9649 60.685L29.972 60.6846L29.9792 60.6838C31.1959 60.5536 32.3499 60.0798 33.305 59.3183C36.1823 57.3924 38.9875 55.362 41.7151 53.2313L41.7153 53.2312C41.832 53.1398 41.9673 53.0746 42.1119 53.0401C42.2565 53.0055 42.407 53.0025 42.5529 53.0312L42.5536 53.0313C43.826 53.2774 45.0695 53.2259 46.0979 52.9236C47.1221 52.6225 47.9609 52.063 48.3725 51.2697L48.3726 51.2695C48.452 51.1161 48.5152 50.955 48.5614 50.7887L48.6493 50.4718H48.3205H45.825V50.4717L45.8195 50.4719C43.4569 50.5242 41.118 49.9956 39.0101 48.9329C36.9023 47.8703 35.0907 46.3066 33.7362 44.3806L33.6675 44.283L33.5485 44.275C32.9865 44.2372 32.4226 44.2376 31.8607 44.2763L31.86 44.2764Z" fill="#6C4624" stroke="#F5EBE2" stroke-width="0.5"/>
<path d="M57.4054 48.6786H57.6554V48.4286V8.57143V8.32143H57.4054H14.5946H14.3446V8.57143V46.0114C14.3446 46.2854 14.2348 46.5486 14.0386 46.743C13.8424 46.9375 13.5758 47.0471 13.2973 47.0471C13.0188 47.0471 12.7522 46.9375 12.556 46.743C12.3598 46.5486 12.25 46.2854 12.25 46.0114V7.28571C12.25 7.01175 12.3598 6.74856 12.556 6.55414C12.7522 6.35966 13.0188 6.25 13.2973 6.25H58.7027C58.9812 6.25 59.2478 6.35966 59.444 6.55414C59.6402 6.74855 59.75 7.01175 59.75 7.28571V49.7143C59.75 49.9882 59.6402 50.2514 59.444 50.4459C59.2478 50.6403 58.9812 50.75 58.7027 50.75H43.9005C43.6221 50.75 43.3554 50.6403 43.1592 50.4459C42.963 50.2514 42.8532 49.9882 42.8532 49.7143C42.8532 49.4403 42.963 49.1771 43.1592 48.9827C43.3554 48.7882 43.6221 48.6786 43.9005 48.6786H57.4054Z" fill="#6C4624" stroke="#F5EBE2" stroke-width="0.5"/>
<path d="M31.55 16.4V16.65H31.8H40.2H40.45V16.4V8.6V8.35H40.2H31.8H31.55V8.6V16.4ZM41.6 18.75H30.4C30.0893 18.75 29.7946 18.6352 29.5802 18.436C29.3663 18.2375 29.25 17.9722 29.25 17.7V7.3C29.25 7.02775 29.3663 6.76255 29.5802 6.56396C29.7946 6.36479 30.0893 6.25 30.4 6.25H41.6C41.9107 6.25 42.2053 6.36479 42.4198 6.56396C42.6337 6.76255 42.75 7.02775 42.75 7.3V17.7C42.75 17.9722 42.6337 18.2375 42.4198 18.436C42.2053 18.6352 41.9107 18.75 41.6 18.75Z" fill="#6C4624" stroke="#F5EBE2" stroke-width="0.5"/>
</svg>
