<svg width="68" height="68" viewBox="0 0 68 68" fill="none" xmlns="http://www.w3.org/2000/svg">
<path d="M47.101 4.90515C46.9429 4.7571 46.7345 4.67474 46.5179 4.6748H21.482C21.2653 4.6748 21.057 4.7581 20.8989 4.90515L10.4669 14.7244C10.2969 14.8859 10.2 15.1094 10.2 15.344V25.5891C10.2 40.1776 18.4892 53.5311 33.5409 63.1905C33.6779 63.2784 33.8372 63.3251 34 63.3251C34.1627 63.3251 34.322 63.2784 34.459 63.1905C49.5107 53.5311 57.7999 40.1776 57.7999 25.5891V15.344C57.7999 15.1094 57.703 14.885 57.533 14.7244L47.101 4.90515ZM56.0999 25.5891C56.0999 39.4305 48.257 52.1516 34 61.4625C19.7429 52.1516 11.9 39.4305 11.9 25.5891V15.7104L21.8195 6.3748H46.1805L56.0999 15.7104V25.5891Z" fill="#6C4624"/>
<path d="M43.1519 26.2361H41.593V20.3439C41.593 16.1568 38.187 12.75 33.9999 12.75C29.8128 12.75 26.4069 16.1568 26.4069 20.3439V26.2361H24.848C24.3672 26.2368 23.9063 26.4281 23.5664 26.7682C23.2265 27.1082 23.0354 27.5692 23.0349 28.05V41.5361C23.0349 42.5366 23.8484 43.35 24.848 43.35H43.1519C43.6327 43.3493 44.0935 43.158 44.4334 42.8179C44.7733 42.4779 44.9645 42.0169 44.9649 41.5361V28.05C44.9645 27.5692 44.7733 27.1082 44.4334 26.7682C44.0935 26.4281 43.6327 26.2368 43.1519 26.2361ZM28.1069 20.3439C28.1069 17.0935 30.7504 14.45 33.9999 14.45C37.2495 14.45 39.893 17.0935 39.893 20.3439V26.2361H28.1069V20.3439ZM43.2649 41.5361C43.2649 41.599 43.2139 41.65 43.1519 41.65H24.848C24.833 41.65 24.8183 41.647 24.8045 41.6413C24.7907 41.6356 24.7782 41.6272 24.7677 41.6166C24.7572 41.606 24.7489 41.5934 24.7433 41.5796C24.7376 41.5658 24.7348 41.551 24.7349 41.5361V28.05C24.7349 27.9871 24.7859 27.9361 24.848 27.9361H43.1519C43.2139 27.9361 43.2649 27.9871 43.2649 28.05V41.5361Z" fill="#6C4624"/>
<path d="M33.9999 32.5659C33.7745 32.5659 33.5583 32.6555 33.3989 32.8149C33.2395 32.9743 33.1499 33.1905 33.1499 33.4159V36.1699C33.1499 36.3954 33.2395 36.6116 33.3989 36.771C33.5583 36.9304 33.7745 37.0199 33.9999 37.0199C34.2253 37.0199 34.4415 36.9304 34.6009 36.771C34.7603 36.6116 34.8499 36.3954 34.8499 36.1699V33.4159C34.8499 33.1905 34.7603 32.9743 34.6009 32.8149C34.4415 32.6555 34.2253 32.5659 33.9999 32.5659Z" fill="#6C4624"/>
</svg>
