<svg width="34" height="35" viewBox="0 0 34 35" fill="none" xmlns="http://www.w3.org/2000/svg">
<path fill-rule="evenodd" clip-rule="evenodd" d="M7.24811 0.000329222C7.06103 0.00571831 6.88332 0.0841579 6.75238 0.219073L0.971289 6.05128C0.959874 6.06162 0.948773 6.07236 0.938033 6.08341C0.932128 6.09011 0.926355 6.09688 0.920699 6.10379C0.918751 6.10669 0.916827 6.10958 0.914921 6.11251C0.84895 6.19328 0.800995 6.28742 0.77431 6.38857C0.747626 6.48971 0.742845 6.59553 0.760285 6.6987V29.8963C0.760285 30.0896 0.836408 30.2751 0.971928 30.4118C1.10745 30.5485 1.29127 30.6253 1.48292 30.6253H18.9707C19.3378 31.3573 19.8205 32.0455 20.4261 32.6564C21.9198 34.1578 23.9425 35.0005 26.051 35C28.1595 34.9995 30.1818 34.1556 31.6747 32.6534C33.1637 31.1481 34 29.1083 34 26.9816C34 24.8549 33.1637 22.8152 31.6747 21.3098V21.3069C31.4949 21.1274 31.3068 20.9566 31.111 20.7951V0.735229C31.1103 0.542385 31.0338 0.357742 30.8983 0.221653C30.7629 0.0855646 30.5795 0.00913793 30.3884 0.00913948V0.00620272H7.36517C7.32685 0.00114237 7.28675 -0.000849246 7.24811 0.000329222ZM7.56316 1.46426H28.6439L24.3081 5.83841H3.22734L7.56316 1.46426ZM29.6657 2.49506V19.8386C28.3278 19.1517 26.8251 18.8592 25.3299 18.9944V6.86921L29.6657 2.49506ZM2.20556 7.29647H23.8847V19.2685C22.5773 19.6368 21.3861 20.3388 20.4261 21.3069C19.4271 22.3176 18.7132 23.5787 18.3581 24.9603C18.003 26.3419 18.0194 27.7941 18.4056 29.1673H2.2041V7.29647H2.20556ZM26.0526 20.4102C26.9074 20.41 27.7539 20.5801 28.5433 20.9109C29.3328 21.2417 30.0497 21.7266 30.6529 22.3377C31.2587 22.9465 31.7394 23.67 32.0674 24.4667C32.3954 25.2633 32.5643 26.1175 32.5643 26.9802C32.5643 27.8428 32.3954 28.697 32.0674 29.4937C31.7394 30.2903 31.2587 31.0139 30.6529 31.6226C30.0494 32.2339 29.3322 32.7189 28.5425 33.05C27.7528 33.3811 26.9061 33.5516 26.051 33.5519C25.1958 33.5522 24.349 33.3822 23.5591 33.0516C22.7692 32.721 22.0518 32.2364 21.4479 31.6255C20.8423 31.0161 20.3618 30.2923 20.0339 29.4953C19.7061 28.6983 19.5373 27.8438 19.5373 26.9809C19.5373 26.118 19.7061 25.2636 20.0339 24.4666C20.3618 23.6696 20.8423 22.9456 21.4479 22.3363C22.0518 21.7251 22.7695 21.2404 23.5597 20.9101C24.35 20.5798 25.1972 20.409 26.0526 20.4102ZM3.65083 20.4189V21.877H12.3225V20.4189H3.65083ZM26.0526 21.877C23.8962 21.877 22.1503 23.6952 22.1503 25.8954C22.1503 27.2324 23.0493 28.5534 23.8702 29.7286C24.6911 30.9038 25.5077 31.8384 25.5077 31.8384C25.5755 31.9164 25.6591 31.979 25.7528 32.0219C25.8465 32.0647 25.9482 32.0869 26.0511 32.0869C26.154 32.0869 26.2557 32.0647 26.3494 32.0219C26.4431 31.979 26.5267 31.9164 26.5945 31.8384C26.5945 31.8384 27.4111 30.9038 28.2306 29.7286C29.0515 28.5534 29.9505 27.2324 29.9505 25.8954C29.9505 23.6937 28.2075 21.877 26.0526 21.877ZM3.65083 23.335V24.7931H9.43192V23.335H3.65083ZM26.0526 23.335C27.4068 23.335 28.5052 24.4635 28.5052 25.8954C28.5052 26.3751 27.8172 27.788 27.0483 28.8888C26.5512 29.6003 26.3402 29.822 26.0497 30.1719C25.7592 29.822 25.5496 29.6003 25.0524 28.8888C24.285 27.788 23.5956 26.3751 23.5956 25.8954C23.5956 24.4635 24.6983 23.335 26.0526 23.335ZM26.0526 24.7931C25.8609 24.7931 25.6771 24.8699 25.5416 25.0066C25.406 25.1433 25.3299 25.3288 25.3299 25.5221C25.3299 25.7155 25.406 25.9009 25.5416 26.0377C25.6771 26.1744 25.8609 26.2511 26.0526 26.2511C26.2442 26.2511 26.428 26.1744 26.5635 26.0377C26.6991 25.9009 26.7752 25.7155 26.7752 25.5221C26.7752 25.3288 26.6991 25.1433 26.5635 25.0066C26.428 24.8699 26.2442 24.7931 26.0526 24.7931Z" fill="#6C4624"/>
</svg>
