<svg width="30" height="35" viewBox="0 0 30 35" fill="none" xmlns="http://www.w3.org/2000/svg">
<path d="M14.8876 17.5623C19.6477 17.5623 23.5066 13.7034 23.5066 8.94325C23.5066 4.18309 19.6477 0.324219 14.8876 0.324219C10.1274 0.324219 6.26855 4.18309 6.26855 8.94325C6.26855 13.7034 10.1274 17.5623 14.8876 17.5623Z" stroke="#6C4624" stroke-width="1.5" stroke-linecap="round" stroke-linejoin="round"/>
<path fill-rule="evenodd" clip-rule="evenodd" d="M1.21585 29.5499C1.21356 28.944 1.34907 28.3455 1.61216 27.7997C2.43774 26.1485 4.76589 25.2734 6.69775 24.8771C8.09101 24.5798 9.50351 24.3812 10.9247 24.2827C13.556 24.0516 16.2025 24.0516 18.8338 24.2827C20.2549 24.3823 21.6674 24.5809 23.0608 24.8771C24.9927 25.2734 27.3208 26.066 28.1464 27.7997C28.6755 28.9123 28.6755 30.2041 28.1464 31.3167C27.3208 33.0504 24.9927 33.843 23.0608 34.2227C21.6692 34.5324 20.2562 34.7366 18.8338 34.8337C16.6922 35.0152 14.5405 35.0483 12.3943 34.9327C11.8989 34.9327 11.4201 34.9327 10.9247 34.8337C9.50771 34.7378 8.1001 34.5336 6.71426 34.2227C4.76589 33.843 2.45425 33.0504 1.61216 31.3167C1.35042 30.7645 1.21504 30.161 1.21585 29.5499Z" stroke="#6C4624" stroke-width="1.5" stroke-linecap="round" stroke-linejoin="round"/>
</svg>
