<svg width="68" height="68" viewBox="0 0 68 68" fill="none" xmlns="http://www.w3.org/2000/svg">
<g clip-path="url(#clip0_369_274)">
<path d="M55.902 0C58.2687 1.95478 60.6425 3.90068 62.9985 5.86966C63.6484 6.41295 63.6608 7.15332 63.0163 7.69838C60.7899 9.58392 58.5457 11.4481 56.2962 13.307C55.7476 13.7598 55.0534 13.6817 54.6397 13.1828C54.2296 12.6874 54.2953 12.0074 54.8474 11.5387C56.2252 10.3704 57.6189 9.2235 59.0925 7.99488H26.0264C25.9874 8.20794 26.2128 8.24522 26.3229 8.33932C27.5373 9.36731 28.7642 10.3811 29.9839 11.4038C30.6586 11.9684 30.7882 12.6395 30.3408 13.1792C29.8845 13.7296 29.1974 13.7332 28.5316 13.1792C26.4241 11.4268 24.3167 9.67446 22.2145 7.91499C21.2469 7.10715 21.2611 6.46799 22.2394 5.65483C24.2439 3.9859 26.2466 2.31342 28.2528 0.644491C28.5209 0.424334 28.8032 0.216606 29.0802 0C29.3465 0 29.6111 0 29.8774 0C30.9072 0.411906 31.074 1.46475 30.1916 2.25128C29.1033 3.22245 27.9528 4.12084 26.8431 5.06715C26.7153 5.17546 26.5342 5.23937 26.4792 5.51812C37.1568 5.51812 47.8131 5.51812 58.599 5.51812C57.9971 4.87718 57.3917 4.4493 56.8324 3.9717C56.2269 3.45504 55.6144 2.94903 55.0001 2.44303C54.6699 2.17138 54.3929 1.86068 54.2846 1.43279C54.1195 0.788303 54.4071 0.289399 55.1066 0C55.373 0 55.6375 0 55.9038 0L55.902 0Z" fill="#6C4724" stroke="#F5EBE2"/>
<path d="M1.08748e-05 29.0804C1.95479 26.7137 3.90247 24.3417 5.87145 21.9875C6.40586 21.3501 7.16931 21.343 7.70904 21.9804C9.59458 24.2068 11.4606 26.451 13.3159 28.7005C13.7722 29.2526 13.6817 29.9433 13.1704 30.3516C12.6732 30.7493 11.9914 30.6712 11.5281 30.1226C10.3634 28.7466 9.21641 27.3582 7.98779 25.8881V59.0927C8.28962 58.7323 8.53286 58.4447 8.77432 58.1553C9.6656 57.0847 10.5516 56.0123 11.4482 54.9453C11.9701 54.3256 12.6643 54.2102 13.1828 54.6434C13.719 55.0891 13.7456 55.7726 13.2218 56.4047C11.4304 58.5654 9.63364 60.7226 7.828 62.8709C7.18173 63.6397 6.45557 63.6965 5.86612 62.997C3.98769 60.7652 2.13056 58.5139 0.266329 56.2698C0.168679 56.1526 0.0852328 56.0247 -0.00354004 55.9022C-0.00354004 55.6359 -0.00354004 55.3714 -0.00354004 55.1051C0.415468 54.0593 1.44168 53.8889 2.24064 54.7819C3.22779 55.8863 4.14393 57.0545 5.1009 58.1855C5.19677 58.2991 5.25891 58.4518 5.51458 58.521C5.51458 47.831 5.51458 37.1676 5.51458 26.348C4.64106 27.2872 3.96461 28.1785 3.23667 29.0236C2.86205 29.4586 2.53181 29.938 2.1128 30.3321C1.35468 31.0476 0.381734 30.8292 1.08748e-05 29.8758C1.08748e-05 29.6113 1.08748e-05 29.345 1.08748e-05 29.0804Z" fill="#6C4724" stroke="#F5EBE2"/>
<path d="M18.589 0C19.1359 0.392376 19.2779 0.923238 19.2726 1.58548C19.2459 5.14527 19.2548 8.70684 19.2655 12.2684C19.2655 12.888 19.0773 13.3568 18.4541 13.5467C17.6605 13.7882 17 13.2414 16.9982 12.3376C16.9929 9.55018 16.9964 6.76449 16.9964 3.97702C16.9964 3.18162 17.0391 2.38089 16.984 1.58903C16.9361 0.916136 17.1403 0.404804 17.6605 0H18.5908H18.589Z" fill="#6C4724" stroke="#F5EBE2"/>
<path d="M67.3218 -0.000177668C67.8402 0.404626 68.0071 0.919509 68 1.58886C67.968 5.17173 67.9805 8.7546 67.9893 12.3375C67.9893 12.9145 67.7745 13.3353 67.2365 13.5288C66.7607 13.701 66.324 13.5874 65.9777 13.195C65.7753 12.966 65.7168 12.6979 65.7185 12.3996C65.7221 8.66228 65.7292 4.92494 65.7097 1.18583C65.7061 0.621232 66.0594 0.333608 66.3896 -0.00195312H67.32L67.3218 -0.000177668Z" fill="#6C4724" stroke="#F5EBE2"/>
<path d="M0 17.6604C0.404804 17.1402 0.919687 16.975 1.58903 16.9822C5.17191 17.0141 8.75478 17.0017 12.3376 16.9928C12.9147 16.9928 13.3355 17.2059 13.529 17.7438C13.7012 18.2179 13.5876 18.6564 13.1934 19.0026C12.9644 19.2032 12.6981 19.2636 12.398 19.2636C8.66068 19.2601 4.92334 19.253 1.18423 19.2725C0.623185 19.2725 0.335561 18.9174 0 18.5889V17.6586V17.6604Z" fill="#6C4724" stroke="#F5EBE2"/>
<path d="M0 66.3912C0.390601 65.8426 0.923238 65.7023 1.58548 65.7077C5.14705 65.7343 8.70684 65.7254 12.2684 65.7148C12.888 65.713 13.3568 65.9012 13.5467 66.5262C13.7882 67.3198 13.2396 67.982 12.3377 67.9838C9.63896 67.9891 6.94026 67.9856 4.24334 67.9856C3.35916 67.9856 2.47144 67.943 1.59081 67.9998C0.917911 68.0424 0.40658 67.84 0.00177546 67.3216V66.3912H0Z" fill="#6C4724" stroke="#F5EBE2"/>
<path d="M63.2649 16.9966H21.7138C18.9299 16.9966 16.9965 18.9158 16.9965 21.6838V63.3005C16.9965 66.0649 18.9317 67.9841 21.7174 67.9841C28.6417 67.9841 35.566 67.9841 42.492 67.9841C49.4181 67.9841 56.298 67.9841 63.201 67.9841C66.0754 67.9841 67.984 66.088 67.984 63.2313C67.9858 49.4022 67.9858 35.575 67.984 21.7459C67.984 18.9176 66.0754 16.9966 63.2649 16.9966ZM63.865 19.3207C63.8312 19.6296 63.6129 19.7326 63.4673 19.8781C56.6335 26.719 49.7927 33.5563 42.959 40.3989C42.6784 40.6776 42.5116 40.9031 42.0925 40.4841C35.1931 33.5509 28.2724 26.6373 21.357 19.7201C21.2664 19.6296 21.1794 19.5337 20.9806 19.3207H63.865ZM19.3117 63.9965V21.1511C19.5869 21.0908 19.6579 21.295 19.7679 21.4033C26.6691 28.2956 33.565 35.1932 40.468 42.0838C40.7325 42.3483 40.8693 42.5028 40.5142 42.8561C33.5579 49.7875 26.6177 56.7349 19.6738 63.6769C19.5993 63.7515 19.5158 63.8189 19.3117 63.9965ZM21.1279 65.6548C21.1191 65.3867 21.3055 65.3085 21.4209 65.1931C28.2972 58.3097 35.1807 51.4298 42.057 44.5428C42.3411 44.2569 42.5062 44.1114 42.8773 44.4842C49.7767 51.4103 56.6921 58.3186 63.604 65.2322C63.707 65.3352 63.794 65.4541 63.9662 65.6548H21.1279ZM65.6369 63.9716C65.4238 63.7763 65.3102 63.6787 65.2019 63.5721C58.3167 56.6869 51.4332 49.7999 44.5427 42.9218C44.2533 42.6324 44.1219 42.4673 44.4912 42.1015C51.451 35.1666 58.3948 28.2157 65.3439 21.2683C65.4025 21.208 65.4718 21.1583 65.6369 21.0198V63.9716Z" fill="#6C4724" stroke="#F5EBE2"/>
</g>
<defs>
<clipPath id="clip0_369_274">
<rect width="68" height="68.0035" fill="white"/>
</clipPath>
</defs>
</svg>
