<svg width="53" height="33" viewBox="0 0 53 33" fill="none" xmlns="http://www.w3.org/2000/svg">
<rect width="53" height="33" fill="#FFCC00"/>
<g clip-path="url(#clip0_33_325)">
<path d="M5 18.55H10.3352L10.0286 18.97H5V18.55Z" fill="#D40511"/>
<path d="M48.9998 18.97H42.4688L42.806 18.55H49.0304V18.97H48.9998Z" fill="#D40511"/>
<path d="M5 17.77H10.9484L10.6111 18.19H5L5 17.77Z" fill="#D40511"/>
<path d="M5 16.99H11.5617L11.2244 17.41H5L5 16.99Z" fill="#D40511"/>
<path d="M48.9998 18.19H43.082L43.4193 17.77H49.0305V18.19H48.9998Z" fill="#D40511"/>
<path d="M44.0023 16.99H49.0002V17.41H43.665L44.0023 16.99Z" fill="#D40511"/>
<path d="M10.7646 18.97L13.5856 15.28H17.081C17.4796 15.28 17.4796 15.43 17.265 15.67C17.081 15.91 16.7437 16.36 16.5598 16.6C16.4678 16.75 16.2838 16.96 16.8664 16.96H21.5577C21.1897 17.5 19.9019 19 17.6329 19C15.7932 18.97 10.7646 18.97 10.7646 18.97Z" fill="#D40511"/>
<path d="M26.9229 16.99L25.3898 19H21.373L22.9061 16.99H26.9229Z" fill="#D40511"/>
<path d="M32.7797 16.99L31.2466 19H27.1992L28.7323 16.99H32.7797Z" fill="#D40511"/>
<path d="M34.0979 16.99C34.0979 16.99 33.7913 17.38 33.6687 17.56C33.1474 18.22 33.6073 19 35.2631 19H41.7634L43.2965 16.99H34.0979Z" fill="#D40511"/>
<path d="M12.7571 13L11.3467 14.83H19.0122C19.4108 14.83 19.4108 14.98 19.1962 15.22C19.0122 15.46 18.6749 15.91 18.4909 16.15C18.3989 16.27 18.215 16.51 18.7976 16.51H21.9251C21.9251 16.51 22.4463 15.85 22.8449 15.28C23.4275 14.53 22.9063 12.97 20.8519 12.97C19.0122 13 12.7571 13 12.7571 13Z" fill="#D40511"/>
<path d="M33.1173 16.51H23.2441L25.9424 13H29.9898L28.4567 15.01H30.2657L31.7988 13H35.8462L33.1173 16.51Z" fill="#D40511"/>
<path d="M41.4265 13L38.7282 16.51H34.4355L37.1338 13H41.4265Z" fill="#D40511"/>
</g>
<defs>
<clipPath id="clip0_33_325">
<rect width="44" height="6" fill="white" transform="translate(5 13)"/>
</clipPath>
</defs>
</svg>
