<svg width="84" height="84" viewBox="0 0 84 84" fill="none" xmlns="http://www.w3.org/2000/svg">
<path d="M22.1644 41.415C22.1662 24.9453 35.4645 11.6559 51.936 11.6665C68.4234 11.6772 81.6809 25.0057 81.6667 41.5571C81.6525 57.9966 68.2937 71.1812 51.6659 71.1687C35.4343 71.1563 22.1644 57.7727 22.1644 41.415ZM25.0018 41.4007C24.9947 56.1755 37.0884 68.3119 51.8347 68.3332C66.6876 68.3527 78.8204 56.2412 78.8311 41.3848C78.8418 26.6402 66.7018 14.5003 51.9502 14.5038C37.1133 14.5074 25.0089 26.5887 25.0018 41.4025V41.4007Z" fill="#6C4724" stroke="#F5EBE2"/>
<path d="M15.2585 57.0001C17.586 57.0001 19.9116 56.9966 22.2391 57.0001C23.2802 57.0019 23.9056 57.5225 23.9251 58.3841C23.9447 59.2814 23.3051 59.8303 22.2142 59.8321C17.5611 59.8357 12.9062 59.8357 8.25317 59.8321C7.19605 59.8321 6.59909 59.3275 6.5831 58.4481C6.56534 57.5207 7.16407 57.0037 8.27804 57.0019C10.6055 56.9983 12.9311 57.0019 15.2585 57.0019V57.0001Z" fill="#6C4724" stroke="#F5EBE2"/>
<path d="M10.7636 42.8347C8.52145 42.8347 6.28108 42.8382 4.03893 42.8347C2.91785 42.8329 2.31912 42.3212 2.33333 41.3938C2.34577 40.5108 2.94273 40.0044 3.99806 40.0027C8.53922 39.9991 13.0821 39.9991 17.6233 40.0027C18.7444 40.0027 19.3449 40.5161 19.3307 41.4418C19.3165 42.3514 18.7142 42.8329 17.5753 42.8347C15.3047 42.8364 13.0342 42.8347 10.7618 42.8347H10.7636Z" fill="#6C4724" stroke="#F5EBE2"/>
<path d="M13.5725 34.3352C11.7727 34.3352 9.97299 34.3405 8.17323 34.3334C7.19073 34.3281 6.60266 33.804 6.58489 32.953C6.56712 32.054 7.16053 31.5068 8.19277 31.505C11.7337 31.4996 15.2745 31.4996 18.8154 31.505C19.8104 31.505 20.3825 32.0202 20.4002 32.8837C20.418 33.7862 19.8299 34.3281 18.7959 34.3334C17.0548 34.3405 15.3136 34.3352 13.5725 34.3352Z" fill="#6C4724" stroke="#F5EBE2"/>
<path d="M17.3852 25.8359C15.7365 25.8359 14.0877 25.8412 12.4408 25.8341C11.4121 25.8288 10.8169 25.2833 10.8329 24.3879C10.8489 23.5369 11.4352 23.0056 12.4106 23.0039C15.7081 22.9968 19.0038 22.9968 22.3013 23.0039C23.314 23.0056 23.9447 23.5795 23.9251 24.4483C23.9056 25.2833 23.2926 25.8288 22.3297 25.8341C20.6809 25.843 19.0322 25.8359 17.3852 25.8359Z" fill="#6C4724" stroke="#F5EBE2"/>
<path d="M25.0853 14.5006C26.4995 14.5006 27.9119 14.4917 29.3262 14.5041C30.3051 14.513 30.8701 15.0478 30.8665 15.9237C30.863 16.796 30.2945 17.329 29.312 17.3308C26.5137 17.3397 23.7172 17.3379 20.919 17.3308C19.9401 17.329 19.352 16.8031 19.3324 15.9521C19.3129 15.0478 19.8992 14.5077 20.9332 14.5006C22.3172 14.4917 23.7013 14.4988 25.0853 14.4988V14.5006Z" fill="#6C4724" stroke="#F5EBE2"/>
<path d="M24.9964 68.3351C23.6426 68.3351 22.287 68.3422 20.9332 68.3333C19.9081 68.3262 19.3129 67.7754 19.3342 66.88C19.3538 66.029 19.9418 65.5066 20.9226 65.5048C23.7208 65.4977 26.5173 65.4977 29.3155 65.5048C30.2998 65.5084 30.8665 66.0378 30.8701 66.912C30.8736 67.7896 30.3069 68.3244 29.3279 68.3315C27.8853 68.3439 26.4426 68.3351 25 68.3351H24.9964Z" fill="#6C4724" stroke="#F5EBE2"/>
<path d="M15.6086 51.3342C14.5177 51.3342 13.425 51.3466 12.3342 51.3306C11.4281 51.3182 10.8507 50.771 10.8329 49.9519C10.8151 49.0867 11.3997 48.5093 12.3519 48.504C14.5355 48.4915 16.719 48.4915 18.9025 48.504C19.821 48.5093 20.3825 49.0476 20.3985 49.8809C20.4162 50.7532 19.8406 51.3182 18.883 51.3306C17.7921 51.3448 16.6994 51.3342 15.6086 51.3342Z" fill="#6C4724" stroke="#F5EBE2"/>
<path d="M50.4987 30.7052C50.4987 28.6994 50.4951 26.6917 50.4987 24.6859C50.5004 23.6181 50.9926 23.0229 51.872 23.0016C52.7994 22.9785 53.3289 23.5826 53.3289 24.693C53.3324 28.6763 53.3413 32.6596 53.3165 36.6428C53.3129 37.1812 53.4337 37.485 53.9525 37.7177C54.7218 38.0659 55.3063 38.6753 55.6563 39.4482C55.8589 39.8941 56.1182 40.0203 56.5926 40.0132C58.7175 39.9847 60.8406 39.999 62.9655 40.0025C64.0795 40.0043 64.6835 40.5266 64.6622 41.454C64.6427 42.3335 64.0457 42.8327 62.9815 42.8345C60.8566 42.8398 58.7317 42.8487 56.6086 42.8256C56.1502 42.8203 55.8926 42.9251 55.6616 43.3711C54.7733 45.0802 52.97 45.9561 51.1667 45.6345C49.4362 45.3254 48.0025 43.8916 47.6951 42.1665C47.3735 40.3561 48.2494 38.5581 49.9568 37.6715C50.4009 37.4406 50.5111 37.1883 50.5058 36.7263C50.4827 34.7205 50.4951 32.7129 50.4951 30.707L50.4987 30.7052ZM53.3236 41.4398C53.3431 40.7221 52.6662 40.022 51.9395 40.0061C51.2218 39.9901 50.5218 40.667 50.5058 41.3919C50.4898 42.115 51.1631 42.8132 51.8898 42.8256C52.6093 42.8381 53.304 42.1665 53.3236 41.4398Z" fill="#6C4724" stroke="#F5EBE2"/>
</svg>
