<svg width="81" height="52" viewBox="0 0 81 52" fill="none" xmlns="http://www.w3.org/2000/svg">
<g clip-path="url(#clip0_371_300)">
<path d="M81 35.7159C80.565 36.2174 80.2377 36.8214 79.5662 37.0889C79.3043 37.1934 79.4205 37.4547 79.4183 37.6448C79.4078 38.8172 79.4162 39.9897 79.412 41.1621C79.4078 43.0074 78.5357 43.8622 76.6542 43.8684C75.4695 43.8726 74.2806 43.8078 73.1023 43.8914C72.3653 43.9437 72.2386 43.626 72.171 43.0346C71.9029 40.673 70.8175 38.7295 68.9254 37.2749C66.2309 35.2039 63.2217 34.7775 60.1006 36.0712C56.95 37.3794 55.1424 39.8204 54.7665 43.2143C54.7053 43.7639 54.5131 43.881 53.9937 43.8789C46.2269 43.8643 38.4622 43.8622 30.6954 43.881C30.1147 43.881 29.9796 43.743 29.9416 43.1621C29.6459 38.8507 26.035 35.486 21.6638 35.3899C17.5185 35.3 14.3468 37.206 12.9911 40.6083C12.6511 41.4609 12.4273 42.3449 12.4294 43.2603C12.4294 43.7305 12.3006 43.8873 11.8064 43.8789C10.1213 43.8475 8.43617 43.8789 6.75104 43.8622C5.34044 43.8475 4.52111 43.0241 4.51688 41.6093C4.5021 36.6333 4.5021 31.6574 4.49365 26.6793C4.48732 21.7807 4.47465 16.882 4.47465 11.9855C4.47465 11.5027 4.56123 11.1161 3.79257 11.1224C3.14429 11.1265 3.55184 10.4787 3.46738 10.1339C3.3998 9.85381 3.41036 9.51735 3.87071 9.59049C4.42397 9.68035 4.44931 9.37106 4.44086 8.95099C4.41975 7.91024 4.42397 6.8674 4.43664 5.82456C4.45776 4.12341 5.25386 3.34389 6.95377 3.3418C21.4864 3.3418 36.0169 3.3418 50.5495 3.3418C52.2579 3.3418 53.0307 4.11923 53.0328 5.82665C53.0328 7.28537 53.0582 8.74619 53.0202 10.2028C53.0054 10.7357 53.1363 10.9029 53.6959 10.9113C57.3533 10.9761 61.0108 11.0994 64.6682 11.16C66.0091 11.183 67.0228 11.6783 67.8167 12.7566C71.4045 17.6365 74.9986 22.5142 78.6434 27.3543C79.2705 28.1882 79.5282 29.02 79.4141 30.0126C79.3508 30.5581 79.431 30.9928 80.0392 31.254C80.527 31.463 80.6938 32.021 81.0021 32.4243V35.7075L81 35.7159ZM28.7464 4.90919C21.5328 4.90919 14.3193 4.90919 7.10581 4.90919C6.14077 4.90919 6.07531 4.97607 6.07108 5.93323C6.06686 6.87158 6.11332 7.81202 6.0563 8.74619C6.01407 9.40867 6.17244 9.61348 6.89675 9.6093C11.9521 9.57168 17.0054 9.59885 22.0608 9.57795C22.6436 9.57586 22.8928 9.672 22.8611 10.324C22.8336 10.8925 22.8231 11.1871 22.084 11.1809C17.0286 11.1433 11.9732 11.1767 6.91998 11.1433C6.22946 11.1391 6.06686 11.2958 6.06897 11.9834C6.10065 21.7013 6.09642 31.4212 6.10065 41.1391C6.10065 41.2958 6.10276 41.4526 6.10065 41.6072C6.0922 42.0503 6.28859 42.2927 6.75527 42.2927C7.99272 42.2927 9.23016 42.2822 10.4676 42.299C10.8013 42.3031 10.9427 42.1757 10.9892 41.8684C11.6945 37.2352 16.1037 33.8538 20.8888 33.7744C25.9019 33.6929 30.2161 36.7963 31.2888 41.4923C31.4578 42.2279 31.7365 42.3031 32.3594 42.301C38.4664 42.2843 44.5755 42.2843 50.6825 42.301C51.2464 42.301 51.4808 42.2342 51.4808 41.5696C51.4512 29.7138 51.4533 17.8601 51.447 6.00428C51.447 4.98025 51.3667 4.90502 50.3109 4.90502C43.1227 4.90502 35.9366 4.90502 28.7485 4.90502L28.7464 4.90919ZM67.7576 15.3982C67.4029 14.9113 67.1051 14.5769 66.8918 14.1945C66.2752 13.091 65.3524 12.7211 64.0896 12.7211C60.6687 12.7211 57.2457 12.6271 53.8247 12.5288C53.1954 12.51 53.0455 12.6751 53.0476 13.2875C53.0687 22.7462 53.0624 32.207 53.0624 41.6657C53.0624 41.8496 53.0835 42.0315 53.0962 42.2363C53.3517 42.1192 53.3221 41.9458 53.3538 41.8016C54.5828 36.2216 60.4153 32.6563 65.9944 34.1234C69.9918 35.1746 72.5152 37.7368 73.5648 41.6929C73.6872 42.1568 73.8646 42.3219 74.3503 42.2969C75.1633 42.253 75.9826 42.2676 76.7977 42.2906C77.4988 42.3094 77.8219 41.9813 77.824 41.3104C77.8282 40.1109 77.8135 38.9134 77.8325 37.7138C77.8388 37.3982 77.7332 37.2749 77.4334 37.1725C76.0481 36.696 75.6004 36.0712 75.5814 34.6375C75.573 34.0649 75.5709 33.4902 75.611 32.9196C75.6807 31.9479 76.2867 31.0827 77.2137 30.9322C77.9592 30.811 77.8367 30.3846 77.8198 29.9416C77.7945 29.3355 77.3046 29.6239 77.0448 29.6239C72.0676 29.6051 67.0924 29.6114 62.1152 29.6093C60.4554 29.6093 59.6086 28.8235 59.596 27.1997C59.5748 24.0732 59.5727 20.9447 59.596 17.8183C59.6086 16.2028 60.4702 15.4024 62.1173 15.3982C63.9545 15.394 65.7895 15.3982 67.7597 15.3982H67.7576ZM77.1377 28.0503C74.4179 24.3825 71.7909 20.8423 69.1682 17.3021C69.0415 17.1328 68.9338 16.9803 68.6762 16.9823C66.4125 16.9907 64.1466 16.9823 61.8829 16.9928C61.4542 16.9928 61.2135 17.2039 61.2156 17.6741C61.2241 20.8799 61.2241 24.0837 61.2156 27.2896C61.2156 27.8141 61.4585 28.0503 61.9801 28.0503C66.9784 28.0503 71.9768 28.0503 77.1377 28.0503ZM77.1884 34.0106C77.1884 34.2969 77.1947 34.5832 77.1884 34.8695C77.1757 35.394 77.4883 35.6114 77.9592 35.6762C79.0277 35.8225 79.4183 35.4881 79.4226 34.4285C79.4226 34.1422 79.4226 33.8559 79.4226 33.5696C79.4183 32.5748 79.26 32.4097 78.3055 32.4055C77.2919 32.4014 77.1926 32.5038 77.1884 33.5403C77.1884 33.6971 77.1884 33.8517 77.1884 34.0085V34.0106Z" fill="#6C4724"/>
<path d="M55.3494 44.0481C55.3705 39.6531 59.0047 36.1422 63.5068 36.1652C67.9984 36.1881 71.6811 39.789 71.6305 44.1108C71.5798 48.4933 67.9266 52.0147 63.4456 52.0001C58.9498 51.9854 55.3261 48.4285 55.3473 44.0502L55.3494 44.0481ZM69.9918 44.0732C69.9918 40.5643 67.0946 37.743 63.4899 37.7409C59.8684 37.7388 56.969 40.5371 56.9627 44.0439C56.9564 47.6009 59.8536 50.4285 63.5005 50.4222C67.0924 50.4159 69.9939 47.5779 69.9918 44.0711V44.0732Z" fill="#6C4724"/>
<path d="M21.1507 51.998C16.6549 52.0084 13.0333 48.4828 13.0207 44.0858C13.008 39.695 16.6232 36.1652 21.1359 36.1631C25.6232 36.1631 29.2954 39.7159 29.2996 44.069C29.3039 48.4139 25.6316 51.9875 21.1528 51.998H21.1507ZM27.6652 44.0816C27.6715 40.5873 24.7574 37.7451 21.1633 37.7388C17.5418 37.7347 14.6298 40.5372 14.6213 44.0335C14.6129 47.5549 17.4953 50.4076 21.0746 50.4222C24.7194 50.4369 27.6568 47.6114 27.6631 44.0816H27.6652Z" fill="#6C4724"/>
<path d="M24.2759 1.6153C22.0946 1.6153 19.9111 1.57978 17.7318 1.6362C17.0075 1.65501 17.0054 1.3269 17.0117 0.806526C17.0181 0.323768 16.9927 0.012378 17.6854 0.0186476C22.1009 0.0562652 26.5164 0.0583551 30.932 0.0186476C31.6922 0.012378 31.5338 0.421991 31.5486 0.842054C31.5655 1.30182 31.6119 1.6571 30.8982 1.63829C28.6915 1.58396 26.4826 1.61739 24.2738 1.61739L24.2759 1.6153Z" fill="#6C4724"/>
<path d="M44.2567 48.6962C42.0753 48.6962 39.8918 48.6585 37.7126 48.7171C36.9967 48.7359 37.0495 48.3848 37.0622 47.9271C37.0749 47.5008 36.9313 47.1037 37.6851 47.11C42.1007 47.1518 46.5162 47.1497 50.9317 47.11C51.6286 47.1037 51.6117 47.4213 51.5969 47.8999C51.5821 48.3388 51.694 48.7317 50.9571 48.715C48.725 48.6606 46.4887 48.6962 44.2546 48.6962H44.2567Z" fill="#6C4724"/>
<path d="M33.939 48.6957C33.7426 48.6957 33.6117 48.6957 33.4808 48.6957C32.5347 48.6957 32.2623 48.3112 32.5052 47.377C32.5727 47.1178 32.729 47.1325 32.9064 47.1325C33.3794 47.1283 33.8566 47.1743 34.3233 47.1199C34.9885 47.0447 35.1743 47.2328 35.2039 47.9412C35.2588 49.2119 34.336 48.4951 33.939 48.6978V48.6957Z" fill="#6C4724"/>
<path d="M13.9118 1.61537C13.6605 1.61537 13.4704 1.58821 13.2931 1.61955C12.6469 1.73241 12.5519 1.42938 12.5223 0.852573C12.4843 0.148289 12.7102 -0.0753265 13.3881 0.0270769C13.671 0.070964 13.9709 0.0730539 14.2518 0.0270769C15.0246 -0.104585 15.1915 0.204715 15.183 0.944527C15.1703 2.16292 14.2708 1.37295 13.9118 1.61537Z" fill="#6C4724"/>
<path d="M1.0664 11.1641C0.15838 11.162 -0.190048 10.6521 0.101365 9.78895C0.173162 9.57578 0.306198 9.59877 0.456128 9.59668C0.690525 9.59668 0.924922 9.59668 1.15932 9.59668C2.16448 9.60086 2.16659 9.60086 2.13281 10.5789C2.11169 11.2289 2.29752 11.162 1.06429 11.162L1.0664 11.1641Z" fill="#6C4724"/>
<path d="M32.0638 31.9414C27.984 31.9414 23.9064 31.9205 19.8287 31.9602C19.1171 31.9665 19.022 31.7262 19.0411 31.1222C19.0579 30.583 19.0917 30.3197 19.7801 30.3218C27.9904 30.351 36.2006 30.3531 44.4108 30.3218C45.1774 30.3197 45.133 30.6562 45.1626 31.1933C45.1964 31.8181 44.9937 31.9602 44.3792 31.9561C40.274 31.9289 36.1689 31.9414 32.0638 31.9414Z" fill="#6C4724"/>
<path d="M25.203 21.4022C25.9231 21.9434 26.0835 22.7627 26.301 23.5547C26.4045 23.9288 26.5713 24.3092 26.5629 24.6832C26.5544 25.0114 27.2302 25.3896 26.6136 25.6237C25.8386 25.9163 25.2832 25.607 25.0974 24.9299C24.9179 24.2799 24.7933 23.6132 24.5885 22.9737C24.3182 22.1273 23.4144 21.7052 22.5655 21.9413C22.2403 22.0312 22.3501 22.2548 22.348 22.4325C22.3353 23.2141 22.3332 23.9957 22.3459 24.7752C22.3543 25.2935 22.1854 25.6383 21.5962 25.6467C20.9712 25.6529 20.8022 25.3102 20.8064 24.7439C20.8212 22.2966 20.8212 19.8473 20.8064 17.4001C20.8043 16.9905 20.8972 16.8316 21.3513 16.7668C22.1389 16.6519 22.9224 16.6206 23.71 16.6582C25.1185 16.7271 26.1089 17.3792 26.4299 18.4053C26.7783 19.5192 26.413 20.4346 25.2051 21.4001L25.203 21.4022ZM22.3395 19.2977C22.3395 19.6613 22.3459 20.0249 22.3374 20.3865C22.3311 20.6059 22.4008 20.7271 22.6457 20.7146C23.1399 20.6895 23.6382 20.7689 24.1176 20.5662C24.8144 20.2715 25.1713 19.6341 24.9981 18.9466C24.7912 18.1253 23.9613 17.7073 22.7513 17.8912C21.9489 18.0124 22.5021 18.6791 22.3416 19.0657C22.3142 19.1326 22.3374 19.2203 22.3395 19.2977Z" fill="#6C4724"/>
<path d="M27.7433 21.1304C27.7433 19.8284 27.7581 18.5244 27.7349 17.2224C27.7285 16.819 27.8405 16.679 28.2628 16.6874C29.5002 16.7124 30.7377 16.6957 31.9751 16.6978C32.4101 16.6978 32.7839 16.8107 32.7881 17.331C32.7924 17.8744 32.4355 18.0291 31.9477 18.0228C31.1833 18.0144 30.404 17.9246 29.6607 18.0437C28.6429 18.2088 29.3947 19.0468 29.2299 19.5547C29.1455 19.8138 28.9385 20.3906 29.6649 20.3697C30.4019 20.3488 31.1389 20.376 31.8759 20.3613C32.3341 20.3509 32.5917 20.562 32.5833 20.9988C32.577 21.4293 32.3151 21.6424 31.8632 21.6362C31.1262 21.6236 30.3893 21.6445 29.6523 21.6278C29.3207 21.6194 29.1497 21.7156 29.2004 22.0646C29.2046 22.0897 29.2004 22.1168 29.2004 22.1419C29.137 23.5937 29.8332 24.3195 31.2888 24.3195C31.6309 24.3195 31.9751 24.3049 32.3151 24.3258C32.7016 24.3509 32.9528 24.5306 32.9634 24.957C32.974 25.3749 32.7628 25.6215 32.3637 25.6257C30.9425 25.6466 29.5214 25.632 28.0981 25.6445C27.6694 25.6487 27.7412 25.3624 27.7412 25.1116C27.7391 23.7825 27.7412 22.4533 27.7412 21.1241L27.7433 21.1304Z" fill="#6C4724"/>
<path d="M34.0636 21.1726C34.0636 19.8685 34.0805 18.5665 34.053 17.2624C34.0446 16.8257 34.1649 16.6752 34.6232 16.6877C35.8078 16.717 36.9925 16.7003 38.1771 16.6961C38.6671 16.6961 39.119 16.7734 39.0936 17.3857C39.0725 17.9291 38.6692 18.0315 38.1983 18.0252C37.4613 18.0127 36.7243 18.019 35.9852 18.0252C35.8142 18.0252 35.5523 17.9646 35.5396 18.2133C35.5101 18.8633 35.508 19.5174 35.546 20.1653C35.5629 20.4662 35.8712 20.3596 36.0591 20.3638C36.7708 20.3763 37.4803 20.3805 38.1919 20.3638C38.6502 20.3554 38.9099 20.5728 38.8993 21.0033C38.8909 21.4275 38.6227 21.6449 38.1708 21.6365C37.4592 21.624 36.7475 21.6553 36.038 21.6261C35.6157 21.6073 35.5206 21.7556 35.5101 22.1569C35.451 24.322 35.4383 24.322 37.6239 24.322C37.966 24.322 38.3102 24.3032 38.6502 24.3325C39.0387 24.3659 39.2731 24.577 39.2773 24.9928C39.2816 25.4171 39.0408 25.6323 38.648 25.6365C37.2522 25.6532 35.8564 25.6323 34.4606 25.6532C33.9791 25.6616 34.0615 25.3565 34.0615 25.0806C34.0615 23.7765 34.0615 22.4746 34.0615 21.1705L34.0636 21.1726Z" fill="#6C4724"/>
<path d="M14.5938 20.9799C14.5938 19.7574 14.6128 18.5327 14.5833 17.3101C14.5727 16.8504 14.672 16.6664 15.1851 16.6832C16.3677 16.7229 17.5523 16.6999 18.7349 16.6936C19.2058 16.6915 19.6091 16.7981 19.607 17.3498C19.6049 17.8807 19.2374 18.0332 18.7475 18.0249C18.0105 18.0102 17.2736 18.0395 16.5387 18.0144C16.1628 17.9998 16.0636 18.1126 16.0467 18.4909C15.9643 20.4951 15.9517 20.4951 17.9873 20.4951C18.1457 20.4951 18.302 20.4993 18.4603 20.4951C18.9207 20.4825 19.3472 20.562 19.3472 21.1241C19.3472 21.6654 18.9629 21.7971 18.4815 21.7866C17.9028 21.7741 17.3221 21.8201 16.7456 21.7741C16.2135 21.7302 16.0044 21.8639 16.0425 22.4366C16.0974 23.2391 16.0361 24.0499 16.0636 24.8566C16.0805 25.3812 15.8651 25.6382 15.3435 25.6487C14.8219 25.6591 14.5833 25.4167 14.5875 24.888C14.6023 23.586 14.5917 22.2861 14.5917 20.9841L14.5938 20.9799Z" fill="#6C4724"/>
<path d="M12.1422 31.9414C10.909 31.9414 9.67363 31.9038 8.44251 31.956C7.72454 31.9853 7.8618 31.5422 7.87025 31.1494C7.87869 30.7753 7.68231 30.3176 8.41717 30.328C10.8836 30.3636 13.3522 30.3698 15.8186 30.3259C16.5577 30.3134 16.3803 30.7565 16.3677 31.1285C16.355 31.4816 16.6063 31.9874 15.844 31.956C14.6129 31.9059 13.3775 31.9435 12.1443 31.9435L12.1422 31.9414Z" fill="#6C4724"/>
<path d="M63.5406 40.1026C65.7198 40.1131 67.5528 41.9417 67.5465 44.0963C67.5401 46.2468 65.6839 48.0608 63.5005 48.0504C61.3128 48.0399 59.5136 46.2343 59.5157 44.0524C59.5199 41.879 61.3402 40.0901 63.5406 40.1026ZM61.1037 43.9751C61.0277 45.2228 62.1046 46.3806 63.4181 46.4579C64.6809 46.5331 65.8444 45.4715 65.9247 44.1674C66.0028 42.9114 64.9343 41.762 63.6145 41.6825C62.3559 41.6052 61.1839 42.6773 61.1037 43.9751Z" fill="#6C4724"/>
<path d="M21.2077 40.1025C23.3911 40.113 25.2156 41.927 25.2135 44.0879C25.2135 46.2467 23.3721 48.0587 21.1887 48.0524C19.0031 48.044 17.1765 46.2258 17.1828 44.0649C17.1891 41.8977 19.0221 40.0942 21.2077 40.1046V40.1025ZM21.2119 41.6804C19.9153 41.6762 18.7961 42.7755 18.7898 44.0607C18.7834 45.3397 19.9026 46.462 21.1865 46.4662C22.4599 46.4704 23.6086 45.346 23.6234 44.0796C23.6403 42.8235 22.4937 41.6825 21.2098 41.6783L21.2119 41.6804Z" fill="#6C4724"/>
</g>
<defs>
<clipPath id="clip0_371_300">
<rect width="81" height="52" fill="white"/>
</clipPath>
</defs>
</svg>
