<svg width="53" height="34" viewBox="0 0 53 34" fill="none" xmlns="http://www.w3.org/2000/svg">
<g clip-path="url(#clip0_32_146)">
<path d="M53.0002 23.3526C52.7156 23.6806 52.5014 24.0755 52.062 24.2504C51.8907 24.3187 51.9667 24.4895 51.9653 24.6139C51.9584 25.3804 51.9639 26.147 51.9611 26.9136C51.9584 28.1202 51.3877 28.679 50.1566 28.6831C49.3815 28.6859 48.6036 28.6435 47.8326 28.6982C47.3503 28.7323 47.2674 28.5246 47.2232 28.1379C47.0477 26.5938 46.3375 25.323 45.0995 24.372C43.3364 23.0178 41.3675 22.7391 39.3253 23.5849C37.2638 24.4403 36.081 26.0363 35.8351 28.2554C35.795 28.6148 35.6693 28.6913 35.3294 28.69C30.2474 28.6804 25.1668 28.679 20.0849 28.6913C19.7049 28.6913 19.6165 28.6012 19.5916 28.2213C19.3982 25.4023 17.0354 23.2023 14.1753 23.1395C11.4629 23.0807 9.3876 24.3269 8.50053 26.5515C8.27807 27.109 8.13161 27.687 8.13299 28.2855C8.13299 28.593 8.04871 28.6954 7.72539 28.69C6.62277 28.6695 5.52016 28.69 4.41755 28.679C3.49456 28.6695 2.95845 28.1311 2.95569 27.206C2.94602 23.9525 2.94602 20.699 2.94049 17.4441C2.93635 14.2411 2.92806 11.0382 2.92806 7.83659C2.92806 7.52094 2.98471 7.26814 2.48176 7.27224C2.05757 7.27498 2.32424 6.85138 2.26898 6.62591C2.22476 6.44281 2.23167 6.22281 2.53288 6.27064C2.89489 6.32939 2.91148 6.12716 2.90595 5.8525C2.89213 5.17201 2.89489 4.49015 2.90318 3.80829C2.917 2.696 3.43791 2.18632 4.55019 2.18495C14.0592 2.18495 23.5668 2.18495 33.0758 2.18495C34.1936 2.18495 34.6993 2.69327 34.7007 3.80966C34.7007 4.76344 34.7173 5.71859 34.6924 6.67101C34.6827 7.01945 34.7684 7.12877 35.1346 7.13423C37.5277 7.17659 39.9208 7.25721 42.314 7.29684C43.1914 7.31187 43.8546 7.63572 44.3741 8.34081C46.7217 11.5315 49.0734 14.7208 51.4582 17.8855C51.8686 18.4307 52.0371 18.9745 51.9625 19.6236C51.9211 19.9802 51.9736 20.2644 52.3715 20.4353C52.6907 20.5719 52.7998 20.9367 53.0016 21.2005V23.3472L53.0002 23.3526ZM18.8095 3.20979C14.0896 3.20979 9.36963 3.20979 4.64968 3.20979C4.01823 3.20979 3.9754 3.25352 3.97264 3.87935C3.96987 4.49289 4.00027 5.10779 3.96296 5.71859C3.93533 6.15175 4.03896 6.28567 4.51289 6.28293C7.82073 6.25834 11.1272 6.2761 14.435 6.26244C14.8164 6.26107 14.9794 6.32393 14.9587 6.75026C14.9407 7.12193 14.9338 7.3146 14.4502 7.3105C11.1424 7.28591 7.83454 7.30777 4.52809 7.28591C4.07626 7.28318 3.96987 7.38566 3.97125 7.83522C3.99198 14.1892 3.98922 20.5446 3.99198 26.8986C3.99198 27.001 3.99336 27.1035 3.99198 27.2046C3.98645 27.4943 4.11495 27.6528 4.42031 27.6528C5.23 27.6528 6.03969 27.646 6.84938 27.6569C7.06769 27.6597 7.16026 27.5763 7.19066 27.3754C7.65216 24.346 10.5372 22.1351 13.6682 22.0832C16.9484 22.0299 19.7712 24.0591 20.4731 27.1295C20.5837 27.6105 20.7661 27.6597 21.1737 27.6583C25.1696 27.6474 29.1669 27.6474 33.1628 27.6583C33.5318 27.6583 33.6851 27.6146 33.6851 27.18C33.6658 19.4282 33.6672 11.6777 33.663 3.92581C33.663 3.25625 33.6105 3.20706 32.9197 3.20706C28.2163 3.20706 23.5143 3.20706 18.8109 3.20706L18.8095 3.20979ZM44.3354 10.068C44.1033 9.74962 43.9085 9.53098 43.7689 9.28092C43.3655 8.55944 42.7617 8.31758 41.9354 8.31758C39.697 8.31758 37.4572 8.25609 35.2188 8.19186C34.8071 8.17957 34.709 8.28752 34.7104 8.68789C34.7242 14.8724 34.72 21.0584 34.72 27.2429C34.72 27.3632 34.7339 27.482 34.7422 27.6159C34.9093 27.5394 34.89 27.426 34.9107 27.3317C35.7149 23.6833 39.5312 21.3521 43.1817 22.3114C45.7973 22.9987 47.4484 24.674 48.1352 27.2607C48.2153 27.564 48.3314 27.672 48.6492 27.6556C49.1811 27.6269 49.7172 27.6364 50.2506 27.6515C50.7093 27.6638 50.9207 27.4492 50.9221 27.0106C50.9249 26.2263 50.9152 25.4433 50.9276 24.6589C50.9318 24.4526 50.8627 24.372 50.6665 24.305C49.7601 23.9935 49.4671 23.5849 49.4547 22.6475C49.4492 22.2731 49.4478 21.8974 49.474 21.5243C49.5196 20.8889 49.9162 20.3232 50.5228 20.2248C51.0105 20.1456 50.9304 19.8668 50.9193 19.5771C50.9027 19.1809 50.5822 19.3694 50.4122 19.3694C47.1555 19.3571 43.9002 19.3612 40.6435 19.3599C39.5574 19.3599 39.0034 18.8461 38.9951 17.7843C38.9813 15.7401 38.9799 13.6946 38.9951 11.6503C39.0034 10.5941 39.5671 10.0707 40.6449 10.068C41.847 10.0653 43.0477 10.068 44.3368 10.068H44.3354ZM50.473 18.3405C48.6934 15.9424 46.9745 13.6276 45.2584 11.3128C45.1755 11.2022 45.1051 11.1024 44.9365 11.1038C43.4553 11.1092 41.9727 11.1038 40.4915 11.1106C40.211 11.1106 40.0535 11.2486 40.0549 11.5561C40.0604 13.6522 40.0604 15.747 40.0549 17.8431C40.0549 18.1861 40.2138 18.3405 40.555 18.3405C43.8256 18.3405 47.0961 18.3405 50.473 18.3405ZM50.5062 22.2376C50.5062 22.4248 50.5103 22.612 50.5062 22.7992C50.4979 23.1422 50.7024 23.2843 51.0105 23.3267C51.7097 23.4223 51.9653 23.2037 51.9681 22.5109C51.9681 22.3237 51.9681 22.1365 51.9681 21.9493C51.9653 21.2988 51.8617 21.1909 51.2371 21.1882C50.5739 21.1854 50.509 21.2524 50.5062 21.9301C50.5062 22.0326 50.5062 22.1337 50.5062 22.2362V22.2376Z" fill="#6C4724"/>
<path d="M36.2163 28.8007C36.2301 25.927 38.608 23.6314 41.5539 23.6464C44.4928 23.6614 46.9025 26.0158 46.8693 28.8417C46.8362 31.7071 44.4458 34.0096 41.5138 34C38.5721 33.9904 36.2011 31.6647 36.2149 28.802L36.2163 28.8007ZM45.7971 28.8171C45.7971 26.5228 43.9014 24.6781 41.5428 24.6767C39.1732 24.6753 37.2761 26.505 37.2719 28.7979C37.2678 31.1236 39.1635 32.9724 41.5497 32.9683C43.9 32.9642 45.7985 31.1086 45.7971 28.8157V28.8171Z" fill="#6C4724"/>
<path d="M13.8392 33.9986C10.8975 34.0055 8.52784 31.7003 8.51955 28.8253C8.51126 25.9543 10.8768 23.6464 13.8295 23.645C16.7657 23.645 19.1685 25.968 19.1712 28.8143C19.174 31.6552 16.7712 33.9918 13.8406 33.9986H13.8392ZM18.1018 28.8225C18.1059 26.5378 16.1992 24.6794 13.8475 24.6753C11.4778 24.6726 9.57242 26.505 9.5669 28.7911C9.56137 31.0936 11.4474 32.9588 13.7894 32.9683C16.1743 32.9779 18.0963 31.1305 18.1004 28.8225H18.1018Z" fill="#6C4724"/>
<path d="M15.8846 1.05627C14.4573 1.05627 13.0286 1.03304 11.6027 1.06993C11.1287 1.08223 11.1274 0.867696 11.1315 0.52745C11.1357 0.2118 11.1191 0.00819897 11.5723 0.0122983C14.4615 0.0368944 17.3506 0.0382609 20.2398 0.0122983C20.7372 0.00819897 20.6336 0.276023 20.6433 0.550679C20.6543 0.851298 20.6847 1.08359 20.2177 1.0713C18.7738 1.03577 17.3285 1.05763 15.8832 1.05763L15.8846 1.05627Z" fill="#6C4724"/>
<path d="M28.9585 31.8396C27.5312 31.8396 26.1025 31.815 24.6766 31.8533C24.2082 31.8656 24.2427 31.636 24.251 31.3368C24.2593 31.058 24.1654 30.7984 24.6586 30.8025C27.5478 30.8298 30.437 30.8285 33.3262 30.8025C33.7821 30.7984 33.7711 31.0061 33.7614 31.319C33.7517 31.606 33.825 31.8629 33.3427 31.8519C31.8823 31.8164 30.419 31.8396 28.9572 31.8396H28.9585Z" fill="#6C4724"/>
<path d="M22.2069 31.8396C22.0784 31.8396 21.9928 31.8396 21.9071 31.8396C21.2881 31.8396 21.1098 31.5882 21.2687 30.9774C21.313 30.808 21.4152 30.8175 21.5313 30.8175C21.8408 30.8148 22.153 30.8449 22.4584 30.8093C22.8936 30.7601 23.0152 30.8831 23.0346 31.3464C23.0705 32.1772 22.4667 31.7085 22.2069 31.841V31.8396Z" fill="#6C4724"/>
<path d="M9.10322 1.05627C8.93879 1.05627 8.81444 1.0385 8.69838 1.059C8.27557 1.13279 8.21339 0.934655 8.19405 0.557514C8.16918 0.097021 8.31702 -0.0491891 8.76055 0.0177669C8.9457 0.0464624 9.14191 0.0478288 9.32568 0.0177669C9.83139 -0.0683194 9.94054 0.133915 9.93502 0.617638C9.92672 1.41428 9.33811 0.89776 9.10322 1.05627Z" fill="#6C4724"/>
<path d="M0.698189 7.29957C0.104049 7.29821 -0.123935 6.96479 0.0667426 6.40045C0.113721 6.26107 0.200769 6.2761 0.298872 6.27473C0.452242 6.27473 0.605613 6.27473 0.758984 6.27473C1.41668 6.27747 1.41806 6.27747 1.39596 6.91697C1.38214 7.34193 1.50373 7.29821 0.696807 7.29821L0.698189 7.29957Z" fill="#6C4724"/>
<path d="M20.9805 20.8848C18.311 20.8848 15.6429 20.8711 12.9748 20.8971C12.5092 20.9012 12.447 20.7441 12.4594 20.3492C12.4705 19.9966 12.4926 19.8244 12.943 19.8258C18.3151 19.8449 23.6873 19.8463 29.0594 19.8258C29.561 19.8244 29.5319 20.0444 29.5513 20.3956C29.5734 20.8042 29.4407 20.8971 29.0387 20.8944C26.3526 20.8766 23.6665 20.8848 20.9805 20.8848Z" fill="#6C4724"/>
<path d="M16.491 13.9938C16.9622 14.3477 17.0672 14.8834 17.2095 15.4013C17.2772 15.6458 17.3864 15.8945 17.3809 16.1391C17.3753 16.3537 17.8175 16.601 17.414 16.754C16.9069 16.9453 16.5436 16.7431 16.422 16.3004C16.3045 15.8754 16.223 15.4395 16.089 15.0214C15.9121 14.468 15.3207 14.1919 14.7653 14.3464C14.5525 14.4051 14.6243 14.5513 14.623 14.6675C14.6147 15.1785 14.6133 15.6896 14.6216 16.1993C14.6271 16.5381 14.5166 16.7636 14.1311 16.7691C13.7221 16.7732 13.6115 16.5491 13.6143 16.1788C13.624 14.5787 13.624 12.9772 13.6143 11.3771C13.6129 11.1092 13.6737 11.0054 13.9708 10.963C14.4862 10.8879 14.9988 10.8674 15.5142 10.892C16.4358 10.9371 17.0838 11.3634 17.2938 12.0343C17.5218 12.7626 17.2828 13.3611 16.4924 13.9924L16.491 13.9938ZM14.6174 12.6178C14.6174 12.8556 14.6216 13.0933 14.6161 13.3297C14.6119 13.4732 14.6575 13.5524 14.8178 13.5443C15.1411 13.5279 15.4672 13.5798 15.7808 13.4472C16.2368 13.2546 16.4703 12.8378 16.357 12.3882C16.2216 11.8512 15.6786 11.5779 14.8869 11.6982C14.3618 11.7774 14.7238 12.2133 14.6188 12.4661C14.6009 12.5098 14.6161 12.5672 14.6174 12.6178Z" fill="#6C4724"/>
<path d="M18.1532 13.8162C18.1532 12.9649 18.1628 12.1122 18.1476 11.2609C18.1435 10.9972 18.2167 10.9056 18.4931 10.9111C19.3027 10.9275 20.1124 10.9166 20.9221 10.9179C21.2068 10.9179 21.4513 10.9917 21.4541 11.332C21.4568 11.6872 21.2233 11.7884 20.9042 11.7843C20.404 11.7788 19.8941 11.72 19.4078 11.7979C18.7418 11.9059 19.2337 12.4538 19.1259 12.7859C19.0706 12.9553 18.9352 13.3325 19.4105 13.3188C19.8927 13.3051 20.375 13.3229 20.8572 13.3133C21.157 13.3065 21.3256 13.4445 21.3201 13.7301C21.3159 14.0116 21.1446 14.151 20.8489 14.1469C20.3667 14.1387 19.8844 14.1523 19.4022 14.1414C19.1853 14.1359 19.0734 14.1988 19.1065 14.427C19.1093 14.4434 19.1065 14.4611 19.1065 14.4775C19.0651 15.4268 19.5206 15.9014 20.4731 15.9014C20.6969 15.9014 20.9221 15.8918 21.1446 15.9055C21.3974 15.9219 21.5619 16.0394 21.5688 16.3181C21.5757 16.5914 21.4375 16.7527 21.1764 16.7554C20.2465 16.7691 19.3166 16.7595 18.3853 16.7677C18.1048 16.7704 18.1518 16.5832 18.1518 16.4193C18.1504 15.5502 18.1518 14.6811 18.1518 13.8121L18.1532 13.8162Z" fill="#6C4724"/>
<path d="M22.2884 13.8435C22.2884 12.9908 22.2995 12.1395 22.2815 11.2869C22.276 11.0013 22.3547 10.9029 22.6546 10.9111C23.4297 10.9302 24.2049 10.9193 24.98 10.9166C25.3006 10.9166 25.5963 10.9671 25.5797 11.3675C25.5659 11.7228 25.302 11.7897 24.9938 11.7856C24.5116 11.7774 24.0294 11.7815 23.5458 11.7856C23.4339 11.7856 23.2625 11.746 23.2542 11.9086C23.2349 12.3336 23.2335 12.7613 23.2584 13.1849C23.2694 13.3816 23.4712 13.312 23.5942 13.3147C24.0598 13.3229 24.524 13.3256 24.9897 13.3147C25.2895 13.3092 25.4595 13.4513 25.4526 13.7328C25.447 14.0102 25.2716 14.1523 24.9759 14.1469C24.5102 14.1387 24.0446 14.1591 23.5803 14.14C23.304 14.1277 23.2418 14.2247 23.2349 14.4871C23.1962 15.9027 23.1879 15.9027 24.618 15.9027C24.8418 15.9027 25.0671 15.8904 25.2895 15.9096C25.5438 15.9314 25.6971 16.0694 25.6999 16.3414C25.7027 16.6188 25.5451 16.7595 25.2881 16.7622C24.3748 16.7732 23.4615 16.7595 22.5482 16.7732C22.2332 16.7786 22.287 16.5791 22.287 16.3988C22.287 15.5461 22.287 14.6948 22.287 13.8421L22.2884 13.8435Z" fill="#6C4724"/>
<path d="M9.54938 13.7178C9.54938 12.9184 9.56181 12.1177 9.54247 11.3183C9.53556 11.0177 9.6005 10.8974 9.93626 10.9084C10.71 10.9343 11.4852 10.9193 12.2589 10.9152C12.5671 10.9138 12.831 10.9835 12.8296 11.3443C12.8282 11.6913 12.5878 11.7911 12.2672 11.7856C11.785 11.7761 11.3028 11.7952 10.8219 11.7788C10.576 11.7692 10.5111 11.843 10.5 12.0903C10.4461 13.4008 10.4378 13.4008 11.7698 13.4008C11.8734 13.4008 11.9757 13.4035 12.0793 13.4008C12.3805 13.3926 12.6596 13.4445 12.6596 13.8121C12.6596 14.166 12.4082 14.2521 12.0931 14.2452C11.7145 14.237 11.3346 14.2671 10.9574 14.237C10.6092 14.2083 10.4724 14.2958 10.4972 14.6702C10.5332 15.1949 10.4931 15.7251 10.5111 16.2526C10.5221 16.5955 10.3812 16.7636 10.0399 16.7704C9.69861 16.7773 9.54247 16.6188 9.54523 16.273C9.55491 15.4218 9.548 14.5718 9.548 13.7205L9.54938 13.7178Z" fill="#6C4724"/>
<path d="M7.94454 20.8848C7.13762 20.8848 6.32931 20.8602 5.52377 20.8944C5.05398 20.9135 5.14379 20.6238 5.14932 20.3669C5.15485 20.1223 5.02635 19.8231 5.50719 19.8299C7.12104 19.8531 8.73627 19.8572 10.3501 19.8285C10.8337 19.8203 10.7177 20.11 10.7094 20.3533C10.7011 20.5842 10.8655 20.9149 10.3667 20.8944C9.56115 20.8616 8.75285 20.8862 7.94592 20.8862L7.94454 20.8848Z" fill="#6C4724"/>
<path d="M41.5759 26.2208C43.0019 26.2276 44.2012 27.4233 44.1971 28.8321C44.1929 30.2382 42.9784 31.4242 41.5497 31.4174C40.1182 31.4106 38.941 30.23 38.9424 28.8034C38.9451 27.3823 40.1362 26.2126 41.5759 26.2208ZM39.9814 28.7528C39.9317 29.5686 40.6364 30.3256 41.4958 30.3762C42.3221 30.4254 43.0834 29.7312 43.1359 28.8785C43.187 28.0573 42.4879 27.3058 41.6243 27.2538C40.8008 27.2033 40.0339 27.9043 39.9814 28.7528Z" fill="#6C4724"/>
<path d="M13.8767 26.2208C15.3054 26.2276 16.4992 27.4137 16.4979 28.8266C16.4979 30.2382 15.293 31.4229 13.8643 31.4188C12.4342 31.4133 11.239 30.2245 11.2432 28.8116C11.2473 27.3946 12.4467 26.2153 13.8767 26.2222V26.2208ZM13.8795 27.2525C13.0311 27.2497 12.2988 27.9685 12.2947 28.8089C12.2905 29.6451 13.0228 30.3789 13.8629 30.3816C14.6961 30.3844 15.4477 29.6492 15.4574 28.8212C15.4685 27.9999 14.7182 27.2538 13.8781 27.2511L13.8795 27.2525Z" fill="#6C4724"/>
</g>
<defs>
<clipPath id="clip0_32_146">
<rect width="53" height="34" fill="white"/>
</clipPath>
</defs>
</svg>
