<svg width="33" height="33" viewBox="0 0 33 33" fill="none" xmlns="http://www.w3.org/2000/svg">
<g clip-path="url(#clip0_32_121)">
<path d="M24.6175 0H25.8421C25.9575 0.12747 26.1203 0.0585671 26.2589 0.0964635C28.1122 0.599452 29.2361 1.78974 29.6279 3.66475C29.6615 3.82667 29.7106 3.85854 29.8604 3.87921C31.5406 4.11262 32.8832 5.51995 32.99 7.14519C33.1261 9.21227 31.5837 10.9331 29.5082 11.0003C29.2197 11.0098 29.1543 11.1079 29.1276 11.3586C28.9708 12.8081 28.8063 14.2568 28.6315 15.7037C28.6074 15.901 28.653 15.9432 28.8373 15.9372C29.3101 15.9199 29.7812 15.9372 30.2445 16.0508C31.96 16.4686 33.1278 18.0886 32.9909 19.8603C32.8591 21.5562 31.4416 22.954 29.6968 23.0815C29.1413 23.122 28.5807 23.1202 28.0235 23.1065C27.7772 23.1004 27.692 23.1771 27.6704 23.4148C27.6291 23.873 27.5636 24.3303 27.5025 24.7868C27.1856 27.1553 26.8661 29.523 26.5509 31.8907C26.4673 32.516 25.9756 32.9836 25.371 33C24.6985 33.0181 24.1456 32.6098 24.056 31.9725C23.8243 30.3386 23.6142 28.7022 23.3989 27.0666C23.2379 25.8453 23.0768 24.6232 22.9253 23.4002C22.8986 23.1831 22.8288 23.1047 22.5885 23.1065C21.0315 23.1202 19.4745 23.122 17.9174 23.1065C17.635 23.1039 17.5893 23.1926 17.5928 23.4484C17.6065 24.5655 17.6005 25.6825 17.5988 26.7988C17.5962 28.2052 16.9202 29.1501 15.5896 29.5962C15.4424 29.6453 15.3941 29.7133 15.4002 29.8658C15.4122 30.1879 15.4062 30.51 15.4028 30.8322C15.389 32.0267 14.4219 32.9966 13.2274 32.9983C10.2744 33.0026 7.32134 33.0017 4.36831 32.9983C3.35985 32.9974 2.4823 32.2808 2.25581 31.3024C2.14988 30.8451 2.205 30.3826 2.20155 29.9226C2.19983 29.7194 2.14644 29.6367 1.94147 29.5738C1.06478 29.3051 0.480891 28.7134 0.148471 27.865C0.0959384 27.7298 0.11144 27.5705 0.00292969 27.4568V5.54235C0.0812981 5.5122 0.0589071 5.43727 0.0752698 5.37956C0.312959 4.54154 0.790059 3.85337 1.61164 3.56915C2.16366 3.37881 2.21705 3.09372 2.20672 2.60451C2.17658 1.1455 2.57273 0.582226 3.92135 0.0284223C3.92824 0.0258384 3.92996 0.0094741 3.93427 0C7.15599 0 10.3786 0 13.6003 0C13.6227 0.0189482 13.6425 0.049093 13.6675 0.055122C14.5838 0.266997 15.1366 0.843195 15.3528 1.74754C15.4613 2.2023 15.3847 2.66739 15.4028 3.12731C15.4071 3.24531 15.4002 3.33316 15.5526 3.39086C17.0407 3.95587 17.5997 4.77236 17.5997 6.35281C17.5997 11.0554 17.5997 15.7571 17.5997 20.4597C17.5997 20.8999 17.6048 21.34 17.5971 21.7801C17.5945 21.9239 17.622 21.9885 17.7874 21.9877C19.3763 21.9816 20.9652 21.9833 22.5532 21.9859C22.6867 21.9859 22.7332 21.9644 22.7134 21.8076C22.5222 20.309 22.3397 18.8095 22.1605 17.31C22.1364 17.1059 22.052 17.0293 21.8384 17.0103C19.7836 16.8251 18.2843 14.7021 18.7915 12.6901C19.1067 11.4404 19.8741 10.5774 21.0806 10.1097C21.1839 10.0701 21.3346 10.083 21.3036 9.87287C21.2442 9.47065 21.2236 9.0624 21.1848 8.65674C21.0479 7.23649 20.8972 5.81623 20.8911 4.38823C20.8834 2.42623 22.2251 0.677828 24.1146 0.14814C24.2834 0.10077 24.4702 0.112828 24.6201 0L24.6175 0ZM25.2617 15.9328C25.8413 15.9328 26.4208 15.9328 27.0004 15.9328C27.3116 15.9328 27.4904 15.7747 27.5369 15.4583C27.5507 15.3627 27.5705 15.2679 27.5809 15.1723C27.7609 13.5531 27.9322 11.9331 28.12 10.3147C28.2974 8.78076 28.4343 7.24251 28.5428 5.70254C28.5953 4.96098 28.5755 4.95926 27.8246 4.95926C27.8031 4.95926 27.7807 4.9627 27.76 4.95926C27.5102 4.91447 27.4043 5.0161 27.307 5.26157C26.9229 6.22879 25.8852 6.76106 24.844 6.56555C23.882 6.38468 23.1208 5.49411 23.0777 4.49933C23.0338 3.48991 23.7193 2.54078 24.6838 2.27292C25.6742 1.99817 26.7705 2.40814 27.1899 3.34005C27.4069 3.82237 27.6833 3.89471 28.1096 3.84734C28.1415 3.8439 28.1751 3.84218 28.2061 3.84734C28.5196 3.8973 28.5437 3.74055 28.4558 3.50111C28.4446 3.47096 28.4343 3.44082 28.4248 3.40981C27.9675 1.9086 26.4872 0.926739 24.9405 1.09986C23.3619 1.27642 22.1063 2.54078 22.0296 4.12037C21.9521 5.7103 22.1571 7.29247 22.3147 8.8712C22.542 11.1536 22.8193 13.43 23.0665 15.7106C23.0863 15.8967 23.1578 15.9389 23.3283 15.9363C23.9725 15.9285 24.6166 15.9328 25.2608 15.9328H25.2617ZM16.4973 16.7631C16.4035 16.7356 16.3354 16.7657 16.2639 16.789C11.2888 18.3935 6.31288 19.9972 1.33605 21.5966C1.15779 21.6535 1.09234 21.7336 1.09492 21.9291C1.10698 22.8197 1.10956 23.7111 1.09492 24.6016C1.09061 24.8583 1.13454 24.9031 1.38945 24.8204C4.19177 23.9074 6.99753 23.0074 9.80243 22.1039C11.9356 21.4166 14.0696 20.731 16.2019 20.0368C16.3225 19.9972 16.5059 20.0222 16.5034 19.7836C16.4922 18.7751 16.4991 17.7665 16.4991 16.7631H16.4973ZM1.10009 20.4916C1.16382 20.4761 1.20429 20.4692 1.24305 20.4572C6.26121 18.8397 11.2785 17.2205 16.2993 15.609C16.4749 15.5522 16.5008 15.4669 16.4999 15.3101C16.4947 14.4084 16.4973 13.5066 16.4973 12.6049C16.4973 12.5153 16.4973 12.4248 16.4973 12.3241C16.3983 12.3491 16.3354 12.3611 16.2751 12.3801C12.9242 13.4618 9.57421 14.5445 6.22418 15.6262C4.59997 16.1507 2.9749 16.6753 1.35069 17.2015C1.23702 17.2385 1.09578 17.2282 1.09664 17.4211C1.10267 18.4383 1.09923 19.4555 1.09923 20.4907L1.10009 20.4916ZM16.4973 7.92723C16.4353 7.94274 16.3948 7.94963 16.3561 7.96255C13.3591 8.9289 10.3613 9.89526 7.3644 10.8625C5.35265 11.5119 3.34091 12.1639 1.3283 12.8107C1.19826 12.852 1.09492 12.8736 1.09664 13.0527C1.10439 14.0596 1.10009 15.0673 1.10009 16.0956C1.21463 16.062 1.30591 16.0371 1.39634 16.0086C4.80149 14.9105 8.20664 13.8124 11.6109 12.7151C13.1559 12.2173 14.7017 11.7203 16.2467 11.2216C16.3587 11.1855 16.5016 11.1975 16.5008 11.0029C16.4939 9.98484 16.4973 8.96594 16.4973 7.92982V7.92723ZM16.4973 21.1272C16.4181 21.1488 16.3682 21.16 16.3191 21.1755C11.4551 22.7439 6.59191 24.3123 1.7279 25.8806C1.09923 26.083 1.12076 26.0848 1.09578 26.7281C1.04325 28.0623 2.13093 28.9399 3.5674 28.4972C6.29135 27.6583 8.99808 26.7617 11.7117 25.8884C13.2257 25.4009 14.7405 24.9134 16.2528 24.4216C16.3587 24.3872 16.5042 24.3975 16.5025 24.1994C16.493 23.1822 16.4982 22.1659 16.4982 21.1272H16.4973ZM1.10009 11.6497C1.24132 11.7065 1.34639 11.6256 1.45318 11.592C6.27068 10.0434 11.0865 8.49051 15.9031 6.93762C16.3079 6.80728 16.5059 6.52765 16.4973 6.09873C16.4827 5.3365 16.0685 4.70949 15.3743 4.50881C14.7612 4.33138 14.1144 4.30727 13.503 4.49158C12.0622 4.92567 10.6343 5.40368 9.20218 5.86533C6.58157 6.70852 3.96097 7.55258 1.34036 8.39749C1.2129 8.43883 1.09148 8.46209 1.09406 8.66277C1.10698 9.66013 1.10009 10.6584 1.10009 11.6497ZM25.2944 17.0654C24.6933 17.0654 24.0913 17.0758 23.4911 17.0603C23.2766 17.0542 23.2396 17.1283 23.2637 17.3169C23.4661 18.8896 23.6581 20.464 23.8614 22.0367C24.0646 23.6094 24.2756 25.1804 24.4832 26.7523C24.6993 28.3878 24.9163 30.0225 25.1308 31.6581C25.1446 31.7615 25.173 31.8691 25.2815 31.876C25.415 31.8855 25.4425 31.7709 25.4572 31.6564C25.5097 31.2421 25.5683 30.8287 25.6234 30.4144C25.8266 28.8857 26.0299 27.356 26.2305 25.8264C26.4148 24.4242 26.5982 23.0221 26.7782 21.6199C26.9625 20.185 27.1399 18.7501 27.326 17.3152C27.3509 17.124 27.3105 17.0542 27.0977 17.0603C26.4966 17.0758 25.8955 17.0654 25.2944 17.0654ZM8.76297 3.29009C10.2761 3.29009 11.7892 3.29096 13.3023 3.28923C13.6227 3.28923 14.0679 3.4012 14.2307 3.23756C14.4374 3.03085 14.2978 2.58901 14.2927 2.25053C14.2823 1.56064 13.8233 1.11364 13.1335 1.10158C12.7477 1.09469 12.361 1.10072 11.9744 1.10072C9.49584 1.10072 7.01647 1.09986 4.53796 1.10072C3.74825 1.10072 3.30904 1.54428 3.30129 2.33666C3.29957 2.55112 3.31852 2.76816 3.29613 2.98003C3.26943 3.23583 3.35899 3.29871 3.61132 3.29699C5.32854 3.28579 7.04489 3.29096 8.76211 3.29096L8.76297 3.29009ZM8.81464 29.7082C7.31272 29.7082 5.80994 29.7047 4.30803 29.7108C3.97991 29.7125 3.51917 29.5635 3.35899 29.7736C3.19192 29.9933 3.29354 30.4299 3.3056 30.7701C3.32885 31.4471 3.77753 31.8786 4.45529 31.8976C4.60514 31.9019 4.75585 31.8976 4.90569 31.8976C7.59864 31.8976 10.2924 31.8976 12.9854 31.8976C13.8767 31.8976 14.2961 31.4729 14.2978 30.5729C14.2978 30.38 14.278 30.1845 14.303 29.9941C14.3357 29.7366 14.2264 29.7004 13.9982 29.7021C12.2706 29.7116 10.5431 29.7073 8.8155 29.7073L8.81464 29.7082ZM28.846 21.9842V21.9816C29.0604 21.9816 29.2748 21.9851 29.4893 21.9816C30.5063 21.9627 31.4175 21.296 31.7508 20.3288C32.0806 19.3728 31.7568 18.2816 30.986 17.6296C30.2738 17.0275 29.4324 17.043 28.5816 17.0663C28.43 17.0706 28.461 17.2015 28.4489 17.2816C28.3973 17.6201 28.3602 17.9603 28.3189 18.3005C28.1759 19.4581 28.0382 20.6156 27.8875 21.7723C27.8651 21.9446 27.8986 21.998 28.0743 21.9885C28.331 21.9747 28.5885 21.9851 28.846 21.9851V21.9842ZM16.4879 25.5163C13.3505 26.5283 10.233 27.5343 7.11551 28.5394C9.65516 28.5945 12.1767 28.5971 14.6983 28.5937C15.6913 28.592 16.3854 28.0313 16.4784 27.1054C16.5301 26.5886 16.4879 26.0615 16.4879 25.5155V25.5163ZM1.10525 7.3097C4.06689 6.35281 7.00442 5.40454 9.94194 4.45541C7.584 4.40287 5.24328 4.40115 2.90256 4.40373C1.88119 4.40545 1.18448 4.99974 1.11128 5.95318C1.0777 6.38985 1.10525 6.83082 1.10525 7.3097ZM29.5883 9.87459C30.8258 9.80397 31.7955 8.80919 31.8877 7.54224C31.9695 6.4286 31.0609 5.24865 29.956 5.02902C29.7881 4.99543 29.6908 4.99543 29.6787 5.22626C29.6029 6.6801 29.4789 8.1305 29.317 9.57659C29.2895 9.8255 29.3429 9.9478 29.5874 9.87373L29.5883 9.87459ZM21.9599 15.8958C21.9599 15.8321 21.9659 15.7683 21.959 15.7072C21.7945 14.2921 21.6171 12.8779 21.4733 11.4602C21.4423 11.1536 21.351 11.188 21.1503 11.2948C20.1996 11.797 19.67 12.8675 19.8491 13.9381C20.0179 14.945 20.8618 15.7304 21.9607 15.8958H21.9599ZM24.2136 4.38737C24.2093 4.99888 24.6675 5.47603 25.2677 5.4855C25.8921 5.49498 26.3743 5.03074 26.3804 4.41234C26.3864 3.79825 25.8972 3.29871 25.2927 3.30215C24.6976 3.3056 24.2188 3.78792 24.2145 4.38737H24.2136Z" fill="#6C4724" stroke="white" stroke-width="0.2"/>
</g>
<defs>
<clipPath id="clip0_32_121">
<rect width="33" height="33" fill="white"/>
</clipPath>
</defs>
</svg>
