<svg width="33" height="33" viewBox="0 0 33 33" fill="none" xmlns="http://www.w3.org/2000/svg">
<g clip-path="url(#clip0_32_163)">
<path d="M26.0609 16.3957C26.0609 17.9419 26.0515 19.4881 26.0675 21.0343C26.0713 21.427 25.935 21.659 25.579 21.8281C22.7814 23.1592 19.981 24.4865 17.2031 25.8608C16.6761 26.1219 16.2825 26.0928 15.778 25.8448C13.0358 24.4987 10.2805 23.1789 7.5205 21.8704C7.0987 21.6703 6.94839 21.4091 6.95121 20.9479C6.96624 17.8555 6.95873 14.7631 6.95309 11.6716C6.95309 11.3983 7.04327 11.1944 7.29222 11.0751C9.76196 9.88966 12.2317 8.70512 14.7014 7.52058C15.1852 7.28855 15.6728 7.06404 16.1491 6.81699C16.4009 6.68642 16.6282 6.6836 16.8809 6.80572C19.8175 8.22416 22.7551 9.64073 25.6955 11.0507C25.9642 11.1794 26.0694 11.3617 26.0684 11.6529C26.0619 13.2338 26.0656 14.8157 26.0656 16.3967C26.0637 16.3967 26.0628 16.3967 26.0609 16.3967V16.3957ZM17.004 24.8003C17.0613 24.7937 17.0857 24.7965 17.1045 24.788C19.6992 23.5415 22.2929 22.294 24.8895 21.0503C25.0266 20.9845 25.0651 20.8991 25.0651 20.7525C25.0614 18.0368 25.0614 15.3202 25.0651 12.6044C25.0651 12.4006 25.0266 12.3668 24.8312 12.4617C22.2854 13.6913 19.7358 14.9134 17.1862 16.1355C17.0631 16.1947 16.9993 16.2614 17.0002 16.4211C17.0077 19.2073 17.0049 21.9934 17.0049 24.8012L17.004 24.8003ZM16.0147 24.8463C16.0147 22.0028 16.0119 19.2148 16.0204 16.4267C16.0204 16.2266 15.917 16.1797 15.7761 16.112C13.2754 14.9096 10.7737 13.7063 8.27861 12.4917C7.98927 12.3508 7.96391 12.4363 7.96485 12.7068C7.97236 15.3662 7.97236 18.0246 7.96485 20.6839C7.96485 20.9047 8.03624 21.0155 8.23258 21.1085C9.34955 21.6365 10.46 22.1775 11.5732 22.712C13.0405 23.4175 14.5079 24.122 16.0157 24.8453L16.0147 24.8463ZM19.8279 9.34201C18.7654 8.83006 17.7066 8.32374 16.6536 7.80708C16.5239 7.74321 16.4328 7.7836 16.3276 7.83433C13.7761 9.06208 11.2256 10.2889 8.65344 11.526C8.73893 11.5702 8.80939 11.6087 8.88078 11.6435C9.81833 12.0991 10.7596 12.5481 11.6925 13.014C11.9123 13.1239 12.088 13.1258 12.3106 13.0178C14.7127 11.8511 17.1195 10.6956 19.5254 9.53646C19.6278 9.48667 19.749 9.46507 19.8288 9.34107L19.8279 9.34201ZM24.3906 11.5411C23.3225 11.0272 22.3136 10.5491 21.3121 10.0531C21.1139 9.95542 20.9646 9.94884 20.7635 10.0465C18.8264 10.9878 16.8837 11.9168 14.9429 12.8496C14.3632 13.1286 13.7846 13.4085 13.1589 13.7091C14.2627 14.2427 15.3168 14.75 16.368 15.2619C16.5333 15.3427 16.662 15.26 16.7963 15.1962C18.104 14.5687 19.4108 13.9402 20.7175 13.3108C21.9171 12.7331 23.1177 12.1554 24.3916 11.5411H24.3906Z" fill="#6C4724"/>
<path d="M5.26581 27.1477C6.32172 28.2581 7.43869 29.1336 8.67779 29.8522C11.4228 31.4435 14.3876 32.1386 17.5459 31.931C23.9735 31.5074 29.4681 27.1327 31.3301 20.9592C32.3569 17.5568 32.2178 14.1826 30.9599 10.8563C30.9271 10.7689 30.8838 10.6853 30.8547 10.597C30.7476 10.2795 30.8594 9.99676 31.1262 9.89719C31.3996 9.7948 31.6579 9.92349 31.7885 10.2476C32.2826 11.4744 32.634 12.7397 32.8181 14.052C33.4165 18.3214 32.5288 22.264 30.106 25.8195C27.5592 29.5582 24.0317 31.9103 19.5741 32.7013C13.7882 33.728 8.79052 32.0926 4.61104 27.9575C4.54997 27.8964 4.51146 27.7968 4.37148 27.794C4.29163 28.5211 4.21272 29.2482 4.13099 29.9752C4.08966 30.3472 4.05114 30.7192 3.99853 31.0893C3.95344 31.4087 3.73268 31.6041 3.46776 31.5797C3.18593 31.5534 2.98584 31.3073 3.01684 30.9766C3.0826 30.2664 3.16339 29.5572 3.2423 28.8489C3.32591 28.0937 3.41609 27.3394 3.49782 26.5832C3.54385 26.1595 3.70731 25.9951 4.13569 26.0374C5.58991 26.1793 7.04414 26.3324 8.49648 26.4921C8.86474 26.5325 9.07517 26.7758 9.03571 27.0566C8.99062 27.3769 8.71819 27.5244 8.31424 27.4775C7.32784 27.3638 6.33957 27.2633 5.26205 27.1468L5.26581 27.1477Z" fill="#6C4724"/>
<path d="M27.7801 5.86628C27.4213 5.4586 27.0568 5.11667 26.6782 4.79258C24.1342 2.61419 21.1967 1.37422 17.8589 1.06799C10.414 0.38225 3.42937 5.26696 1.5355 12.501C0.693778 15.7165 0.841267 18.8859 2.01554 22.0009C2.03997 22.0666 2.06533 22.1314 2.08694 22.1981C2.20437 22.5438 2.10479 22.8275 1.8286 22.9318C1.52235 23.0473 1.27246 22.9121 1.12967 22.5372C0.80369 21.6871 0.516227 20.8238 0.348071 19.9286C-0.761386 14.0256 0.768932 8.8995 5.01136 4.65262C7.50083 2.16047 10.553 0.657485 14.0514 0.180286C19.7086 -0.591874 24.5363 1.11684 28.5307 5.19182C28.5457 5.20778 28.5692 5.21436 28.6312 5.25006C28.6904 4.75407 28.7505 4.27781 28.805 3.79967C28.8783 3.1609 28.9441 2.52119 29.0192 1.88242C29.0568 1.56585 29.2757 1.37798 29.5566 1.40522C29.8384 1.4334 30.0244 1.6457 29.9972 1.97166C29.9361 2.70531 29.8562 3.43802 29.7773 4.17072C29.6956 4.92597 29.6082 5.68123 29.518 6.43648C29.4645 6.88737 29.3057 7.03016 28.8492 6.98601C27.8835 6.89207 26.9196 6.77841 25.9548 6.67132C25.4663 6.61684 24.9788 6.56423 24.4912 6.50317C24.1493 6.4609 23.9473 6.23733 23.9811 5.95928C24.0168 5.67277 24.2488 5.49053 24.5927 5.52247C25.3376 5.59199 26.0807 5.68029 26.8247 5.76107C27.1263 5.79395 27.4278 5.82777 27.7792 5.86628H27.7801Z" fill="#6C4724"/>
<path d="M10.4524 16.2079C10.6459 16.1966 10.7483 16.2567 10.8535 16.3065C11.6633 16.6916 12.4731 17.0768 13.28 17.4657C13.6539 17.646 13.7751 17.894 13.6427 18.1777C13.5027 18.4774 13.2152 18.5488 12.8376 18.3684C12.0071 17.9711 11.1795 17.5699 10.3509 17.1688C10.0954 17.0448 9.98455 16.8354 10.0569 16.5648C10.1161 16.3431 10.2899 16.2238 10.4533 16.2079H10.4524Z" fill="#6C4724"/>
</g>
<defs>
<clipPath id="clip0_32_163">
<rect width="33" height="33" fill="white"/>
</clipPath>
</defs>
</svg>
