<svg width="17" height="17" viewBox="0 0 17 17" fill="none" xmlns="http://www.w3.org/2000/svg">
<path d="M7.74513 0.868798C8.14379 0.409968 8.85621 0.409968 9.25487 0.868799L10.3166 2.09079C10.5429 2.35122 10.8874 2.47662 11.2282 2.42257L12.827 2.16894C13.4273 2.07371 13.973 2.53164 13.9835 3.13938L14.0114 4.75796C14.0173 5.1029 14.2006 5.42042 14.4964 5.59804L15.8842 6.43146C16.4053 6.74439 16.529 7.44598 16.1463 7.91826L15.1273 9.17607C14.9101 9.44413 14.8464 9.8052 14.9588 10.1314L15.4862 11.6619C15.6843 12.2365 15.3281 12.8535 14.7314 12.9693L13.1422 13.2778C12.8036 13.3436 12.5227 13.5793 12.3991 13.9014L11.8194 15.4128C11.6017 15.9803 10.9322 16.224 10.4007 15.9292L8.98502 15.144C8.68332 14.9767 8.31668 14.9767 8.01498 15.144L6.59932 15.9292C6.06777 16.224 5.39832 15.9803 5.18063 15.4128L4.60086 13.9014C4.47731 13.5793 4.19644 13.3436 3.85777 13.2778L2.26862 12.9693C1.67193 12.8535 1.31572 12.2365 1.51375 11.6619L2.04116 10.1314C2.15355 9.8052 2.08989 9.44413 1.87271 9.17607L0.853652 7.91825C0.471019 7.44598 0.594729 6.74439 1.11582 6.43146L2.50361 5.59804C2.79937 5.42042 2.9827 5.1029 2.98863 4.75796L3.0165 3.13938C3.02696 2.53164 3.5727 2.07371 4.17302 2.16894L5.77185 2.42257C6.11258 2.47662 6.45711 2.35122 6.68339 2.09079L7.74513 0.868798Z" fill="#11C202"/>
<path d="M6 9L7.2 10.58L11.5 7" stroke="white" stroke-linecap="round" stroke-linejoin="round"/>
</svg>
