<svg width="21" height="21" viewBox="0 0 21 21" fill="none" xmlns="http://www.w3.org/2000/svg">
<path d="M14.8931 0.00048442C14.0365 -0.00506962 13.1895 0.21757 12.4119 0.652628C11.6343 1.08769 10.9453 1.72452 10.3936 2.518C9.84548 1.71938 9.15714 1.07896 8.37873 0.643431C7.60033 0.207904 6.75148 -0.0117501 5.89407 0.00048442C4.33087 0.00048442 2.83169 0.752551 1.72633 2.09124C0.620981 3.42992 0 5.24557 0 7.13876C0 13.8946 9.73575 20.4912 10.1304 20.7461C10.2083 20.8091 10.2999 20.8428 10.3936 20.8428C10.4872 20.8428 10.5788 20.8091 10.6567 20.7461C11.0514 20.4912 20.7871 13.9902 20.7871 7.13876C20.7871 5.24557 20.1662 3.42992 19.0608 2.09124C17.9555 0.752551 16.4563 0.00048442 14.8931 0.00048442ZM10.3936 19.4714C8.86742 18.3879 1.05251 12.6199 1.05251 7.13876C1.05251 5.58364 1.5626 4.09222 2.47057 2.99258C3.37854 1.89295 4.61001 1.27518 5.89407 1.27518C6.69948 1.26237 7.49428 1.49855 8.20333 1.96137C8.91238 2.42419 9.51226 3.09837 9.94625 3.92016C9.99749 4.00574 10.0647 4.07539 10.1425 4.12342C10.2202 4.17145 10.3063 4.19649 10.3936 4.19649C10.4809 4.19649 10.5669 4.17145 10.6446 4.12342C10.7224 4.07539 10.7896 4.00574 10.8409 3.92016C11.412 2.86245 12.2499 2.05649 13.2299 1.62236C14.2099 1.18823 15.2794 1.14917 16.2792 1.51099C17.279 1.87281 18.1556 2.61616 18.7782 3.63028C19.4009 4.64439 19.7363 5.875 19.7346 7.13876C19.7346 12.6837 11.9197 18.4198 10.3936 19.4714Z" fill="#9F9F9F"/>
</svg>
